# Blender 4.1.1
# www.blender.org
mtllib Enemy.mtl
o 立方体
v 0.230549 -0.380278 -0.103471
v 0.230549 0.011822 -0.456233
v 0.230549 0.004556 0.324277
v 0.230549 0.396656 -0.028484
v -0.296882 -0.380278 -0.103471
v -0.296882 0.011822 -0.456233
v -0.296882 0.004556 0.324277
v -0.296882 0.396656 -0.028484
vn 1.0000 -0.0000 -0.0000
vn -0.0000 0.6688 0.7434
vn -1.0000 -0.0000 -0.0000
vn -0.0000 -0.6688 -0.7434
vn -0.0000 -0.7434 0.6688
vn -0.0000 0.7434 -0.6688
vt 0.625000 0.000000
vt 0.375000 0.250000
vt 0.375000 0.000000
vt 0.625000 0.250000
vt 0.375000 0.500000
vt 0.625000 0.500000
vt 0.375000 0.750000
vt 0.625000 0.750000
vt 0.375000 1.000000
vt 0.125000 0.750000
vt 0.125000 0.500000
vt 0.875000 0.500000
vt 0.625000 1.000000
vt 0.875000 0.750000
s 0
f 2/1/1 3/2/1 1/3/1
f 4/4/2 7/5/2 3/2/2
f 8/6/3 5/7/3 7/5/3
f 6/8/4 1/9/4 5/7/4
f 7/5/5 1/10/5 3/11/5
f 4/12/6 6/8/6 8/6/6
f 2/1/1 4/4/1 3/2/1
f 4/4/2 8/6/2 7/5/2
f 8/6/3 6/8/3 5/7/3
f 6/8/4 2/13/4 1/9/4
f 7/5/5 5/7/5 1/10/5
f 4/12/6 2/14/6 6/8/6
o 円錐
v -0.033167 -0.019360 0.302510
v -0.084615 -0.015503 0.299220
v -0.134086 -0.004079 0.289479
v -0.179679 0.014472 0.273659
v -0.219641 0.039436 0.252369
v -0.252438 0.069856 0.226428
v -0.276808 0.104562 0.196831
v -0.291815 0.142220 0.164717
v -0.296882 0.181383 0.131319
v -0.291815 0.220546 0.097922
v -0.276808 0.258204 0.065808
v -0.252438 0.292910 0.036211
v -0.219641 0.323330 0.010269
v -0.179679 0.348295 -0.011020
v -0.134086 0.366846 -0.026840
v -0.084615 0.378269 -0.036582
v -0.033167 0.382126 -0.039871
v 0.018282 0.378269 -0.036582
v 0.067753 0.366846 -0.026840
v 0.113346 0.348295 -0.011020
v 0.153308 0.323330 0.010269
v 0.186105 0.292910 0.036211
v 0.210475 0.258204 0.065808
v 0.225481 0.220546 0.097922
v 0.230549 0.181383 0.131319
v 0.225481 0.142220 0.164717
v 0.210475 0.104562 0.196831
v 0.186105 0.069856 0.226428
v 0.153308 0.039436 0.252369
v 0.113346 0.014472 0.273659
v 0.067753 -0.004079 0.289479
v 0.018282 -0.015503 0.299220
v -0.033167 0.554826 0.569229
vn -0.0892 -0.4196 0.9033
vn -0.2642 -0.3931 0.8807
vn -0.4290 -0.3412 0.8364
vn -0.5773 -0.2658 0.7720
vn -0.7034 -0.1698 0.6902
vn -0.8025 -0.0570 0.5939
vn -0.8707 0.0683 0.4870
vn -0.9055 0.2014 0.3735
vn -0.9055 0.3371 0.2579
vn -0.8707 0.4701 0.1444
vn -0.8025 0.5955 0.0375
vn -0.7034 0.7083 -0.0587
vn -0.5773 0.8043 -0.1405
vn -0.4290 0.8798 -0.2048
vn -0.2642 0.9317 -0.2491
vn -0.0892 0.9582 -0.2717
vn 0.0892 0.9582 -0.2717
vn 0.2642 0.9317 -0.2491
vn 0.4290 0.8798 -0.2048
vn 0.5773 0.8043 -0.1405
vn 0.7034 0.7083 -0.0587
vn 0.8025 0.5955 0.0375
vn 0.8707 0.4701 0.1444
vn 0.9055 0.3371 0.2579
vn 0.9055 0.2014 0.3735
vn 0.8707 0.0683 0.4870
vn 0.8025 -0.0570 0.5939
vn 0.7034 -0.1698 0.6902
vn 0.5773 -0.2658 0.7720
vn 0.4290 -0.3412 0.8364
vn -0.0000 -0.6489 -0.7609
vn 0.2642 -0.3931 0.8807
vn 0.0892 -0.4196 0.9033
vt 0.250000 0.490000
vt 0.250000 0.250000
vt 0.296822 0.485388
vt 0.341844 0.471731
vt 0.383337 0.449553
vt 0.419706 0.419706
vt 0.449553 0.383337
vt 0.471731 0.341844
vt 0.485388 0.296822
vt 0.490000 0.250000
vt 0.485388 0.203178
vt 0.471731 0.158156
vt 0.449553 0.116663
vt 0.419706 0.080294
vt 0.383337 0.050447
vt 0.341844 0.028269
vt 0.296822 0.014612
vt 0.250000 0.010000
vt 0.203178 0.014612
vt 0.158156 0.028269
vt 0.116663 0.050447
vt 0.080294 0.080294
vt 0.050447 0.116663
vt 0.028269 0.158156
vt 0.014612 0.203178
vt 0.010000 0.250000
vt 0.014612 0.296822
vt 0.028269 0.341844
vt 0.050447 0.383337
vt 0.080294 0.419706
vt 0.116663 0.449553
vt 0.158156 0.471731
vt 0.796822 0.014612
vt 0.514612 0.203178
vt 0.703178 0.485388
vt 0.203178 0.485388
vt 0.750000 0.490000
vt 0.796822 0.485388
vt 0.841844 0.471731
vt 0.883337 0.449553
vt 0.919706 0.419706
vt 0.949553 0.383337
vt 0.971731 0.341844
vt 0.985388 0.296822
vt 0.990000 0.250000
vt 0.985388 0.203178
vt 0.971731 0.158156
vt 0.949553 0.116663
vt 0.919706 0.080294
vt 0.883337 0.050447
vt 0.841844 0.028269
vt 0.750000 0.010000
vt 0.703178 0.014612
vt 0.658156 0.028269
vt 0.616663 0.050447
vt 0.580294 0.080294
vt 0.550447 0.116663
vt 0.528269 0.158156
vt 0.510000 0.250000
vt 0.514612 0.296822
vt 0.528269 0.341844
vt 0.550447 0.383337
vt 0.580294 0.419706
vt 0.616663 0.449553
vt 0.658156 0.471731
s 0
f 9/15/7 41/16/7 10/17/7
f 10/17/8 41/16/8 11/18/8
f 11/18/9 41/16/9 12/19/9
f 12/19/10 41/16/10 13/20/10
f 13/20/11 41/16/11 14/21/11
f 14/21/12 41/16/12 15/22/12
f 15/22/13 41/16/13 16/23/13
f 16/23/14 41/16/14 17/24/14
f 17/24/15 41/16/15 18/25/15
f 18/25/16 41/16/16 19/26/16
f 19/26/17 41/16/17 20/27/17
f 20/27/18 41/16/18 21/28/18
f 21/28/19 41/16/19 22/29/19
f 22/29/20 41/16/20 23/30/20
f 23/30/21 41/16/21 24/31/21
f 24/31/22 41/16/22 25/32/22
f 25/32/23 41/16/23 26/33/23
f 26/33/24 41/16/24 27/34/24
f 27/34/25 41/16/25 28/35/25
f 28/35/26 41/16/26 29/36/26
f 29/36/27 41/16/27 30/37/27
f 30/37/28 41/16/28 31/38/28
f 31/38/29 41/16/29 32/39/29
f 32/39/30 41/16/30 33/40/30
f 33/40/31 41/16/31 34/41/31
f 34/41/32 41/16/32 35/42/32
f 35/42/33 41/16/33 36/43/33
f 36/43/34 41/16/34 37/44/34
f 37/44/35 41/16/35 38/45/35
f 38/45/36 41/16/36 39/46/36
f 24/47/37 32/48/37 40/49/37
f 39/46/38 41/16/38 40/50/38
f 40/50/39 41/16/39 9/15/39
f 40/49/37 9/51/37 10/52/37
f 10/52/37 11/53/37 12/54/37
f 12/54/37 13/55/37 14/56/37
f 14/56/37 15/57/37 16/58/37
f 16/58/37 17/59/37 18/60/37
f 18/60/37 19/61/37 20/62/37
f 20/62/37 21/63/37 22/64/37
f 22/64/37 23/65/37 24/47/37
f 24/47/37 25/66/37 26/67/37
f 26/67/37 27/68/37 28/69/37
f 28/69/37 29/70/37 30/71/37
f 30/71/37 31/72/37 32/48/37
f 32/48/37 33/73/37 34/74/37
f 34/74/37 35/75/37 36/76/37
f 36/76/37 37/77/37 38/78/37
f 38/78/37 39/79/37 40/49/37
f 40/49/37 10/52/37 12/54/37
f 12/54/37 14/56/37 16/58/37
f 16/58/37 18/60/37 20/62/37
f 20/62/37 22/64/37 24/47/37
f 24/47/37 26/67/37 28/69/37
f 28/69/37 30/71/37 32/48/37
f 32/48/37 34/74/37 36/76/37
f 36/76/37 38/78/37 40/49/37
f 40/49/37 12/54/37 16/58/37
f 16/58/37 20/62/37 24/47/37
f 24/47/37 28/69/37 32/48/37
f 32/48/37 36/76/37 40/49/37
f 40/49/37 16/58/37 24/47/37
o 円錐.001
v -0.033167 0.398001 -0.029694
v -0.084615 0.394304 -0.033804
v -0.134086 0.383354 -0.045975
v -0.179679 0.365573 -0.065739
v -0.219641 0.341643 -0.092337
v -0.252438 0.312485 -0.124747
v -0.276808 0.279219 -0.161723
v -0.291815 0.243123 -0.201844
v -0.296882 0.205584 -0.243569
v -0.291815 0.168045 -0.285293
v -0.276808 0.131949 -0.325415
v -0.252438 0.098683 -0.362391
v -0.219641 0.069525 -0.394801
v -0.179679 0.045595 -0.421399
v -0.134086 0.027814 -0.441163
v -0.084615 0.016864 -0.453333
v -0.033167 0.013167 -0.457443
v 0.018282 0.016864 -0.453333
v 0.067753 0.027814 -0.441163
v 0.113346 0.045595 -0.421399
v 0.153308 0.069525 -0.394801
v 0.186105 0.098683 -0.362391
v 0.210475 0.131949 -0.325415
v 0.225481 0.168045 -0.285293
v 0.230549 0.205584 -0.243569
v 0.225481 0.243123 -0.201844
v 0.210475 0.279219 -0.161723
v 0.186105 0.312485 -0.124747
v 0.153308 0.341643 -0.092337
v 0.113346 0.365573 -0.065739
v 0.067753 0.383354 -0.045975
v 0.018282 0.394304 -0.033804
v -0.033167 0.597684 -0.596330
vn -0.0939 0.9390 0.3309
vn -0.2766 0.9115 0.3043
vn -0.4448 0.8592 0.2530
vn -0.5910 0.7862 0.1807
vn -0.7106 0.6976 0.0915
vn -0.8011 0.5985 -0.0105
vn -0.8614 0.4932 -0.1215
vn -0.8915 0.3852 -0.2383
vn -0.8915 0.2776 -0.3580
vn -0.8614 0.1728 -0.4776
vn -0.8011 0.0735 -0.5941
vn -0.7106 -0.0175 -0.7034
vn -0.5910 -0.0969 -0.8008
vn -0.4448 -0.1611 -0.8810
vn -0.2766 -0.2066 -0.9385
vn -0.0939 -0.2302 -0.9686
vn 0.0939 -0.2302 -0.9686
vn 0.2766 -0.2066 -0.9385
vn 0.4448 -0.1611 -0.8810
vn 0.5910 -0.0969 -0.8008
vn 0.7106 -0.0175 -0.7034
vn 0.8011 0.0735 -0.5941
vn 0.8614 0.1728 -0.4776
vn 0.8915 0.2776 -0.3580
vn 0.8915 0.3852 -0.2383
vn 0.8614 0.4932 -0.1215
vn 0.8011 0.5985 -0.0105
vn 0.7106 0.6976 0.0915
vn 0.5910 0.7862 0.1807
vn 0.4448 0.8592 0.2530
vn -0.0000 -0.7434 0.6688
vn 0.2766 0.9115 0.3043
vn 0.0939 0.9390 0.3309
vt 0.250000 0.490000
vt 0.250000 0.250000
vt 0.296822 0.485388
vt 0.341844 0.471731
vt 0.383337 0.449553
vt 0.419706 0.419706
vt 0.449553 0.383337
vt 0.471731 0.341844
vt 0.485388 0.296822
vt 0.490000 0.250000
vt 0.485388 0.203178
vt 0.471731 0.158156
vt 0.449553 0.116663
vt 0.419706 0.080294
vt 0.383337 0.050447
vt 0.341844 0.028269
vt 0.296822 0.014612
vt 0.250000 0.010000
vt 0.203178 0.014612
vt 0.158156 0.028269
vt 0.116663 0.050447
vt 0.080294 0.080294
vt 0.050447 0.116663
vt 0.028269 0.158156
vt 0.014612 0.203178
vt 0.010000 0.250000
vt 0.014612 0.296822
vt 0.028269 0.341844
vt 0.050447 0.383337
vt 0.080294 0.419706
vt 0.116663 0.449553
vt 0.158156 0.471731
vt 0.796822 0.014612
vt 0.514612 0.203178
vt 0.703178 0.485388
vt 0.203178 0.485388
vt 0.750000 0.490000
vt 0.796822 0.485388
vt 0.841844 0.471731
vt 0.883337 0.449553
vt 0.919706 0.419706
vt 0.949553 0.383337
vt 0.971731 0.341844
vt 0.985388 0.296822
vt 0.990000 0.250000
vt 0.985388 0.203178
vt 0.971731 0.158156
vt 0.949553 0.116663
vt 0.919706 0.080294
vt 0.883337 0.050447
vt 0.841844 0.028269
vt 0.750000 0.010000
vt 0.703178 0.014612
vt 0.658156 0.028269
vt 0.616663 0.050447
vt 0.580294 0.080294
vt 0.550447 0.116663
vt 0.528269 0.158156
vt 0.510000 0.250000
vt 0.514612 0.296822
vt 0.528269 0.341844
vt 0.550447 0.383337
vt 0.580294 0.419706
vt 0.616663 0.449553
vt 0.658156 0.471731
s 0
f 42/80/40 74/81/40 43/82/40
f 43/82/41 74/81/41 44/83/41
f 44/83/42 74/81/42 45/84/42
f 45/84/43 74/81/43 46/85/43
f 46/85/44 74/81/44 47/86/44
f 47/86/45 74/81/45 48/87/45
f 48/87/46 74/81/46 49/88/46
f 49/88/47 74/81/47 50/89/47
f 50/89/48 74/81/48 51/90/48
f 51/90/49 74/81/49 52/91/49
f 52/91/50 74/81/50 53/92/50
f 53/92/51 74/81/51 54/93/51
f 54/93/52 74/81/52 55/94/52
f 55/94/53 74/81/53 56/95/53
f 56/95/54 74/81/54 57/96/54
f 57/96/55 74/81/55 58/97/55
f 58/97/56 74/81/56 59/98/56
f 59/98/57 74/81/57 60/99/57
f 60/99/58 74/81/58 61/100/58
f 61/100/59 74/81/59 62/101/59
f 62/101/60 74/81/60 63/102/60
f 63/102/61 74/81/61 64/103/61
f 64/103/62 74/81/62 65/104/62
f 65/104/63 74/81/63 66/105/63
f 66/105/64 74/81/64 67/106/64
f 67/106/65 74/81/65 68/107/65
f 68/107/66 74/81/66 69/108/66
f 69/108/67 74/81/67 70/109/67
f 70/109/68 74/81/68 71/110/68
f 71/110/69 74/81/69 72/111/69
f 57/112/70 65/113/70 73/114/70
f 72/111/71 74/81/71 73/115/71
f 73/115/72 74/81/72 42/80/72
f 73/114/70 42/116/70 43/117/70
f 43/117/70 44/118/70 45/119/70
f 45/119/70 46/120/70 47/121/70
f 47/121/70 48/122/70 49/123/70
f 49/123/70 50/124/70 51/125/70
f 51/125/70 52/126/70 53/127/70
f 53/127/70 54/128/70 55/129/70
f 55/129/70 56/130/70 57/112/70
f 57/112/70 58/131/70 59/132/70
f 59/132/70 60/133/70 61/134/70
f 61/134/70 62/135/70 63/136/70
f 63/136/70 64/137/70 65/113/70
f 65/113/70 66/138/70 67/139/70
f 67/139/70 68/140/70 69/141/70
f 69/141/70 70/142/70 71/143/70
f 71/143/70 72/144/70 73/114/70
f 73/114/70 43/117/70 45/119/70
f 45/119/70 47/121/70 49/123/70
f 49/123/70 51/125/70 53/127/70
f 53/127/70 55/129/70 57/112/70
f 57/112/70 59/132/70 61/134/70
f 61/134/70 63/136/70 65/113/70
f 65/113/70 67/139/70 69/141/70
f 69/141/70 71/143/70 73/114/70
f 73/114/70 45/119/70 49/123/70
f 49/123/70 53/127/70 57/112/70
f 57/112/70 61/134/70 65/113/70
f 65/113/70 69/141/70 73/114/70
f 73/114/70 49/123/70 57/112/70
o 円錐.002
v -0.033167 0.002663 -0.459732
v -0.084615 -0.001029 -0.456260
v -0.134086 -0.011965 -0.445976
v -0.179679 -0.029722 -0.429275
v -0.219641 -0.053620 -0.406800
v -0.252438 -0.082740 -0.379415
v -0.276808 -0.115962 -0.348171
v -0.291815 -0.152010 -0.314269
v -0.296882 -0.189499 -0.279012
v -0.291815 -0.226988 -0.243755
v -0.276808 -0.263037 -0.209853
v -0.252438 -0.296259 -0.178609
v -0.219641 -0.325378 -0.151224
v -0.179679 -0.349276 -0.128749
v -0.134086 -0.367034 -0.112048
v -0.084615 -0.377969 -0.101764
v -0.033167 -0.381661 -0.098292
v 0.018282 -0.377969 -0.101764
v 0.067753 -0.367034 -0.112048
v 0.113346 -0.349276 -0.128749
v 0.153308 -0.325378 -0.151224
v 0.186105 -0.296259 -0.178609
v 0.210475 -0.263037 -0.209853
v 0.225481 -0.226988 -0.243755
v 0.230549 -0.189499 -0.279012
v 0.225481 -0.152010 -0.314269
v 0.210475 -0.115962 -0.348171
v 0.186105 -0.082740 -0.379415
v 0.153308 -0.053620 -0.406800
v 0.113346 -0.029722 -0.429275
v 0.067753 -0.011965 -0.445976
v 0.018282 -0.001029 -0.456260
v -0.033167 -0.583752 -0.698226
vn -0.0892 0.3752 -0.9226
vn -0.2642 0.3499 -0.8988
vn -0.4290 0.3002 -0.8520
vn -0.5773 0.2280 -0.7841
vn -0.7034 0.1361 -0.6977
vn -0.8025 0.0281 -0.5960
vn -0.8707 -0.0919 -0.4832
vn -0.9055 -0.2193 -0.3633
vn -0.9055 -0.3492 -0.2412
vn -0.8707 -0.4766 -0.1214
vn -0.8025 -0.5966 -0.0085
vn -0.7034 -0.7047 0.0931
vn -0.5773 -0.7966 0.1795
vn -0.4290 -0.8688 0.2473
vn -0.2642 -0.9185 0.2941
vn -0.0892 -0.9439 0.3180
vn 0.0892 -0.9439 0.3180
vn 0.2642 -0.9185 0.2941
vn 0.4290 -0.8688 0.2473
vn 0.5773 -0.7966 0.1795
vn 0.7034 -0.7047 0.0931
vn 0.8025 -0.5966 -0.0085
vn 0.8707 -0.4766 -0.1214
vn 0.9055 -0.3492 -0.2412
vn 0.9055 -0.2193 -0.3633
vn 0.8707 -0.0919 -0.4832
vn 0.8025 0.0281 -0.5960
vn 0.7034 0.1361 -0.6977
vn 0.5773 0.2280 -0.7841
vn 0.4290 0.3002 -0.8520
vn -0.0000 0.6851 0.7285
vn 0.2642 0.3499 -0.8988
vn 0.0892 0.3752 -0.9226
vt 0.250000 0.490000
vt 0.250000 0.250000
vt 0.296822 0.485388
vt 0.341844 0.471731
vt 0.383337 0.449553
vt 0.419706 0.419706
vt 0.449553 0.383337
vt 0.471731 0.341844
vt 0.485388 0.296822
vt 0.490000 0.250000
vt 0.485388 0.203178
vt 0.471731 0.158156
vt 0.449553 0.116663
vt 0.419706 0.080294
vt 0.383337 0.050447
vt 0.341844 0.028269
vt 0.296822 0.014612
vt 0.250000 0.010000
vt 0.203178 0.014612
vt 0.158156 0.028269
vt 0.116663 0.050447
vt 0.080294 0.080294
vt 0.050447 0.116663
vt 0.028269 0.158156
vt 0.014612 0.203178
vt 0.010000 0.250000
vt 0.014612 0.296822
vt 0.028269 0.341844
vt 0.050447 0.383337
vt 0.080294 0.419706
vt 0.116663 0.449553
vt 0.158156 0.471731
vt 0.796822 0.014612
vt 0.514612 0.203178
vt 0.703178 0.485388
vt 0.203178 0.485388
vt 0.750000 0.490000
vt 0.796822 0.485388
vt 0.841844 0.471731
vt 0.883337 0.449553
vt 0.919706 0.419706
vt 0.949553 0.383337
vt 0.971731 0.341844
vt 0.985388 0.296822
vt 0.990000 0.250000
vt 0.985388 0.203178
vt 0.971731 0.158156
vt 0.949553 0.116663
vt 0.919706 0.080294
vt 0.883337 0.050447
vt 0.841844 0.028269
vt 0.750000 0.010000
vt 0.703178 0.014612
vt 0.658156 0.028269
vt 0.616663 0.050447
vt 0.580294 0.080294
vt 0.550447 0.116663
vt 0.528269 0.158156
vt 0.510000 0.250000
vt 0.514612 0.296822
vt 0.528269 0.341844
vt 0.550447 0.383337
vt 0.580294 0.419706
vt 0.616663 0.449553
vt 0.658156 0.471731
s 0
f 75/145/73 107/146/73 76/147/73
f 76/147/74 107/146/74 77/148/74
f 77/148/75 107/146/75 78/149/75
f 78/149/76 107/146/76 79/150/76
f 79/150/77 107/146/77 80/151/77
f 80/151/78 107/146/78 81/152/78
f 81/152/79 107/146/79 82/153/79
f 82/153/80 107/146/80 83/154/80
f 83/154/81 107/146/81 84/155/81
f 84/155/82 107/146/82 85/156/82
f 85/156/83 107/146/83 86/157/83
f 86/157/84 107/146/84 87/158/84
f 87/158/85 107/146/85 88/159/85
f 88/159/86 107/146/86 89/160/86
f 89/160/87 107/146/87 90/161/87
f 90/161/88 107/146/88 91/162/88
f 91/162/89 107/146/89 92/163/89
f 92/163/90 107/146/90 93/164/90
f 93/164/91 107/146/91 94/165/91
f 94/165/92 107/146/92 95/166/92
f 95/166/93 107/146/93 96/167/93
f 96/167/94 107/146/94 97/168/94
f 97/168/95 107/146/95 98/169/95
f 98/169/96 107/146/96 99/170/96
f 99/170/97 107/146/97 100/171/97
f 100/171/98 107/146/98 101/172/98
f 101/172/99 107/146/99 102/173/99
f 102/173/100 107/146/100 103/174/100
f 103/174/101 107/146/101 104/175/101
f 104/175/102 107/146/102 105/176/102
f 90/177/103 98/178/103 106/179/103
f 105/176/104 107/146/104 106/180/104
f 106/180/105 107/146/105 75/145/105
f 106/179/103 75/181/103 76/182/103
f 76/182/103 77/183/103 78/184/103
f 78/184/103 79/185/103 80/186/103
f 80/186/103 81/187/103 82/188/103
f 82/188/103 83/189/103 84/190/103
f 84/190/103 85/191/103 86/192/103
f 86/192/103 87/193/103 88/194/103
f 88/194/103 89/195/103 90/177/103
f 90/177/103 91/196/103 92/197/103
f 92/197/103 93/198/103 94/199/103
f 94/199/103 95/200/103 96/201/103
f 96/201/103 97/202/103 98/178/103
f 98/178/103 99/203/103 100/204/103
f 100/204/103 101/205/103 102/206/103
f 102/206/103 103/207/103 104/208/103
f 104/208/103 105/209/103 106/179/103
f 106/179/103 76/182/103 78/184/103
f 78/184/103 80/186/103 82/188/103
f 82/188/103 84/190/103 86/192/103
f 86/192/103 88/194/103 90/177/103
f 90/177/103 92/197/103 94/199/103
f 94/199/103 96/201/103 98/178/103
f 98/178/103 100/204/103 102/206/103
f 102/206/103 104/208/103 106/179/103
f 106/179/103 78/184/103 82/188/103
f 82/188/103 86/192/103 90/177/103
f 90/177/103 94/199/103 98/178/103
f 98/178/103 102/206/103 106/179/103
f 106/179/103 82/188/103 90/177/103
o 円錐.003
v -0.033167 -0.385395 -0.110889
v -0.084615 -0.381558 -0.106906
v -0.134086 -0.370196 -0.095111
v -0.179679 -0.351744 -0.075956
v -0.219641 -0.326913 -0.050179
v -0.252438 -0.296656 -0.018769
v -0.276808 -0.262135 0.017067
v -0.291815 -0.224678 0.055950
v -0.296882 -0.185725 0.096388
v -0.291815 -0.146771 0.136826
v -0.276808 -0.109314 0.175709
v -0.252438 -0.074794 0.211545
v -0.219641 -0.044537 0.242955
v -0.179679 -0.019705 0.268732
v -0.134086 -0.001254 0.287887
v -0.084615 0.010109 0.299682
v -0.033167 0.013945 0.303665
v 0.018282 0.010109 0.299682
v 0.067753 -0.001254 0.287887
v 0.113346 -0.019705 0.268732
v 0.153308 -0.044537 0.242955
v 0.186105 -0.074794 0.211545
v 0.210475 -0.109314 0.175709
v 0.225481 -0.146771 0.136826
v 0.230549 -0.185725 0.096388
v 0.225481 -0.224678 0.055950
v 0.210475 -0.262135 0.017067
v 0.186105 -0.296656 -0.018769
v 0.153308 -0.326913 -0.050179
v 0.113346 -0.351744 -0.075956
v 0.067753 -0.370196 -0.095111
v 0.018282 -0.381558 -0.106906
v -0.033167 -0.565841 0.462555
vn -0.0940 -0.9497 -0.2988
vn -0.2767 -0.9213 -0.2731
vn -0.4449 -0.8672 -0.2237
vn -0.5912 -0.7917 -0.1539
vn -0.7108 -0.7001 -0.0677
vn -0.8012 -0.5976 0.0308
vn -0.8615 -0.4886 0.1381
vn -0.8916 -0.3767 0.2511
vn -0.8916 -0.2650 0.3670
vn -0.8615 -0.1563 0.4830
vn -0.8012 -0.0531 0.5960
vn -0.7108 0.0415 0.7022
vn -0.5912 0.1242 0.7969
vn -0.4449 0.1911 0.8749
vn -0.2767 0.2385 0.9309
vn -0.0940 0.2631 0.9602
vn 0.0940 0.2631 0.9602
vn 0.2767 0.2385 0.9309
vn 0.4449 0.1911 0.8749
vn 0.5912 0.1242 0.7969
vn 0.7108 0.0415 0.7022
vn 0.8012 -0.0531 0.5960
vn 0.8615 -0.1563 0.4830
vn 0.8916 -0.2650 0.3670
vn 0.8916 -0.3767 0.2511
vn 0.8615 -0.4886 0.1381
vn 0.8012 -0.5976 0.0308
vn 0.7108 -0.7001 -0.0677
vn 0.5912 -0.7917 -0.1539
vn 0.4449 -0.8672 -0.2237
vn -0.0000 0.7202 -0.6938
vn 0.2767 -0.9213 -0.2731
vn 0.0940 -0.9497 -0.2988
vt 0.250000 0.490000
vt 0.250000 0.250000
vt 0.296822 0.485388
vt 0.341844 0.471731
vt 0.383337 0.449553
vt 0.419706 0.419706
vt 0.449553 0.383337
vt 0.471731 0.341844
vt 0.485388 0.296822
vt 0.490000 0.250000
vt 0.485388 0.203178
vt 0.471731 0.158156
vt 0.449553 0.116663
vt 0.419706 0.080294
vt 0.383337 0.050447
vt 0.341844 0.028269
vt 0.296822 0.014612
vt 0.250000 0.010000
vt 0.203178 0.014612
vt 0.158156 0.028269
vt 0.116663 0.050447
vt 0.080294 0.080294
vt 0.050447 0.116663
vt 0.028269 0.158156
vt 0.014612 0.203178
vt 0.010000 0.250000
vt 0.014612 0.296822
vt 0.028269 0.341844
vt 0.050447 0.383337
vt 0.080294 0.419706
vt 0.116663 0.449553
vt 0.158156 0.471731
vt 0.796822 0.014612
vt 0.514612 0.203178
vt 0.703178 0.485388
vt 0.203178 0.485388
vt 0.750000 0.490000
vt 0.796822 0.485388
vt 0.841844 0.471731
vt 0.883337 0.449553
vt 0.919706 0.419706
vt 0.949553 0.383337
vt 0.971731 0.341844
vt 0.985388 0.296822
vt 0.990000 0.250000
vt 0.985388 0.203178
vt 0.971731 0.158156
vt 0.949553 0.116663
vt 0.919706 0.080294
vt 0.883337 0.050447
vt 0.841844 0.028269
vt 0.750000 0.010000
vt 0.703178 0.014612
vt 0.658156 0.028269
vt 0.616663 0.050447
vt 0.580294 0.080294
vt 0.550447 0.116663
vt 0.528269 0.158156
vt 0.510000 0.250000
vt 0.514612 0.296822
vt 0.528269 0.341844
vt 0.550447 0.383337
vt 0.580294 0.419706
vt 0.616663 0.449553
vt 0.658156 0.471731
s 0
f 108/210/106 140/211/106 109/212/106
f 109/212/107 140/211/107 110/213/107
f 110/213/108 140/211/108 111/214/108
f 111/214/109 140/211/109 112/215/109
f 112/215/110 140/211/110 113/216/110
f 113/216/111 140/211/111 114/217/111
f 114/217/112 140/211/112 115/218/112
f 115/218/113 140/211/113 116/219/113
f 116/219/114 140/211/114 117/220/114
f 117/220/115 140/211/115 118/221/115
f 118/221/116 140/211/116 119/222/116
f 119/222/117 140/211/117 120/223/117
f 120/223/118 140/211/118 121/224/118
f 121/224/119 140/211/119 122/225/119
f 122/225/120 140/211/120 123/226/120
f 123/226/121 140/211/121 124/227/121
f 124/227/122 140/211/122 125/228/122
f 125/228/123 140/211/123 126/229/123
f 126/229/124 140/211/124 127/230/124
f 127/230/125 140/211/125 128/231/125
f 128/231/126 140/211/126 129/232/126
f 129/232/127 140/211/127 130/233/127
f 130/233/128 140/211/128 131/234/128
f 131/234/129 140/211/129 132/235/129
f 132/235/130 140/211/130 133/236/130
f 133/236/131 140/211/131 134/237/131
f 134/237/132 140/211/132 135/238/132
f 135/238/133 140/211/133 136/239/133
f 136/239/134 140/211/134 137/240/134
f 137/240/135 140/211/135 138/241/135
f 123/242/136 131/243/136 139/244/136
f 138/241/137 140/211/137 139/245/137
f 139/245/138 140/211/138 108/210/138
f 139/244/136 108/246/136 109/247/136
f 109/247/136 110/248/136 111/249/136
f 111/249/136 112/250/136 113/251/136
f 113/251/136 114/252/136 115/253/136
f 115/253/136 116/254/136 117/255/136
f 117/255/136 118/256/136 119/257/136
f 119/257/136 120/258/136 121/259/136
f 121/259/136 122/260/136 123/242/136
f 123/242/136 124/261/136 125/262/136
f 125/262/136 126/263/136 127/264/136
f 127/264/136 128/265/136 129/266/136
f 129/266/136 130/267/136 131/243/136
f 131/243/136 132/268/136 133/269/136
f 133/269/136 134/270/136 135/271/136
f 135/271/136 136/272/136 137/273/136
f 137/273/136 138/274/136 139/244/136
f 139/244/136 109/247/136 111/249/136
f 111/249/136 113/251/136 115/253/136
f 115/253/136 117/255/136 119/257/136
f 119/257/136 121/259/136 123/242/136
f 123/242/136 125/262/136 127/264/136
f 127/264/136 129/266/136 131/243/136
f 131/243/136 133/269/136 135/271/136
f 135/271/136 137/273/136 139/244/136
f 139/244/136 111/249/136 115/253/136
f 115/253/136 119/257/136 123/242/136
f 123/242/136 127/264/136 131/243/136
f 131/243/136 135/271/136 139/244/136
f 139/244/136 115/253/136 123/242/136
