# Blender 4.1.1
# www.blender.org
mtllib Title.mtl
o テキスト
v -24.822777 7.678545 -1.136234
v -24.822777 -6.233016 0.000000
v -26.834232 -6.233016 0.000000
v -26.834232 -0.195154 -0.493145
v -27.929165 -0.203228 -0.492486
v -28.179005 -0.232551 -0.490091
v -28.429413 -0.290770 -0.485336
v -28.684528 -0.385537 -0.477596
v -28.948483 -0.524499 -0.466246
v -29.225403 -0.715308 -0.450662
v -29.519428 -0.965611 -0.430218
v -30.175327 -1.675298 -0.372254
v -33.238049 -6.233016 0.000000
v -35.639481 -6.233016 0.000000
v -32.247715 -1.215063 -0.409844
v -31.748081 -0.609916 -0.459270
v -31.209682 -0.079563 -0.502586
v -30.610844 0.375995 -0.539794
v -30.971634 0.536513 -0.552905
v -31.304420 0.721820 -0.568040
v -31.608555 0.931208 -0.585142
v -31.883396 1.163970 -0.604153
v -32.128307 1.419395 -0.625015
v -32.342648 1.696778 -0.647670
v -32.525768 1.995409 -0.672061
v -32.677032 2.314579 -0.698129
v -32.795799 2.653580 -0.725817
v -32.881428 3.011706 -0.755067
v -32.933273 3.388246 -0.785821
v -32.950699 3.782492 -0.818022
v -32.914330 4.364785 -0.865581
v -32.806835 4.906847 -0.909854
v -32.630638 5.406699 -0.950680
v -32.388161 5.862353 -0.987895
v -32.081829 6.271827 -1.021340
v -31.714066 6.633139 -1.050850
v -31.287292 6.944306 -1.076265
v -30.803932 7.203344 -1.097422
v -30.266411 7.408270 -1.114159
v -29.677147 7.557102 -1.126315
v -29.038567 7.647854 -1.133727
v -26.834232 5.965099 -0.996287
v -28.590649 5.948690 -0.994947
v -29.006657 5.900126 -0.990981
v -29.376770 5.820398 -0.984469
v -29.702419 5.710498 -0.975493
v -29.985016 5.571417 -0.964133
v -30.225994 5.404148 -0.950471
v -30.426777 5.209680 -0.934588
v -30.588791 4.989007 -0.916564
v -30.713467 4.743119 -0.896481
v -30.802216 4.473009 -0.874420
v -30.856476 4.179666 -0.850461
v -30.877666 3.864086 -0.824686
v -30.869022 3.575288 -0.801098
v -30.830730 3.292653 -0.778014
v -30.759651 3.019791 -0.755728
v -30.652653 2.760316 -0.734535
v -30.506599 2.517840 -0.714731
v -30.318359 2.295974 -0.696610
v -30.084789 2.098331 -0.680467
v -29.802761 1.928524 -0.666598
v -29.469131 1.790163 -0.655297
v -29.080769 1.686862 -0.646860
v -28.634541 1.622232 -0.641581
v -26.834232 1.599886 -0.639756
v -22.462399 7.678545 -1.136234
v -14.519207 7.678545 -1.136234
v -14.519207 -6.233016 0.000000
v -22.647125 -6.233016 0.000000
v -22.647125 -4.437976 -0.146611
v -16.530663 -4.437976 -0.146611
v -16.530663 -0.113561 -0.499810
v -22.257153 -0.113561 -0.499810
v -22.257153 1.681479 -0.646420
v -16.530663 1.681479 -0.646420
v -16.530663 5.883505 -0.989623
v -22.462399 5.883505 -0.989623
v 0.854055 -6.233016 0.000000
v -5.721930 -6.164326 -0.005610
v -6.759502 -5.965668 -0.021836
v -7.714832 -5.648162 -0.047768
v -8.584427 -5.222929 -0.082499
v -9.364792 -4.701087 -0.125121
v -10.052444 -4.093757 -0.174725
v -10.643879 -3.412059 -0.230403
v -11.135612 -2.667112 -0.291247
v -11.524151 -1.870037 -0.356349
v -11.806004 -1.031953 -0.424800
v -11.977673 -0.163980 -0.495692
v -12.035675 0.722764 -0.568117
v -11.987854 1.549517 -0.635642
v -11.842968 2.378323 -0.703336
v -11.598881 3.195088 -0.770045
v -11.253445 3.985718 -0.834620
v -10.804531 4.736119 -0.895910
v -10.250000 5.432195 -0.952762
v -9.587711 6.059853 -1.004026
v -8.815525 6.604996 -1.048551
v -7.931309 7.053532 -1.085186
v -6.932922 7.391366 -1.112778
v -5.818228 7.604401 -1.130178
v 0.854055 7.678545 -1.136234
v -1.157400 5.883505 -0.989623
v -5.192484 5.835330 -0.985688
v -6.040556 5.695295 -0.974251
v -6.802109 5.470124 -0.955860
v -7.478355 5.166547 -0.931065
v -8.070503 4.791294 -0.900416
v -8.579769 4.351091 -0.864462
v -9.007362 3.852670 -0.823754
v -9.354492 3.302757 -0.778839
v -9.622375 2.708082 -0.730269
v -9.812222 2.075372 -0.678592
v -9.925240 1.411357 -0.624358
v -9.962646 0.722764 -0.568117
v -9.939415 0.261280 -0.530425
v -9.864014 -0.254459 -0.488302
v -9.727894 -0.806462 -0.443217
v -9.522499 -1.376738 -0.396639
v -9.239285 -1.947296 -0.350038
v -8.869690 -2.500148 -0.304884
v -8.405167 -3.017304 -0.262645
v -7.837166 -3.480772 -0.224791
v -7.157131 -3.872564 -0.192791
v -6.356512 -4.174688 -0.168115
v -5.426756 -4.369156 -0.152232
v -1.157400 -4.437976 -0.146611
v 3.193913 7.678545 -1.136234
v 11.137105 7.678545 -1.136234
v 11.137105 -6.233016 0.000000
v 3.009186 -6.233016 0.000000
v 3.009186 -4.437976 -0.146611
v 9.125649 -4.437976 -0.146611
v 9.125649 -0.113561 -0.499810
v 3.399162 -0.113561 -0.499810
v 3.399162 1.681479 -0.646420
v 9.125649 1.681479 -0.646420
v 9.125649 5.883505 -0.989623
v 3.193913 5.883505 -0.989623
v 23.493183 7.678545 -1.136234
v 23.493183 -6.233016 0.000000
v 21.481730 -6.233016 0.000000
v 21.481730 -0.195154 -0.493145
v 20.386799 -0.203228 -0.492486
v 20.136959 -0.232551 -0.490091
v 19.886547 -0.290770 -0.485336
v 19.631433 -0.385537 -0.477596
v 19.367481 -0.524499 -0.466246
v 19.090561 -0.715308 -0.450662
v 18.796534 -0.965611 -0.430218
v 18.140635 -1.675298 -0.372254
v 15.077914 -6.233016 0.000000
v 12.676483 -6.233016 0.000000
v 16.068247 -1.215063 -0.409844
v 16.567879 -0.609916 -0.459270
v 17.106281 -0.079563 -0.502586
v 17.705120 0.375995 -0.539794
v 17.344328 0.536513 -0.552905
v 17.011543 0.721820 -0.568040
v 16.707409 0.931208 -0.585142
v 16.432568 1.163970 -0.604153
v 16.187656 1.419395 -0.625015
v 15.973319 1.696778 -0.647670
v 15.790197 1.995409 -0.672061
v 15.638932 2.314579 -0.698129
v 15.520164 2.653580 -0.725817
v 15.434537 3.011706 -0.755067
v 15.382689 3.388246 -0.785821
v 15.365265 3.782492 -0.818022
v 15.401634 4.364785 -0.865581
v 15.509130 4.906847 -0.909854
v 15.685328 5.406699 -0.950680
v 15.927803 5.862353 -0.987895
v 16.234135 6.271827 -1.021340
v 16.601898 6.633139 -1.050850
v 17.028673 6.944306 -1.076265
v 17.512033 7.203344 -1.097422
v 18.049557 7.408270 -1.114159
v 18.638821 7.557102 -1.126315
v 19.277401 7.647854 -1.133727
v 21.481730 5.965099 -0.996287
v 19.725317 5.948690 -0.994947
v 19.309305 5.900126 -0.990981
v 18.939188 5.820398 -0.984469
v 18.613544 5.710498 -0.975493
v 18.330944 5.571417 -0.964133
v 18.089964 5.404148 -0.950471
v 17.889179 5.209680 -0.934588
v 17.727165 4.989007 -0.916564
v 17.602495 4.743119 -0.896481
v 17.513742 4.473009 -0.874420
v 17.459484 4.179666 -0.850461
v 17.438293 3.864086 -0.824686
v 17.446941 3.575288 -0.801098
v 17.485235 3.292653 -0.778014
v 17.556313 3.019791 -0.755728
v 17.663309 2.760316 -0.734535
v 17.809361 2.517840 -0.714731
v 17.997602 2.295974 -0.696610
v 18.231171 2.098331 -0.680467
v 18.513199 1.928524 -0.666598
v 18.846827 1.790163 -0.655297
v 19.235188 1.686862 -0.646860
v 19.681416 1.622232 -0.641581
v 21.481730 1.599886 -0.639756
vn -0.0000 -0.0814 -0.9967
vt 0.516129 0.000000
vt 0.838710 0.000000
vt 0.849462 0.000000
vt 0.545455 0.000000
vt 0.818182 0.000000
vt 0.090909 0.000000
vt 0.962264 0.000000
vt 1.000000 0.000000
vt 0.000000 0.000000
vt 0.283019 0.000000
vt 0.735849 0.000000
vt 0.245283 0.000000
vt 0.537634 0.000000
vt 0.946237 0.000000
vt 0.956989 0.000000
vt 0.075269 0.000000
vt 0.086022 0.000000
vt 0.795699 0.000000
vt 0.806452 0.000000
vt 0.623656 0.000000
vt 0.526882 0.000000
vt 0.548387 0.000000
vt 0.559140 0.000000
vt 0.569892 0.000000
vt 0.580645 0.000000
vt 0.591398 0.000000
vt 0.602151 0.000000
vt 0.612903 0.000000
vt 0.634409 0.000000
vt 0.645161 0.000000
vt 0.655914 0.000000
vt 0.666667 0.000000
vt 0.677419 0.000000
vt 0.688172 0.000000
vt 0.720430 0.000000
vt 0.741935 0.000000
vt 0.752688 0.000000
vt 0.935484 0.000000
vt 0.924731 0.000000
vt 0.763441 0.000000
vt 0.774194 0.000000
vt 0.913979 0.000000
vt 0.903226 0.000000
vt 0.784946 0.000000
vt 0.892473 0.000000
vt 0.881720 0.000000
vt 0.817204 0.000000
vt 0.870968 0.000000
vt 0.860215 0.000000
vt 0.827957 0.000000
vt 0.181818 0.000000
vt 0.272727 0.000000
vt 0.363636 0.000000
vt 0.454545 0.000000
vt 0.909091 0.000000
vt 0.636364 0.000000
vt 0.727273 0.000000
vt 0.150943 0.000000
vt 0.169811 0.000000
vt 0.188679 0.000000
vt 0.207547 0.000000
vt 0.226415 0.000000
vt 0.754717 0.000000
vt 0.113208 0.000000
vt 0.132075 0.000000
vt 0.075472 0.000000
vt 0.094340 0.000000
vt 0.037736 0.000000
vt 0.056604 0.000000
vt 0.433962 0.000000
vt 0.452830 0.000000
vt 0.490566 0.000000
vt 0.396226 0.000000
vt 0.415094 0.000000
vt 0.358491 0.000000
vt 0.377358 0.000000
vt 0.320755 0.000000
vt 0.339623 0.000000
vt 0.301887 0.000000
vt 0.698113 0.000000
vt 0.716981 0.000000
vt 0.679245 0.000000
vt 0.773585 0.000000
vt 0.660377 0.000000
vt 0.792453 0.000000
vt 0.811321 0.000000
vt 0.641509 0.000000
vt 0.622642 0.000000
vt 0.830189 0.000000
vt 0.849057 0.000000
vt 0.603774 0.000000
vt 0.584906 0.000000
vt 0.867925 0.000000
vt 0.886792 0.000000
vt 0.566038 0.000000
vt 0.547170 0.000000
vt 0.905660 0.000000
vt 0.924528 0.000000
vt 0.509434 0.000000
vt 0.943396 0.000000
vt 0.264151 0.000000
vt 0.193548 0.000000
vt 0.387097 0.000000
vt 0.408602 0.000000
vt 0.430108 0.000000
vt 0.451613 0.000000
vt 0.462366 0.000000
vt 0.473118 0.000000
vt 0.483871 0.000000
vt 0.494624 0.000000
vt 0.505376 0.000000
vt 0.967742 0.000000
vt 0.978495 0.000000
vt 0.182796 0.000000
vt 0.139785 0.000000
vt 0.698925 0.000000
vt 0.010753 0.000000
vt 0.021505 0.000000
vt 0.032258 0.000000
vt 0.118280 0.000000
vt 0.107527 0.000000
vt 0.096774 0.000000
vt 0.053763 0.000000
vt 0.064516 0.000000
s 0
f 24/1/1 52/2/1 53/3/1
f 73/4/1 76/5/1 68/6/1
f 127/7/1 128/8/1 79/9/1
f 93/10/1 115/11/1 91/12/1
f 166/13/1 202/14/1 203/15/1
f 130/6/1 135/4/1 138/5/1
f 66/8/1 7/16/1 8/17/1
f 188/18/1 189/19/1 174/20/1
f 62/14/1 63/15/1 24/1/1
f 24/1/1 25/21/1 26/13/1
f 26/13/1 27/22/1 28/23/1
f 28/23/1 29/24/1 30/25/1
f 30/25/1 31/26/1 32/27/1
f 32/27/1 33/28/1 34/20/1
f 34/20/1 35/29/1 36/30/1
f 36/30/1 37/31/1 38/32/1
f 38/32/1 39/33/1 40/34/1
f 40/34/1 42/35/1 43/36/1
f 40/34/1 43/36/1 44/37/1
f 36/30/1 38/32/1 40/34/1
f 32/27/1 34/20/1 36/30/1
f 28/23/1 30/25/1 32/27/1
f 24/1/1 26/13/1 28/23/1
f 61/38/1 62/14/1 24/1/1
f 60/39/1 61/38/1 24/1/1
f 24/1/1 28/23/1 32/27/1
f 32/27/1 36/30/1 40/34/1
f 40/34/1 44/37/1 45/40/1
f 40/34/1 45/40/1 46/41/1
f 24/1/1 32/27/1 40/34/1
f 59/42/1 60/39/1 24/1/1
f 58/43/1 59/42/1 24/1/1
f 40/34/1 46/41/1 47/44/1
f 40/34/1 47/44/1 48/18/1
f 57/45/1 58/43/1 24/1/1
f 56/46/1 57/45/1 24/1/1
f 40/34/1 48/18/1 49/19/1
f 40/34/1 49/19/1 50/47/1
f 55/48/1 56/46/1 24/1/1
f 54/49/1 55/48/1 24/1/1
f 24/1/1 40/34/1 50/47/1
f 24/1/1 50/47/1 51/50/1
f 53/3/1 54/49/1 24/1/1
f 24/1/1 51/50/1 52/2/1
f 69/51/1 70/52/1 71/53/1
f 69/51/1 71/53/1 72/54/1
f 78/8/1 67/9/1 68/6/1
f 77/55/1 78/8/1 68/6/1
f 68/6/1 69/51/1 72/54/1
f 73/4/1 74/56/1 75/57/1
f 68/6/1 72/54/1 73/4/1
f 76/5/1 77/55/1 68/6/1
f 73/4/1 75/57/1 76/5/1
f 86/58/1 87/59/1 88/60/1
f 88/60/1 89/61/1 90/62/1
f 90/62/1 91/12/1 115/11/1
f 90/62/1 115/11/1 116/63/1
f 86/58/1 88/60/1 90/62/1
f 84/64/1 85/65/1 86/58/1
f 82/66/1 83/67/1 84/64/1
f 80/68/1 81/69/1 82/66/1
f 101/70/1 102/71/1 103/72/1
f 99/73/1 100/74/1 101/70/1
f 97/75/1 98/76/1 99/73/1
f 95/77/1 96/78/1 97/75/1
f 93/10/1 94/79/1 95/77/1
f 113/80/1 114/81/1 93/10/1
f 112/82/1 113/80/1 93/10/1
f 93/10/1 95/77/1 97/75/1
f 97/75/1 99/73/1 101/70/1
f 79/9/1 80/68/1 82/66/1
f 82/66/1 84/64/1 86/58/1
f 86/58/1 90/62/1 116/63/1
f 86/58/1 116/63/1 117/83/1
f 79/9/1 82/66/1 86/58/1
f 97/75/1 101/70/1 103/72/1
f 112/82/1 93/10/1 97/75/1
f 111/84/1 112/82/1 97/75/1
f 86/58/1 117/83/1 118/85/1
f 86/58/1 118/85/1 119/86/1
f 110/87/1 111/84/1 97/75/1
f 109/88/1 110/87/1 97/75/1
f 86/58/1 119/86/1 120/89/1
f 86/58/1 120/89/1 121/90/1
f 108/91/1 109/88/1 97/75/1
f 107/92/1 108/91/1 97/75/1
f 86/58/1 121/90/1 122/93/1
f 86/58/1 122/93/1 123/94/1
f 106/95/1 107/92/1 97/75/1
f 105/96/1 106/95/1 97/75/1
f 86/58/1 123/94/1 124/97/1
f 86/58/1 124/97/1 125/98/1
f 105/96/1 97/75/1 103/72/1
f 104/99/1 105/96/1 103/72/1
f 86/58/1 125/98/1 126/100/1
f 86/58/1 126/100/1 127/7/1
f 104/99/1 103/72/1 79/9/1
f 128/8/1 104/99/1 79/9/1
f 79/9/1 86/58/1 127/7/1
f 91/12/1 92/101/1 93/10/1
f 93/10/1 114/81/1 115/11/1
f 164/1/1 165/21/1 166/13/1
f 166/13/1 199/42/1 200/39/1
f 166/13/1 200/39/1 201/38/1
f 203/15/1 164/1/1 166/13/1
f 166/13/1 201/38/1 202/14/1
f 140/8/1 129/9/1 130/6/1
f 131/51/1 132/52/1 133/53/1
f 131/51/1 133/53/1 134/54/1
f 139/55/1 140/8/1 130/6/1
f 136/56/1 137/57/1 138/5/1
f 138/5/1 139/55/1 130/6/1
f 130/6/1 131/51/1 134/54/1
f 135/4/1 136/56/1 138/5/1
f 130/6/1 134/54/1 135/4/1
f 14/102/1 15/103/1 16/104/1
f 16/104/1 17/105/1 18/106/1
f 18/106/1 19/107/1 20/108/1
f 20/108/1 21/109/1 22/110/1
f 22/110/1 23/111/1 24/1/1
f 24/1/1 63/15/1 64/112/1
f 24/1/1 64/112/1 65/113/1
f 20/108/1 22/110/1 24/1/1
f 14/102/1 16/104/1 18/106/1
f 18/106/1 20/108/1 24/1/1
f 18/106/1 24/1/1 65/113/1
f 13/114/1 14/102/1 18/106/1
f 12/115/1 13/114/1 18/106/1
f 18/106/1 65/113/1 66/8/1
f 42/35/1 40/34/1 41/116/1
f 42/35/1 41/116/1 1/9/1
f 1/9/1 2/117/1 3/118/1
f 1/9/1 3/118/1 4/119/1
f 66/8/1 42/35/1 1/9/1
f 11/120/1 12/115/1 18/106/1
f 10/121/1 11/120/1 18/106/1
f 66/8/1 1/9/1 4/119/1
f 10/121/1 18/106/1 66/8/1
f 9/122/1 10/121/1 66/8/1
f 66/8/1 4/119/1 5/123/1
f 66/8/1 5/123/1 6/124/1
f 8/17/1 9/122/1 66/8/1
f 66/8/1 6/124/1 7/16/1
f 154/102/1 155/103/1 156/104/1
f 156/104/1 157/105/1 158/106/1
f 158/106/1 159/107/1 160/108/1
f 160/108/1 161/109/1 162/110/1
f 162/110/1 163/111/1 164/1/1
f 164/1/1 203/15/1 204/112/1
f 164/1/1 204/112/1 205/113/1
f 160/108/1 162/110/1 164/1/1
f 154/102/1 156/104/1 158/106/1
f 158/106/1 160/108/1 164/1/1
f 158/106/1 164/1/1 205/113/1
f 153/114/1 154/102/1 158/106/1
f 152/115/1 153/114/1 158/106/1
f 158/106/1 205/113/1 206/8/1
f 151/120/1 152/115/1 158/106/1
f 150/121/1 151/120/1 158/106/1
f 150/121/1 158/106/1 206/8/1
f 149/122/1 150/121/1 206/8/1
f 148/17/1 149/122/1 206/8/1
f 147/16/1 148/17/1 206/8/1
f 146/124/1 147/16/1 206/8/1
f 145/123/1 146/124/1 206/8/1
f 144/119/1 145/123/1 206/8/1
f 142/117/1 143/118/1 144/119/1
f 180/34/1 181/116/1 141/9/1
f 178/32/1 179/33/1 180/34/1
f 176/30/1 177/31/1 178/32/1
f 174/20/1 175/29/1 176/30/1
f 172/27/1 173/28/1 174/20/1
f 170/25/1 171/26/1 172/27/1
f 168/23/1 169/24/1 170/25/1
f 166/13/1 167/22/1 168/23/1
f 198/43/1 199/42/1 166/13/1
f 197/45/1 198/43/1 166/13/1
f 166/13/1 168/23/1 170/25/1
f 170/25/1 172/27/1 174/20/1
f 174/20/1 176/30/1 178/32/1
f 178/32/1 180/34/1 141/9/1
f 141/9/1 142/117/1 144/119/1
f 141/9/1 144/119/1 206/8/1
f 174/20/1 178/32/1 141/9/1
f 166/13/1 170/25/1 174/20/1
f 196/46/1 197/45/1 166/13/1
f 195/48/1 196/46/1 166/13/1
f 141/9/1 206/8/1 182/35/1
f 141/9/1 182/35/1 183/36/1
f 195/48/1 166/13/1 174/20/1
f 194/49/1 195/48/1 174/20/1
f 174/20/1 141/9/1 183/36/1
f 174/20/1 183/36/1 184/37/1
f 193/3/1 194/49/1 174/20/1
f 192/2/1 193/3/1 174/20/1
f 174/20/1 184/37/1 185/40/1
f 174/20/1 185/40/1 186/41/1
f 191/50/1 192/2/1 174/20/1
f 190/47/1 191/50/1 174/20/1
f 174/20/1 186/41/1 187/44/1
f 174/20/1 187/44/1 188/18/1
f 189/19/1 190/47/1 174/20/1
