# Blender 4.1.1
# www.blender.org
mtllib scope.mtl
o 円柱
v 0.186716 1.055915 0.050989
v 0.186716 1.057600 -0.037660
v 0.118294 1.049178 0.050861
v 0.118294 1.050863 -0.037788
v 0.052501 1.029226 0.050482
v 0.052501 1.030911 -0.038167
v -0.008134 0.996825 0.049866
v -0.008134 0.998510 -0.038783
v -0.061281 0.953220 0.049037
v -0.061281 0.954905 -0.039612
v -0.104898 0.900088 0.048027
v -0.104898 0.901773 -0.040622
v -0.137308 0.839469 0.046875
v -0.137308 0.841154 -0.041774
v -0.157266 0.773695 0.045624
v -0.157266 0.775380 -0.043024
v -0.164005 0.705291 0.044324
v -0.164005 0.706976 -0.044324
v -0.157266 0.636888 0.043024
v -0.157266 0.638573 -0.045625
v -0.137308 0.571113 0.041774
v -0.137308 0.572798 -0.046875
v -0.104898 0.510495 0.040622
v -0.104898 0.512180 -0.048027
v -0.061281 0.457363 0.039612
v -0.061281 0.459048 -0.049037
v -0.008134 0.413758 0.038783
v -0.008134 0.415443 -0.049866
v 0.052501 0.381357 0.038167
v 0.052501 0.383042 -0.050482
v 0.118294 0.361404 0.037788
v 0.118294 0.363089 -0.050861
v 0.186716 0.354667 0.037660
v 0.186716 0.356352 -0.050989
v 0.255139 0.361404 0.037788
v 0.255139 0.363089 -0.050861
v 0.320932 0.381357 0.038167
v 0.320932 0.383042 -0.050482
v 0.381567 0.413758 0.038783
v 0.381567 0.415443 -0.049866
v 0.434714 0.457363 0.039612
v 0.434714 0.459048 -0.049037
v 0.478331 0.510495 0.040622
v 0.478331 0.512180 -0.048027
v 0.510741 0.571113 0.041774
v 0.510741 0.572798 -0.046875
v 0.530699 0.636888 0.043024
v 0.530699 0.638573 -0.045625
v 0.537438 0.705291 0.044324
v 0.537438 0.706976 -0.044324
v 0.530699 0.773695 0.045624
v 0.530699 0.775380 -0.043024
v 0.510741 0.839469 0.046875
v 0.510741 0.841154 -0.041774
v 0.478331 0.900088 0.048027
v 0.478331 0.901773 -0.040622
v 0.434714 0.953220 0.049037
v 0.434714 0.954905 -0.039612
v 0.381567 0.996825 0.049866
v 0.381567 0.998510 -0.038783
v 0.320932 1.029226 0.050482
v 0.320932 1.030911 -0.038167
v 0.255139 1.049178 0.050861
v 0.255139 1.050863 -0.037788
v -0.337601 0.706134 -0.000000
v -0.323552 0.705188 -0.037640
v -0.285169 0.704495 -0.065194
v -0.232738 0.704242 -0.075280
v -0.180306 0.704495 -0.065194
v -0.141923 0.705188 -0.037640
v -0.127874 0.706134 -0.000000
v -0.141923 0.707080 0.037640
v -0.180306 0.707772 0.065194
v -0.232738 0.708026 0.075280
v -0.285169 0.707772 0.065194
v -0.323552 0.707080 0.037640
v -0.333116 0.774539 -0.001719
v -0.319187 0.771760 -0.039313
v -0.281132 0.766060 -0.066742
v -0.229149 0.758966 -0.076655
v -0.177166 0.752379 -0.066398
v -0.139112 0.748064 -0.038717
v -0.125183 0.747177 -0.001031
v -0.139112 0.749956 0.036563
v -0.177166 0.755656 0.063991
v -0.229149 0.762750 0.073905
v -0.281132 0.769337 0.063647
v -0.319187 0.773652 0.035967
v -0.319735 0.841774 -0.003409
v -0.306165 0.837193 -0.040957
v -0.269090 0.826571 -0.068262
v -0.218445 0.812754 -0.078007
v -0.167800 0.799443 -0.067580
v -0.130725 0.790206 -0.039777
v -0.117155 0.787518 -0.002045
v -0.130725 0.792098 0.035504
v -0.167800 0.802720 0.062808
v -0.218445 0.816537 0.072553
v -0.269090 0.829848 0.062127
v -0.306165 0.839085 0.034323
v -0.297690 0.906687 -0.005040
v -0.284710 0.900368 -0.042545
v -0.249249 0.884994 -0.069730
v -0.200809 0.864685 -0.079312
v -0.152368 0.844883 -0.068722
v -0.116907 0.830894 -0.040799
v -0.103927 0.826466 -0.003024
v -0.116907 0.832786 0.034481
v -0.152368 0.848160 0.061666
v -0.200809 0.868468 0.071248
v -0.249249 0.888270 0.060658
v -0.284710 0.902260 0.032735
v -0.267356 0.968170 -0.006585
v -0.255189 0.960203 -0.044048
v -0.221949 0.940328 -0.071121
v -0.176541 0.913871 -0.080548
v -0.131134 0.887921 -0.069804
v -0.097894 0.869431 -0.041767
v -0.085727 0.863355 -0.003951
v -0.097894 0.871323 0.033513
v -0.131134 0.891197 0.060585
v -0.176541 0.917654 0.070012
v -0.221949 0.943605 0.059268
v -0.255189 0.962094 0.031232
v -0.229253 1.025169 -0.008017
v -0.218107 1.015674 -0.045442
v -0.187656 0.991627 -0.072410
v -0.146059 0.959470 -0.081694
v -0.104462 0.927820 -0.070807
v -0.074011 0.905157 -0.042665
v -0.062865 0.897555 -0.004810
v -0.074011 0.907049 0.032615
v -0.104462 0.931096 0.059582
v -0.146059 0.963253 0.068866
v -0.187656 0.994903 0.057979
v -0.218107 1.017566 0.029838
v -0.184032 1.076709 -0.009312
v -0.174098 1.065833 -0.046703
v -0.146957 1.038013 -0.073576
v -0.109882 1.000702 -0.082730
v -0.072808 0.963898 -0.071713
v -0.045667 0.937462 -0.043477
v -0.035733 0.928479 -0.005588
v -0.045667 0.939354 0.031803
v -0.072808 0.967174 0.058676
v -0.109882 1.004485 0.067830
v -0.146957 1.041290 0.056813
v -0.174098 1.067725 0.028577
v -0.132468 1.121908 -0.010448
v -0.123916 1.109821 -0.047808
v -0.100550 1.078692 -0.074598
v -0.068631 1.036861 -0.083639
v -0.036713 0.995537 -0.072508
v -0.013347 0.965793 -0.044189
v -0.004794 0.955598 -0.006269
v -0.013347 0.967685 0.031091
v -0.036713 0.998814 0.057881
v -0.068631 1.040645 0.066921
v -0.100550 1.081969 0.055791
v -0.123916 1.111713 0.027472
v -0.075442 1.159993 -0.011405
v -0.068418 1.146886 -0.048740
v -0.049227 1.112969 -0.075459
v -0.023011 1.067330 -0.084404
v 0.003205 1.022197 -0.073178
v 0.022396 0.989665 -0.044789
v 0.029421 0.978450 -0.006843
v 0.022396 0.991557 0.030491
v 0.003205 1.025474 0.057211
v -0.023011 1.071113 0.066156
v -0.049227 1.116246 0.054930
v -0.068418 1.148778 0.026540
v -0.013931 1.190313 -0.012167
v -0.008555 1.176394 -0.049481
v 0.006133 1.140257 -0.076145
v 0.026198 1.091585 -0.085014
v 0.046263 1.043421 -0.073712
v 0.060951 1.008669 -0.045266
v 0.066328 0.996641 -0.007300
v 0.060951 1.010561 0.030014
v 0.046263 1.046698 0.056677
v 0.026198 1.095369 0.065546
v 0.006133 1.143533 0.054244
v -0.008555 1.178285 0.025799
v 0.051013 1.212348 -0.012721
v 0.054649 1.197839 -0.050020
v 0.064583 1.160089 -0.076643
v 0.078154 1.109214 -0.085457
v 0.091724 1.058846 -0.074099
v 0.101658 1.022480 -0.045614
v 0.105294 1.009863 -0.007633
v 0.101658 1.024372 0.029666
v 0.091724 1.062122 0.056290
v 0.078154 1.112997 0.065103
v 0.064583 1.163365 0.053745
v 0.054649 1.199730 0.025260
v 0.118279 1.225722 -0.013057
v 0.120113 1.210854 -0.050347
v 0.125123 1.172125 -0.076946
v 0.131967 1.119913 -0.085726
v 0.138810 1.068208 -0.074334
v 0.143820 1.030863 -0.045824
v 0.145654 1.017887 -0.007834
v 0.143820 1.032755 0.029456
v 0.138810 1.071484 0.056054
v 0.131967 1.123696 0.064834
v 0.125123 1.175402 0.053443
v 0.120113 1.212746 0.024933
v 0.186716 1.230206 -0.013170
v 0.186716 1.215217 -0.050457
v 0.186716 1.176160 -0.077047
v 0.186716 1.123500 -0.085816
v 0.186716 1.071346 -0.074413
v 0.186716 1.033674 -0.045895
v 0.186716 1.020577 -0.007902
v 0.186716 1.035565 0.029385
v 0.186716 1.074622 0.055975
v 0.186716 1.127283 0.064744
v 0.186716 1.179437 0.053342
v 0.186716 1.217109 0.024823
v 0.255153 1.225722 -0.013057
v 0.253320 1.210854 -0.050347
v 0.248310 1.172125 -0.076946
v 0.241466 1.119913 -0.085726
v 0.234622 1.068208 -0.074334
v 0.229612 1.030863 -0.045824
v 0.227779 1.017887 -0.007834
v 0.229612 1.032755 0.029456
v 0.234622 1.071484 0.056054
v 0.241466 1.123696 0.064834
v 0.248310 1.175402 0.053443
v 0.253320 1.212746 0.024933
v 0.322419 1.212348 -0.012721
v 0.318783 1.197839 -0.050020
v 0.308849 1.160089 -0.076643
v 0.295279 1.109214 -0.085457
v 0.281709 1.058846 -0.074099
v 0.271774 1.022481 -0.045614
v 0.268138 1.009863 -0.007633
v 0.271774 1.024372 0.029666
v 0.281709 1.062122 0.056290
v 0.295279 1.112997 0.065103
v 0.308849 1.163365 0.053745
v 0.318783 1.199730 0.025260
v 0.387364 1.190313 -0.012167
v 0.381988 1.176394 -0.049481
v 0.367299 1.140257 -0.076145
v 0.347234 1.091585 -0.085014
v 0.327170 1.043421 -0.073712
v 0.312481 1.008669 -0.045266
v 0.307105 0.996641 -0.007300
v 0.312481 1.010561 0.030014
v 0.327170 1.046698 0.056677
v 0.347234 1.095369 0.065546
v 0.367299 1.143533 0.054244
v 0.381988 1.178286 0.025799
v 0.448875 1.159993 -0.011405
v 0.441850 1.146886 -0.048740
v 0.422659 1.112969 -0.075459
v 0.396443 1.067330 -0.084404
v 0.370227 1.022197 -0.073178
v 0.351036 0.989665 -0.044789
v 0.344011 0.978450 -0.006843
v 0.351036 0.991557 0.030491
v 0.370227 1.025474 0.057211
v 0.396443 1.071113 0.066156
v 0.422659 1.116246 0.054930
v 0.441850 1.148778 0.026540
v 0.505900 1.121908 -0.010448
v 0.497348 1.109821 -0.047808
v 0.473982 1.078692 -0.074598
v 0.442064 1.036861 -0.083639
v 0.410145 0.995537 -0.072508
v 0.386779 0.965793 -0.044189
v 0.378227 0.955598 -0.006269
v 0.386779 0.967685 0.031091
v 0.410145 0.998814 0.057881
v 0.442064 1.040645 0.066921
v 0.473982 1.081969 0.055791
v 0.497348 1.111713 0.027472
v 0.557465 1.076709 -0.009312
v 0.547531 1.065833 -0.046703
v 0.520390 1.038013 -0.073576
v 0.483315 1.000702 -0.082730
v 0.446240 0.963898 -0.071713
v 0.419100 0.937462 -0.043477
v 0.409165 0.928479 -0.005587
v 0.419100 0.939354 0.031803
v 0.446240 0.967174 0.058676
v 0.483315 1.004485 0.067830
v 0.520390 1.041289 0.056813
v 0.547531 1.067725 0.028577
v 0.602685 1.025169 -0.008017
v 0.591539 1.015674 -0.045442
v 0.561088 0.991627 -0.072410
v 0.519491 0.959470 -0.081694
v 0.477895 0.927820 -0.070807
v 0.447443 0.905157 -0.042665
v 0.436298 0.897555 -0.004810
v 0.447443 0.907049 0.032615
v 0.477895 0.931096 0.059582
v 0.519491 0.963253 0.068866
v 0.561088 0.994903 0.057979
v 0.591539 1.017566 0.029838
v 0.640788 0.968170 -0.006585
v 0.628622 0.960203 -0.044048
v 0.595381 0.940328 -0.071121
v 0.549974 0.913871 -0.080548
v 0.504567 0.887921 -0.069804
v 0.471326 0.869431 -0.041767
v 0.459160 0.863356 -0.003951
v 0.471326 0.871323 0.033513
v 0.504567 0.891197 0.060585
v 0.549974 0.917654 0.070012
v 0.595381 0.943605 0.059268
v 0.628622 0.962095 0.031232
v 0.671122 0.906687 -0.005040
v 0.658143 0.900368 -0.042545
v 0.622682 0.884994 -0.069730
v 0.574241 0.864685 -0.079312
v 0.525801 0.844883 -0.068722
v 0.490340 0.830894 -0.040799
v 0.477360 0.826466 -0.003024
v 0.490340 0.832786 0.034481
v 0.525801 0.848160 0.061666
v 0.574241 0.868468 0.071248
v 0.622682 0.888270 0.060659
v 0.658143 0.902260 0.032735
v 0.693168 0.841774 -0.003409
v 0.679598 0.837193 -0.040957
v 0.642523 0.826571 -0.068262
v 0.591878 0.812754 -0.078007
v 0.541232 0.799443 -0.067580
v 0.504158 0.790206 -0.039777
v 0.490587 0.787518 -0.002045
v 0.504158 0.792098 0.035504
v 0.541232 0.802720 0.062808
v 0.591878 0.816537 0.072553
v 0.642523 0.829848 0.062127
v 0.679598 0.839085 0.034323
v 0.706548 0.774539 -0.001719
v 0.692619 0.771760 -0.039313
v 0.654565 0.766060 -0.066742
v 0.602582 0.758966 -0.076655
v 0.550599 0.752379 -0.066398
v 0.512544 0.748064 -0.038717
v 0.498615 0.747177 -0.001031
v 0.512544 0.749956 0.036563
v 0.550599 0.755656 0.063991
v 0.602582 0.762750 0.073905
v 0.654565 0.769337 0.063647
v 0.692619 0.773652 0.035967
v 0.711034 0.706134 -0.000000
v 0.696985 0.705188 -0.037640
v 0.658602 0.704496 -0.065194
v 0.606170 0.704242 -0.075280
v 0.553738 0.704496 -0.065194
v 0.515356 0.705188 -0.037640
v 0.501307 0.706134 -0.000000
v 0.515356 0.707080 0.037640
v 0.553738 0.707772 0.065194
v 0.606170 0.708026 0.075280
v 0.658602 0.707772 0.065194
v 0.696985 0.707080 0.037640
v 0.706548 0.637729 0.001719
v 0.692619 0.638616 -0.035967
v 0.654565 0.642931 -0.063647
v 0.602582 0.649518 -0.073905
v 0.550599 0.656612 -0.063991
v 0.512544 0.662312 -0.036563
v 0.498615 0.665091 0.001031
v 0.512544 0.664204 0.038717
v 0.550599 0.659889 0.066398
v 0.602582 0.653301 0.076655
v 0.654565 0.646208 0.066742
v 0.692619 0.640508 0.039313
v 0.693168 0.570494 0.003409
v 0.679598 0.573183 -0.034323
v 0.642523 0.582420 -0.062127
v 0.591878 0.595730 -0.072553
v 0.541232 0.609548 -0.062808
v 0.504158 0.620170 -0.035504
v 0.490587 0.624750 0.002045
v 0.504158 0.622061 0.039777
v 0.541232 0.612824 0.067580
v 0.591878 0.599514 0.078007
v 0.642523 0.585696 0.068262
v 0.679598 0.575074 0.040957
v 0.671122 0.505580 0.005040
v 0.658143 0.510008 -0.032735
v 0.622682 0.523997 -0.060659
v 0.574241 0.543799 -0.071248
v 0.525801 0.564108 -0.061666
v 0.490340 0.579482 -0.034481
v 0.477360 0.585802 0.003024
v 0.490340 0.581374 0.040799
v 0.525801 0.567385 0.068722
v 0.574241 0.547583 0.079312
v 0.622682 0.527274 0.069730
v 0.658143 0.511900 0.042545
v 0.640788 0.444098 0.006585
v 0.628622 0.450173 -0.031232
v 0.595381 0.468663 -0.059268
v 0.549974 0.494613 -0.070012
v 0.504567 0.521070 -0.060585
v 0.471326 0.540945 -0.033513
v 0.459160 0.548912 0.003951
v 0.471326 0.542837 0.041767
v 0.504567 0.524347 0.069804
v 0.549974 0.498397 0.080548
v 0.595381 0.471940 0.071121
v 0.628622 0.452065 0.044048
v 0.602685 0.387099 0.008017
v 0.591539 0.394702 -0.029838
v 0.561088 0.417364 -0.057979
v 0.519491 0.449014 -0.068866
v 0.477895 0.481171 -0.059582
v 0.447443 0.505219 -0.032615
v 0.436298 0.514713 0.004810
v 0.447443 0.507110 0.042665
v 0.477895 0.484448 0.070807
v 0.519491 0.452798 0.081694
v 0.561088 0.420641 0.072410
v 0.591539 0.396594 0.045442
v 0.557465 0.335559 0.009312
v 0.547531 0.344543 -0.028577
v 0.520390 0.370978 -0.056813
v 0.483315 0.407782 -0.067830
v 0.446240 0.445093 -0.058676
v 0.419100 0.472914 -0.031803
v 0.409165 0.483789 0.005587
v 0.419100 0.474805 0.043477
v 0.446240 0.448370 0.071713
v 0.483315 0.411566 0.082730
v 0.520390 0.374255 0.073576
v 0.547531 0.346435 0.046703
v 0.505901 0.290360 0.010448
v 0.497348 0.300555 -0.027472
v 0.473982 0.330299 -0.055791
v 0.442064 0.371623 -0.066921
v 0.410145 0.413454 -0.057881
v 0.386779 0.444583 -0.031091
v 0.378227 0.456669 0.006269
v 0.386779 0.446475 0.044189
v 0.410145 0.416730 0.072508
v 0.442064 0.375406 0.083639
v 0.473982 0.333576 0.074598
v 0.497348 0.302446 0.047808
v 0.448875 0.252274 0.011405
v 0.441850 0.263489 -0.026540
v 0.422659 0.296022 -0.054930
v 0.396443 0.341154 -0.066156
v 0.370227 0.386794 -0.057211
v 0.351036 0.420711 -0.030491
v 0.344011 0.433818 0.006843
v 0.351036 0.422603 0.044789
v 0.370227 0.390070 0.073178
v 0.396443 0.344938 0.084404
v 0.422659 0.299299 0.075459
v 0.441850 0.265381 0.048740
v 0.387364 0.221955 0.012167
v 0.381988 0.233982 -0.025799
v 0.367299 0.268734 -0.054244
v 0.347234 0.316899 -0.065546
v 0.327170 0.365570 -0.056677
v 0.312481 0.401707 -0.030014
v 0.307105 0.415626 0.007300
v 0.312481 0.403599 0.045266
v 0.327170 0.368847 0.073712
v 0.347234 0.320682 0.085014
v 0.367299 0.272011 0.076145
v 0.381988 0.235874 0.049481
v 0.322420 0.199919 0.012721
v 0.318784 0.212537 -0.025260
v 0.308849 0.248902 -0.053745
v 0.295279 0.299270 -0.065103
v 0.281709 0.350145 -0.056290
v 0.271775 0.387895 -0.029666
v 0.268138 0.402405 0.007633
v 0.271775 0.389787 0.045614
v 0.281709 0.353422 0.074099
v 0.295279 0.303054 0.085457
v 0.308849 0.252179 0.076643
v 0.318784 0.214429 0.050020
v 0.255154 0.186546 0.013057
v 0.253320 0.199522 -0.024933
v 0.248310 0.236866 -0.053443
v 0.241466 0.288571 -0.064834
v 0.234622 0.340784 -0.056054
v 0.229612 0.379513 -0.029456
v 0.227779 0.394381 0.007834
v 0.229612 0.381404 0.045824
v 0.234622 0.344060 0.074334
v 0.241466 0.292355 0.085726
v 0.248310 0.240143 0.076946
v 0.253320 0.201414 0.050347
v 0.186716 0.182062 0.013170
v 0.186716 0.195159 -0.024823
v 0.186716 0.232831 -0.053342
v 0.186716 0.284985 -0.064744
v 0.186716 0.337645 -0.055976
v 0.186716 0.376702 -0.029385
v 0.186716 0.391691 0.007902
v 0.186716 0.378594 0.045895
v 0.186716 0.340922 0.074413
v 0.186716 0.288768 0.085816
v 0.186716 0.236107 0.077047
v 0.186716 0.197050 0.050457
v 0.118279 0.186546 0.013057
v 0.120113 0.199522 -0.024933
v 0.125123 0.236866 -0.053443
v 0.131967 0.288571 -0.064834
v 0.138810 0.340784 -0.056054
v 0.143820 0.379513 -0.029456
v 0.145654 0.394381 0.007834
v 0.143820 0.381404 0.045824
v 0.138810 0.344060 0.074334
v 0.131967 0.292355 0.085726
v 0.125123 0.240143 0.076946
v 0.120113 0.201414 0.050347
v 0.051013 0.199919 0.012721
v 0.054649 0.212537 -0.025260
v 0.064583 0.248902 -0.053745
v 0.078154 0.299270 -0.065103
v 0.091724 0.350145 -0.056290
v 0.101658 0.387895 -0.029666
v 0.105294 0.402405 0.007633
v 0.101658 0.389787 0.045614
v 0.091724 0.353422 0.074099
v 0.078154 0.303054 0.085457
v 0.064583 0.252179 0.076643
v 0.054649 0.214429 0.050020
v -0.013931 0.221955 0.012167
v -0.008555 0.233982 -0.025799
v 0.006133 0.268734 -0.054244
v 0.026198 0.316899 -0.065546
v 0.046263 0.365570 -0.056677
v 0.060951 0.401707 -0.030014
v 0.066328 0.415626 0.007300
v 0.060951 0.403599 0.045266
v 0.046263 0.368847 0.073712
v 0.026198 0.320682 0.085014
v 0.006133 0.272011 0.076145
v -0.008555 0.235874 0.049481
v -0.075442 0.252274 0.011405
v -0.068418 0.263490 -0.026540
v -0.049227 0.296022 -0.054930
v -0.023011 0.341154 -0.066156
v 0.003205 0.386794 -0.057211
v 0.022396 0.420711 -0.030491
v 0.029421 0.433818 0.006843
v 0.022396 0.422603 0.044789
v 0.003205 0.390070 0.073178
v -0.023011 0.344938 0.084404
v -0.049227 0.299299 0.075459
v -0.068418 0.265381 0.048740
v -0.132468 0.290360 0.010448
v -0.123915 0.300554 -0.027472
v -0.100549 0.330299 -0.055791
v -0.068631 0.371623 -0.066921
v -0.036713 0.413454 -0.057881
v -0.013347 0.444583 -0.031091
v -0.004794 0.456669 0.006269
v -0.013347 0.446475 0.044189
v -0.036713 0.416730 0.072508
v -0.068631 0.375406 0.083639
v -0.100549 0.333575 0.074598
v -0.123915 0.302446 0.047808
v -0.184032 0.335559 0.009313
v -0.174098 0.344543 -0.028577
v -0.146957 0.370978 -0.056813
v -0.109882 0.407782 -0.067830
v -0.072808 0.445093 -0.058676
v -0.045667 0.472913 -0.031803
v -0.035733 0.483789 0.005588
v -0.045667 0.474805 0.043477
v -0.072808 0.448370 0.071713
v -0.109882 0.411566 0.082730
v -0.146957 0.374255 0.073576
v -0.174098 0.346434 0.046703
v -0.229253 0.387099 0.008017
v -0.218107 0.394702 -0.029838
v -0.187656 0.417364 -0.057979
v -0.146059 0.449014 -0.068866
v -0.104462 0.481171 -0.059582
v -0.074011 0.505219 -0.032615
v -0.062865 0.514713 0.004810
v -0.074011 0.507110 0.042665
v -0.104462 0.484448 0.070807
v -0.146059 0.452798 0.081694
v -0.187656 0.420641 0.072410
v -0.218107 0.396594 0.045442
v -0.267356 0.444098 0.006585
v -0.255189 0.450173 -0.031232
v -0.221949 0.468663 -0.059268
v -0.176541 0.494613 -0.070012
v -0.131134 0.521070 -0.060585
v -0.097894 0.540945 -0.033513
v -0.085727 0.548912 0.003951
v -0.097894 0.542837 0.041767
v -0.131134 0.524347 0.069804
v -0.176541 0.498397 0.080548
v -0.221949 0.471940 0.071121
v -0.255189 0.452065 0.044048
v -0.297690 0.505580 0.005040
v -0.284710 0.510008 -0.032735
v -0.249249 0.523997 -0.060659
v -0.200809 0.543799 -0.071248
v -0.152368 0.564108 -0.061666
v -0.116907 0.579482 -0.034481
v -0.103927 0.585802 0.003024
v -0.116907 0.581374 0.040799
v -0.152368 0.567384 0.068722
v -0.200809 0.547583 0.079312
v -0.249249 0.527274 0.069730
v -0.284710 0.511900 0.042545
v -0.319736 0.570494 0.003409
v -0.306165 0.573183 -0.034323
v -0.269090 0.582420 -0.062127
v -0.218445 0.595730 -0.072553
v -0.167800 0.609548 -0.062808
v -0.130725 0.620170 -0.035504
v -0.117155 0.624750 0.002045
v -0.130725 0.622061 0.039777
v -0.167800 0.612824 0.067580
v -0.218445 0.599514 0.078007
v -0.269090 0.585697 0.068262
v -0.306165 0.575075 0.040957
v -0.333116 0.637729 0.001719
v -0.319187 0.638616 -0.035967
v -0.281132 0.642931 -0.063647
v -0.229149 0.649518 -0.073905
v -0.177166 0.656612 -0.063991
v -0.139112 0.662312 -0.036563
v -0.125183 0.665091 0.001031
v -0.139112 0.664204 0.038717
v -0.177166 0.659889 0.066398
v -0.229149 0.653302 0.076655
v -0.281132 0.646208 0.066742
v -0.319187 0.640508 0.039313
v -0.577476 0.188138 0.090647
v -0.216456 0.428929 0.090647
v -0.588473 0.204627 0.088905
v -0.227453 0.445417 0.088905
v -0.599048 0.220481 0.083747
v -0.238028 0.461272 0.083747
v -0.608794 0.235093 0.075370
v -0.247774 0.475884 0.075370
v -0.617336 0.247901 0.064097
v -0.256316 0.488691 0.064097
v -0.624346 0.258411 0.050361
v -0.263326 0.499202 0.050361
v -0.629555 0.266222 0.034689
v -0.268535 0.507012 0.034689
v -0.632763 0.271031 0.017684
v -0.271743 0.511821 0.017684
v -0.633846 0.272655 0.000000
v -0.272826 0.513445 0.000000
v -0.632763 0.271031 -0.017684
v -0.271743 0.511822 -0.017684
v -0.629555 0.266221 -0.034689
v -0.268535 0.507012 -0.034689
v -0.624346 0.258411 -0.050361
v -0.263326 0.499202 -0.050361
v -0.617336 0.247901 -0.064097
v -0.256316 0.488691 -0.064097
v -0.608794 0.235093 -0.075370
v -0.247774 0.475884 -0.075370
v -0.599048 0.220481 -0.083747
v -0.238028 0.461272 -0.083747
v -0.588473 0.204627 -0.088905
v -0.227453 0.445417 -0.088905
v -0.577476 0.188138 -0.090647
v -0.216456 0.428929 -0.090647
v -0.566479 0.171650 -0.088905
v -0.205459 0.412440 -0.088905
v -0.555904 0.155795 -0.083747
v -0.194884 0.396586 -0.083747
v -0.546158 0.141183 -0.075370
v -0.185138 0.381974 -0.075370
v -0.537616 0.128376 -0.064097
v -0.176596 0.369167 -0.064097
v -0.530606 0.117865 -0.050361
v -0.169586 0.358656 -0.050361
v -0.525397 0.110055 -0.034689
v -0.164377 0.350846 -0.034689
v -0.522189 0.105246 -0.017684
v -0.161169 0.346036 -0.017684
v -0.521106 0.103622 0.000000
v -0.160086 0.344412 0.000000
v -0.522189 0.105246 0.017684
v -0.161169 0.346036 0.017684
v -0.525397 0.110055 0.034689
v -0.164377 0.350846 0.034689
v -0.530606 0.117865 0.050361
v -0.169586 0.358656 0.050361
v -0.537616 0.128376 0.064097
v -0.176596 0.369167 0.064097
v -0.546158 0.141183 0.075370
v -0.185138 0.381974 0.075370
v -0.555904 0.155795 0.083747
v -0.194884 0.396586 0.083747
v -0.566479 0.171650 0.088905
v -0.205459 0.412440 0.088905
vn -0.0980 0.9950 0.0189
vn -0.2903 0.9568 0.0182
vn -0.4714 0.8818 0.0168
vn -0.6344 0.7729 0.0147
vn -0.7730 0.6343 0.0121
vn -0.8819 0.4713 0.0090
vn -0.9569 0.2903 0.0055
vn -0.9952 0.0980 0.0019
vn -0.9952 -0.0980 -0.0019
vn -0.9569 -0.2903 -0.0055
vn -0.8819 -0.4713 -0.0090
vn -0.7730 -0.6343 -0.0121
vn -0.6344 -0.7729 -0.0147
vn -0.4714 -0.8818 -0.0168
vn -0.2903 -0.9568 -0.0182
vn -0.0980 -0.9950 -0.0189
vn 0.0980 -0.9950 -0.0189
vn 0.2903 -0.9568 -0.0182
vn 0.4714 -0.8818 -0.0168
vn 0.6344 -0.7729 -0.0147
vn 0.7730 -0.6343 -0.0121
vn 0.8819 -0.4713 -0.0090
vn 0.9569 -0.2903 -0.0055
vn 0.9952 -0.0980 -0.0019
vn 0.9952 0.0980 0.0019
vn 0.9569 0.2903 0.0055
vn 0.8819 0.4713 0.0090
vn 0.7730 0.6343 0.0121
vn 0.6344 0.7729 0.0147
vn 0.4714 0.8818 0.0168
vn -0.0000 0.0190 -0.9998
vn 0.2903 0.9568 0.0182
vn 0.0980 0.9950 0.0189
vn -0.0000 -0.0190 0.9998
vn -0.9351 0.0525 -0.3504
vn -0.5829 0.0178 -0.8124
vn -0.1889 -0.0123 -0.9819
vn 0.1889 -0.0370 -0.9813
vn 0.5829 -0.0586 -0.8105
vn 0.9351 -0.0700 -0.3473
vn 0.9351 -0.0525 0.3504
vn 0.5829 -0.0178 0.8124
vn 0.1889 0.0123 0.9819
vn -0.1889 0.0370 0.9813
vn -0.5829 0.0586 0.8105
vn -0.9351 0.0700 0.3473
vn -0.9191 0.1740 -0.3534
vn -0.5729 0.0935 -0.8143
vn -0.1857 0.0123 -0.9825
vn 0.1857 -0.0616 -0.9807
vn 0.5729 -0.1343 -0.8085
vn 0.9191 -0.1916 -0.3442
vn 0.9191 -0.1740 0.3534
vn 0.5729 -0.0935 0.8143
vn 0.1857 -0.0123 0.9825
vn -0.1857 0.0616 0.9807
vn -0.5729 0.1343 0.8085
vn -0.9191 0.1916 0.3442
vn -0.8874 0.2924 -0.3564
vn -0.5531 0.1673 -0.8161
vn -0.1793 0.0362 -0.9831
vn 0.1793 -0.0855 -0.9801
vn 0.5531 -0.2081 -0.8067
vn 0.8874 -0.3099 -0.3412
vn 0.8874 -0.2924 0.3564
vn 0.5531 -0.1673 0.8161
vn 0.1793 -0.0362 0.9831
vn -0.1793 0.0855 0.9801
vn -0.5531 0.2081 0.8067
vn -0.8874 0.3099 0.3412
vn -0.8405 0.4056 -0.3592
vn -0.5239 0.2379 -0.8179
vn -0.1698 0.0591 -0.9837
vn 0.1698 -0.1084 -0.9795
vn 0.5239 -0.2787 -0.8049
vn 0.8405 -0.4232 -0.3384
vn 0.8405 -0.4056 0.3592
vn 0.5239 -0.2379 0.8179
vn 0.1698 -0.0591 0.9837
vn -0.1698 0.1084 0.9795
vn -0.5239 0.2787 0.8049
vn -0.8405 0.4232 0.3384
vn -0.7792 0.5118 -0.3619
vn -0.4857 0.3041 -0.8196
vn -0.1574 0.0805 -0.9842
vn 0.1574 -0.1298 -0.9790
vn 0.4857 -0.3449 -0.8032
vn 0.7792 -0.5293 -0.3357
vn 0.7792 -0.5118 0.3619
vn 0.4857 -0.3041 0.8196
vn 0.1574 -0.0805 0.9842
vn -0.1574 0.1298 0.9790
vn -0.4857 0.3449 0.8032
vn -0.7792 0.5293 0.3357
vn -0.7045 0.6090 -0.3643
vn -0.4392 0.3647 -0.8211
vn -0.1424 0.1002 -0.9847
vn 0.1424 -0.1495 -0.9785
vn 0.4392 -0.4055 -0.8017
vn 0.7045 -0.6265 -0.3333
vn 0.7045 -0.6090 0.3643
vn 0.4392 -0.3647 0.8211
vn 0.1424 -0.1002 0.9847
vn -0.1424 0.1495 0.9785
vn -0.4392 0.4055 0.8017
vn -0.7045 0.6265 0.3333
vn -0.6179 0.6957 -0.3665
vn -0.3851 0.4187 -0.8224
vn -0.1248 0.1177 -0.9852
vn 0.1248 -0.1670 -0.9780
vn 0.3851 -0.4595 -0.8004
vn 0.6179 -0.7132 -0.3311
vn 0.6179 -0.6957 0.3665
vn 0.3851 -0.4187 0.8224
vn 0.1248 -0.1177 0.9852
vn -0.1248 0.1670 0.9780
vn -0.3851 0.4595 0.8004
vn -0.6179 0.7132 0.3311
vn -0.5206 0.7702 -0.3684
vn -0.3245 0.4652 -0.8236
vn -0.1052 0.1327 -0.9856
vn 0.1052 -0.1821 -0.9776
vn 0.3245 -0.5060 -0.7992
vn 0.5206 -0.7878 -0.3292
vn 0.5206 -0.7702 0.3684
vn 0.3245 -0.4652 0.8236
vn 0.1052 -0.1327 0.9856
vn -0.1052 0.1821 0.9776
vn -0.3245 0.5060 0.7992
vn -0.5206 0.7878 0.3292
vn -0.4144 0.8315 -0.3699
vn -0.2583 0.5034 -0.8245
vn -0.0837 0.1451 -0.9859
vn 0.0837 -0.1945 -0.9773
vn 0.2583 -0.5442 -0.7982
vn 0.4144 -0.8490 -0.3277
vn 0.4144 -0.8315 0.3699
vn 0.2583 -0.5034 0.8245
vn 0.0837 -0.1451 0.9859
vn -0.0837 0.1945 0.9773
vn -0.2583 0.5442 0.7982
vn -0.4144 0.8490 0.3277
vn -0.3012 0.8784 -0.3711
vn -0.1877 0.5326 -0.8253
vn -0.0609 0.1546 -0.9861
vn 0.0609 -0.2039 -0.9771
vn 0.1877 -0.5734 -0.7975
vn 0.3012 -0.8959 -0.3265
vn 0.3012 -0.8784 0.3711
vn 0.1878 -0.5326 0.8253
vn 0.0609 -0.1546 0.9861
vn -0.0609 0.2039 0.9771
vn -0.1878 0.5734 0.7975
vn -0.3012 0.8959 0.3265
vn -0.1828 0.9101 -0.3719
vn -0.1140 0.5524 -0.8258
vn -0.0369 0.1610 -0.9863
vn 0.0369 -0.2103 -0.9769
vn 0.1140 -0.5932 -0.7970
vn 0.1828 -0.9276 -0.3257
vn 0.1828 -0.9101 0.3719
vn 0.1140 -0.5524 0.8258
vn 0.0369 -0.1610 0.9863
vn -0.0369 0.2103 0.9769
vn -0.1140 0.5932 0.7970
vn -0.1828 0.9276 0.3257
vn -0.0613 0.9261 -0.3723
vn -0.0382 0.5624 -0.8260
vn -0.0124 0.1642 -0.9863
vn 0.0124 -0.2136 -0.9768
vn 0.0382 -0.6031 -0.7967
vn 0.0613 -0.9436 -0.3253
vn 0.0613 -0.9261 0.3723
vn 0.0382 -0.5624 0.8260
vn 0.0124 -0.1642 0.9863
vn -0.0124 0.2136 0.9768
vn -0.0382 0.6031 0.7967
vn -0.0613 0.9436 0.3253
vn 0.0613 0.9261 -0.3723
vn 0.0382 0.5624 -0.8260
vn 0.0124 0.1642 -0.9863
vn -0.0124 -0.2136 -0.9768
vn -0.0382 -0.6031 -0.7967
vn -0.0613 -0.9436 -0.3253
vn -0.0613 -0.9261 0.3723
vn -0.0382 -0.5624 0.8260
vn -0.0124 -0.1642 0.9863
vn 0.0124 0.2136 0.9768
vn 0.0382 0.6031 0.7967
vn 0.0613 0.9436 0.3253
vn 0.1828 0.9101 -0.3719
vn 0.1140 0.5524 -0.8258
vn 0.0369 0.1610 -0.9863
vn -0.0369 -0.2103 -0.9769
vn -0.1140 -0.5932 -0.7970
vn -0.1828 -0.9276 -0.3257
vn -0.1828 -0.9101 0.3719
vn -0.1139 -0.5524 0.8258
vn -0.0369 -0.1610 0.9863
vn 0.0369 0.2103 0.9769
vn 0.1139 0.5932 0.7970
vn 0.1828 0.9276 0.3257
vn 0.3012 0.8784 -0.3711
vn 0.1878 0.5326 -0.8253
vn 0.0609 0.1546 -0.9861
vn -0.0609 -0.2039 -0.9771
vn -0.1877 -0.5734 -0.7975
vn -0.3012 -0.8959 -0.3265
vn -0.3012 -0.8784 0.3711
vn -0.1877 -0.5326 0.8253
vn -0.0609 -0.1546 0.9861
vn 0.0609 0.2039 0.9771
vn 0.1878 0.5734 0.7975
vn 0.3012 0.8959 0.3265
vn 0.4144 0.8315 -0.3699
vn 0.2583 0.5034 -0.8245
vn 0.0837 0.1451 -0.9859
vn -0.0837 -0.1945 -0.9773
vn -0.2583 -0.5442 -0.7982
vn -0.4144 -0.8490 -0.3277
vn -0.4144 -0.8315 0.3699
vn -0.2583 -0.5034 0.8245
vn -0.0837 -0.1451 0.9859
vn 0.0837 0.1945 0.9773
vn 0.2583 0.5442 0.7982
vn 0.4144 0.8490 0.3277
vn 0.5206 0.7702 -0.3684
vn 0.3245 0.4652 -0.8236
vn 0.1052 0.1327 -0.9856
vn -0.1052 -0.1821 -0.9776
vn -0.3245 -0.5060 -0.7992
vn -0.5206 -0.7878 -0.3292
vn -0.5206 -0.7702 0.3684
vn -0.3245 -0.4652 0.8236
vn -0.1052 -0.1327 0.9856
vn 0.1052 0.1821 0.9776
vn 0.3245 0.5060 0.7992
vn 0.5206 0.7878 0.3292
vn 0.6179 0.6957 -0.3665
vn 0.3851 0.4187 -0.8224
vn 0.1248 0.1177 -0.9852
vn -0.1248 -0.1670 -0.9780
vn -0.3851 -0.4595 -0.8004
vn -0.6179 -0.7132 -0.3311
vn -0.6179 -0.6957 0.3665
vn -0.3851 -0.4187 0.8224
vn -0.1248 -0.1177 0.9852
vn 0.1248 0.1670 0.9780
vn 0.3851 0.4595 0.8004
vn 0.6179 0.7132 0.3311
vn 0.7045 0.6090 -0.3643
vn 0.4392 0.3647 -0.8211
vn 0.1424 0.1002 -0.9847
vn -0.1424 -0.1495 -0.9785
vn -0.4392 -0.4055 -0.8017
vn -0.7045 -0.6265 -0.3333
vn -0.7045 -0.6090 0.3643
vn -0.4392 -0.3647 0.8211
vn -0.1424 -0.1002 0.9847
vn 0.1424 0.1495 0.9785
vn 0.4392 0.4055 0.8017
vn 0.7045 0.6265 0.3333
vn 0.7792 0.5118 -0.3619
vn 0.4857 0.3041 -0.8196
vn 0.1574 0.0805 -0.9842
vn -0.1574 -0.1298 -0.9790
vn -0.4857 -0.3449 -0.8032
vn -0.7792 -0.5293 -0.3357
vn -0.7792 -0.5118 0.3619
vn -0.4857 -0.3041 0.8196
vn -0.1574 -0.0805 0.9842
vn 0.1574 0.1298 0.9790
vn 0.4857 0.3449 0.8032
vn 0.7792 0.5293 0.3357
vn 0.8405 0.4056 -0.3592
vn 0.5239 0.2379 -0.8179
vn 0.1698 0.0591 -0.9837
vn -0.1698 -0.1084 -0.9795
vn -0.5239 -0.2787 -0.8049
vn -0.8405 -0.4232 -0.3384
vn -0.8405 -0.4056 0.3592
vn -0.5239 -0.2379 0.8179
vn -0.1698 -0.0591 0.9837
vn 0.1698 0.1084 0.9795
vn 0.5239 0.2787 0.8049
vn 0.8405 0.4232 0.3384
vn 0.8874 0.2924 -0.3564
vn 0.5531 0.1673 -0.8161
vn 0.1793 0.0362 -0.9831
vn -0.1793 -0.0855 -0.9801
vn -0.5531 -0.2081 -0.8067
vn -0.8874 -0.3100 -0.3412
vn -0.8874 -0.2924 0.3564
vn -0.5531 -0.1673 0.8161
vn -0.1793 -0.0362 0.9831
vn 0.1793 0.0855 0.9801
vn 0.5531 0.2081 0.8067
vn 0.8874 0.3099 0.3412
vn 0.9191 0.1740 -0.3534
vn 0.5729 0.0935 -0.8143
vn 0.1857 0.0123 -0.9825
vn -0.1857 -0.0616 -0.9807
vn -0.5729 -0.1343 -0.8085
vn -0.9191 -0.1916 -0.3442
vn -0.9191 -0.1740 0.3534
vn -0.5729 -0.0935 0.8143
vn -0.1857 -0.0123 0.9825
vn 0.1857 0.0616 0.9807
vn 0.5729 0.1343 0.8085
vn 0.9191 0.1916 0.3442
vn 0.9351 0.0525 -0.3504
vn 0.5829 0.0178 -0.8124
vn 0.1889 -0.0123 -0.9819
vn -0.1889 -0.0370 -0.9813
vn -0.5829 -0.0586 -0.8105
vn -0.9351 -0.0700 -0.3473
vn -0.9351 -0.0525 0.3504
vn -0.5829 -0.0178 0.8124
vn -0.1889 0.0123 0.9819
vn 0.1889 0.0370 0.9813
vn 0.5829 0.0586 0.8105
vn 0.9351 0.0700 0.3473
vn 0.8874 -0.3100 -0.3412
vn 0.1878 -0.5734 -0.7975
vn -0.1878 0.5326 -0.8253
vn 0.1140 0.5932 0.7970
vn -0.1140 -0.5524 0.8258
vn -0.1878 -0.5734 -0.7975
vn 0.1877 0.5734 0.7975
vn -0.1878 -0.5326 0.8253
vn -0.8874 -0.3099 -0.3412
vn -0.0486 0.0728 0.9962
vn -0.1450 0.2174 0.9653
vn -0.2389 0.3581 0.9026
vn -0.3278 0.4915 0.8068
vn -0.4084 0.6123 0.6770
vn -0.4760 0.7137 0.5139
vn -0.5253 0.7877 0.3219
vn -0.5515 0.8269 0.1097
vn -0.5515 0.8269 -0.1097
vn -0.5253 0.7877 -0.3219
vn -0.4760 0.7137 -0.5139
vn -0.4084 0.6123 -0.6770
vn -0.3278 0.4915 -0.8068
vn -0.2389 0.3581 -0.9026
vn -0.1450 0.2174 -0.9653
vn -0.0486 0.0728 -0.9962
vn 0.0486 -0.0728 -0.9962
vn 0.1450 -0.2174 -0.9653
vn 0.2389 -0.3581 -0.9026
vn 0.3278 -0.4915 -0.8068
vn 0.4084 -0.6123 -0.6770
vn 0.4760 -0.7137 -0.5139
vn 0.5253 -0.7877 -0.3219
vn 0.5515 -0.8269 -0.1097
vn 0.5515 -0.8269 0.1097
vn 0.5253 -0.7877 0.3219
vn 0.4760 -0.7137 0.5139
vn 0.4084 -0.6123 0.6770
vn 0.3278 -0.4915 0.8068
vn 0.2389 -0.3581 0.9026
vn 0.8319 0.5549 -0.0000
vn 0.1450 -0.2174 0.9653
vn 0.0486 -0.0728 0.9962
vn -0.8319 -0.5549 -0.0000
vn 0.1877 -0.5326 0.8253
vn -0.1877 0.5734 0.7975
vn 0.1139 0.5524 -0.8258
vn 0.1877 0.5326 -0.8253
vn -0.8320 -0.5548 -0.0000
vt 0.010715 0.735932
vt 0.241930 0.713269
vt 0.241930 0.735932
vt 0.010715 0.713269
vt 0.241930 0.690606
vt 0.010715 0.690606
vt 0.241930 0.667943
vt 0.010715 0.667943
vt 0.241930 0.645280
vt 0.010715 0.645280
vt 0.241930 0.622617
vt 0.010715 0.622617
vt 0.241930 0.599954
vt 0.010715 0.599953
vt 0.241930 0.577290
vt 0.010715 0.577290
vt 0.241930 0.554627
vt 0.010715 0.554627
vt 0.241930 0.531964
vt 0.010715 0.531964
vt 0.241930 0.509301
vt 0.010715 0.509301
vt 0.241930 0.486638
vt 0.010715 0.486638
vt 0.241930 0.463975
vt 0.010715 0.463975
vt 0.241930 0.441312
vt 0.010715 0.441312
vt 0.241930 0.418649
vt 0.010715 0.418649
vt 0.241930 0.395986
vt 0.010715 0.395986
vt 0.241930 0.373323
vt 0.010715 0.373323
vt 0.241930 0.350660
vt 0.010715 0.350660
vt 0.241930 0.327997
vt 0.010715 0.327997
vt 0.241930 0.305334
vt 0.010715 0.305334
vt 0.241930 0.282671
vt 0.010715 0.282671
vt 0.241930 0.260008
vt 0.010715 0.260008
vt 0.241930 0.237345
vt 0.010715 0.237345
vt 0.241930 0.214682
vt 0.010715 0.214682
vt 0.241930 0.192019
vt 0.010715 0.192019
vt 0.241930 0.169356
vt 0.010715 0.169356
vt 0.241930 0.146693
vt 0.010715 0.146693
vt 0.241930 0.124030
vt 0.010715 0.124030
vt 0.241930 0.101367
vt 0.010715 0.101367
vt 0.241930 0.078704
vt 0.010715 0.078704
vt 0.241930 0.056041
vt 0.758598 0.388628
vt 0.862318 0.262246
vt 0.988700 0.365965
vt 0.010715 0.056041
vt 0.241930 0.033378
vt 0.010715 0.033378
vt 0.241930 0.010715
vt 0.758598 0.114434
vt 0.884981 0.010715
vt 0.988700 0.137097
vt 0.000000 0.000000
vt 0.494574 0.010715
vt 0.263359 0.033378
vt 0.263359 0.010715
vt 0.494574 0.033378
vt 0.263359 0.056041
vt 0.494574 0.056041
vt 0.263359 0.078704
vt 0.494574 0.078704
vt 0.263359 0.101367
vt 0.494574 0.101367
vt 0.263359 0.124030
vt 0.494574 0.124030
vt 0.263359 0.146693
vt 0.494574 0.146693
vt 0.263359 0.169356
vt 0.494574 0.169356
vt 0.263359 0.192019
vt 0.494574 0.192019
vt 0.263359 0.214682
vt 0.494574 0.214682
vt 0.263359 0.237345
vt 0.494574 0.237345
vt 0.263359 0.260008
vt 0.494574 0.260008
vt 0.263359 0.282671
vt 0.494574 0.282671
vt 0.263359 0.305334
vt 0.494574 0.305334
vt 0.263359 0.327997
vt 0.494574 0.327997
vt 0.263359 0.350660
vt 0.494574 0.350660
vt 0.263359 0.373323
vt 0.494574 0.395986
vt 0.263359 0.395986
vt 0.494574 0.418649
vt 0.263359 0.418649
vt 0.494574 0.441312
vt 0.263359 0.441312
vt 0.494574 0.463975
vt 0.263359 0.463975
vt 0.494574 0.486638
vt 0.263359 0.486638
vt 0.494574 0.509301
vt 0.263359 0.509301
vt 0.494574 0.531964
vt 0.263359 0.531964
vt 0.494574 0.554627
vt 0.263359 0.554627
vt 0.494574 0.577290
vt 0.263359 0.577290
vt 0.494574 0.599953
vt 0.263359 0.599953
vt 0.494574 0.622617
vt 0.263359 0.622617
vt 0.494574 0.645280
vt 0.263359 0.645280
vt 0.494574 0.667943
vt 0.263359 0.667943
vt 0.494574 0.690606
vt 0.263359 0.690606
vt 0.159325 0.761783
vt 0.236395 0.905971
vt 0.092206 0.983041
vt 0.494574 0.713269
vt 0.263359 0.713269
vt 0.494574 0.735932
vt 0.263359 0.735932
vt 0.466662 0.799071
vt 0.450637 0.961778
vt 0.287931 0.945753
vt 0.988700 0.388628
vt 0.984279 0.410856
vt 0.975606 0.431794
vt 0.963015 0.450637
vt 0.946990 0.466662
vt 0.928146 0.479253
vt 0.907208 0.487926
vt 0.884981 0.492347
vt 0.862318 0.492347
vt 0.840090 0.487926
vt 0.819152 0.479253
vt 0.800308 0.466662
vt 0.784283 0.450637
vt 0.771692 0.431794
vt 0.763020 0.410856
vt 0.758598 0.365965
vt 0.763020 0.343738
vt 0.771692 0.322800
vt 0.784283 0.303956
vt 0.800309 0.287931
vt 0.819152 0.275340
vt 0.840090 0.266667
vt 0.884981 0.262246
vt 0.907208 0.266667
vt 0.928146 0.275340
vt 0.946990 0.287931
vt 0.963015 0.303956
vt 0.975606 0.322800
vt 0.984279 0.343738
vt 0.010715 0.010715
vt 0.984279 0.159325
vt 0.975606 0.180263
vt 0.963015 0.199106
vt 0.946990 0.215131
vt 0.928146 0.227722
vt 0.907208 0.236395
vt 0.884981 0.240816
vt 0.862318 0.240816
vt 0.840090 0.236395
vt 0.819152 0.227722
vt 0.800309 0.215131
vt 0.784283 0.199106
vt 0.771692 0.180263
vt 0.763020 0.159325
vt 0.758598 0.137097
vt 0.763020 0.092207
vt 0.771692 0.071269
vt 0.784283 0.052425
vt 0.800309 0.036400
vt 0.819152 0.023809
vt 0.840090 0.015136
vt 0.862318 0.010715
vt 0.907208 0.015136
vt 0.928146 0.023809
vt 0.946990 0.036400
vt 0.963015 0.052425
vt 0.975606 0.071269
vt 0.984279 0.092206
vt 0.988700 0.114434
vt 0.494574 0.373323
vt 0.071269 0.974369
vt 0.052425 0.961778
vt 0.036400 0.945753
vt 0.023809 0.926909
vt 0.015136 0.905971
vt 0.010715 0.883744
vt 0.010715 0.861080
vt 0.015136 0.838853
vt 0.023809 0.817915
vt 0.036400 0.799071
vt 0.052425 0.783046
vt 0.071269 0.770455
vt 0.092206 0.761783
vt 0.114434 0.757361
vt 0.137097 0.757361
vt 0.180263 0.770455
vt 0.199106 0.783046
vt 0.215131 0.799071
vt 0.227722 0.817915
vt 0.236395 0.838853
vt 0.240816 0.861080
vt 0.240816 0.883744
vt 0.227722 0.926909
vt 0.215131 0.945753
vt 0.199106 0.961778
vt 0.180263 0.974369
vt 0.159325 0.983041
vt 0.137097 0.987463
vt 0.114434 0.987463
vt 0.275340 0.926909
vt 0.266667 0.905971
vt 0.262246 0.883744
vt 0.262246 0.861081
vt 0.266667 0.838853
vt 0.275340 0.817915
vt 0.287931 0.799071
vt 0.303956 0.783046
vt 0.322800 0.770455
vt 0.343738 0.761783
vt 0.365965 0.757361
vt 0.388628 0.757361
vt 0.410856 0.761783
vt 0.431794 0.770455
vt 0.450637 0.783046
vt 0.479253 0.817915
vt 0.487926 0.838853
vt 0.492347 0.861081
vt 0.492347 0.883744
vt 0.487926 0.905971
vt 0.479253 0.926909
vt 0.466662 0.945753
vt 0.431794 0.974369
vt 0.410856 0.983042
vt 0.388628 0.987463
vt 0.365965 0.987463
vt 0.343738 0.983042
vt 0.322800 0.974369
vt 0.303956 0.961778
s 0
usemtl マテリアル
f 2/1/1 3/2/1 1/3/1
f 4/4/2 5/5/2 3/2/2
f 6/6/3 7/7/3 5/5/3
f 8/8/4 9/9/4 7/7/4
f 10/10/5 11/11/5 9/9/5
f 12/12/6 13/13/6 11/11/6
f 14/14/7 15/15/7 13/13/7
f 16/16/8 17/17/8 15/15/8
f 18/18/9 19/19/9 17/17/9
f 20/20/10 21/21/10 19/19/10
f 22/22/11 23/23/11 21/21/11
f 24/24/12 25/25/12 23/23/12
f 26/26/13 27/27/13 25/25/13
f 28/28/14 29/29/14 27/27/14
f 30/30/15 31/31/15 29/29/15
f 32/32/16 33/33/16 31/31/16
f 34/34/17 35/35/17 33/33/17
f 36/36/18 37/37/18 35/35/18
f 38/38/19 39/39/19 37/37/19
f 40/40/20 41/41/20 39/39/20
f 42/42/21 43/43/21 41/41/21
f 44/44/22 45/45/22 43/43/22
f 46/46/23 47/47/23 45/45/23
f 48/48/24 49/49/24 47/47/24
f 50/50/25 51/51/25 49/49/25
f 52/52/26 53/53/26 51/51/26
f 54/54/27 55/55/27 53/53/27
f 56/56/28 57/57/28 55/55/28
f 58/58/29 59/59/29 57/57/29
f 60/60/30 61/61/30 59/59/30
f 38/62/31 22/63/31 6/64/31
f 62/65/32 63/66/32 61/61/32
f 64/67/33 1/68/33 63/66/33
f 31/69/34 47/70/34 63/71/34
f 77/72/35 66/72/35 65/72/35
f 78/72/36 67/72/36 66/72/36
f 79/72/37 68/72/37 67/72/37
f 68/72/38 81/72/38 69/72/38
f 69/72/39 82/72/39 70/72/39
f 70/72/40 83/72/40 71/72/40
f 71/72/41 84/72/41 72/72/41
f 72/72/42 85/72/42 73/72/42
f 73/72/43 86/72/43 74/72/43
f 86/72/44 75/72/44 74/72/44
f 87/72/45 76/72/45 75/72/45
f 88/72/46 65/72/46 76/72/46
f 89/72/47 78/72/47 77/72/47
f 90/72/48 79/72/48 78/72/48
f 91/72/49 80/72/49 79/72/49
f 80/72/50 93/72/50 81/72/50
f 81/72/51 94/72/51 82/72/51
f 82/72/52 95/72/52 83/72/52
f 83/72/53 96/72/53 84/72/53
f 84/72/54 97/72/54 85/72/54
f 85/72/55 98/72/55 86/72/55
f 98/72/56 87/72/56 86/72/56
f 99/72/57 88/72/57 87/72/57
f 100/72/58 77/72/58 88/72/58
f 101/72/59 90/72/59 89/72/59
f 102/72/60 91/72/60 90/72/60
f 103/72/61 92/72/61 91/72/61
f 92/72/62 105/72/62 93/72/62
f 93/72/63 106/72/63 94/72/63
f 94/72/64 107/72/64 95/72/64
f 95/72/65 108/72/65 96/72/65
f 96/72/66 109/72/66 97/72/66
f 97/72/67 110/72/67 98/72/67
f 110/72/68 99/72/68 98/72/68
f 111/72/69 100/72/69 99/72/69
f 112/72/70 89/72/70 100/72/70
f 113/72/71 102/72/71 101/72/71
f 114/72/72 103/72/72 102/72/72
f 115/72/73 104/72/73 103/72/73
f 104/72/74 117/72/74 105/72/74
f 105/72/75 118/72/75 106/72/75
f 106/72/76 119/72/76 107/72/76
f 107/72/77 120/72/77 108/72/77
f 108/72/78 121/72/78 109/72/78
f 109/72/79 122/72/79 110/72/79
f 122/72/80 111/72/80 110/72/80
f 123/72/81 112/72/81 111/72/81
f 124/72/82 101/72/82 112/72/82
f 125/72/83 114/72/83 113/72/83
f 126/72/84 115/72/84 114/72/84
f 127/72/85 116/72/85 115/72/85
f 116/72/86 129/72/86 117/72/86
f 117/72/87 130/72/87 118/72/87
f 118/72/88 131/72/88 119/72/88
f 119/72/89 132/72/89 120/72/89
f 120/72/90 133/72/90 121/72/90
f 121/72/91 134/72/91 122/72/91
f 134/72/92 123/72/92 122/72/92
f 135/72/93 124/72/93 123/72/93
f 136/72/94 113/72/94 124/72/94
f 137/72/95 126/72/95 125/72/95
f 138/72/96 127/72/96 126/72/96
f 139/72/97 128/72/97 127/72/97
f 128/72/98 141/72/98 129/72/98
f 129/72/99 142/72/99 130/72/99
f 130/72/100 143/72/100 131/72/100
f 131/72/101 144/72/101 132/72/101
f 132/72/102 145/72/102 133/72/102
f 133/72/103 146/72/103 134/72/103
f 146/72/104 135/72/104 134/72/104
f 147/72/105 136/72/105 135/72/105
f 148/72/106 125/72/106 136/72/106
f 149/72/107 138/72/107 137/72/107
f 150/72/108 139/72/108 138/72/108
f 151/72/109 140/72/109 139/72/109
f 140/72/110 153/72/110 141/72/110
f 141/72/111 154/72/111 142/72/111
f 142/72/112 155/72/112 143/72/112
f 143/72/113 156/72/113 144/72/113
f 144/72/114 157/72/114 145/72/114
f 145/72/115 158/72/115 146/72/115
f 158/72/116 147/72/116 146/72/116
f 159/72/117 148/72/117 147/72/117
f 160/72/118 137/72/118 148/72/118
f 161/72/119 150/72/119 149/72/119
f 162/72/120 151/72/120 150/72/120
f 163/72/121 152/72/121 151/72/121
f 152/72/122 165/72/122 153/72/122
f 153/72/123 166/72/123 154/72/123
f 154/72/124 167/72/124 155/72/124
f 155/72/125 168/72/125 156/72/125
f 156/72/126 169/72/126 157/72/126
f 157/72/127 170/72/127 158/72/127
f 170/72/128 159/72/128 158/72/128
f 171/72/129 160/72/129 159/72/129
f 172/72/130 149/72/130 160/72/130
f 173/72/131 162/72/131 161/72/131
f 174/72/132 163/72/132 162/72/132
f 175/72/133 164/72/133 163/72/133
f 164/72/134 177/72/134 165/72/134
f 165/72/135 178/72/135 166/72/135
f 166/72/136 179/72/136 167/72/136
f 167/72/137 180/72/137 168/72/137
f 168/72/138 181/72/138 169/72/138
f 169/72/139 182/72/139 170/72/139
f 182/72/140 171/72/140 170/72/140
f 183/72/141 172/72/141 171/72/141
f 184/72/142 161/72/142 172/72/142
f 185/72/143 174/72/143 173/72/143
f 186/72/144 175/72/144 174/72/144
f 187/72/145 176/72/145 175/72/145
f 176/72/146 189/72/146 177/72/146
f 177/72/147 190/72/147 178/72/147
f 178/72/148 191/72/148 179/72/148
f 179/72/149 192/72/149 180/72/149
f 180/72/150 193/72/150 181/72/150
f 181/72/151 194/72/151 182/72/151
f 194/72/152 183/72/152 182/72/152
f 195/72/153 184/72/153 183/72/153
f 196/72/154 173/72/154 184/72/154
f 197/72/155 186/72/155 185/72/155
f 198/72/156 187/72/156 186/72/156
f 199/72/157 188/72/157 187/72/157
f 188/72/158 201/72/158 189/72/158
f 189/72/159 202/72/159 190/72/159
f 190/72/160 203/72/160 191/72/160
f 191/72/161 204/72/161 192/72/161
f 192/72/162 205/72/162 193/72/162
f 193/72/163 206/72/163 194/72/163
f 206/72/164 195/72/164 194/72/164
f 207/72/165 196/72/165 195/72/165
f 208/72/166 185/72/166 196/72/166
f 209/72/167 198/72/167 197/72/167
f 210/72/168 199/72/168 198/72/168
f 211/72/169 200/72/169 199/72/169
f 200/72/170 213/72/170 201/72/170
f 201/72/171 214/72/171 202/72/171
f 202/72/172 215/72/172 203/72/172
f 203/72/173 216/72/173 204/72/173
f 204/72/174 217/72/174 205/72/174
f 205/72/175 218/72/175 206/72/175
f 218/72/176 207/72/176 206/72/176
f 219/72/177 208/72/177 207/72/177
f 220/72/178 197/72/178 208/72/178
f 209/72/179 222/72/179 210/72/179
f 210/72/180 223/72/180 211/72/180
f 211/72/181 224/72/181 212/72/181
f 224/72/182 213/72/182 212/72/182
f 225/72/183 214/72/183 213/72/183
f 226/72/184 215/72/184 214/72/184
f 227/72/185 216/72/185 215/72/185
f 228/72/186 217/72/186 216/72/186
f 229/72/187 218/72/187 217/72/187
f 218/72/188 231/72/188 219/72/188
f 219/72/189 232/72/189 220/72/189
f 220/72/190 221/72/190 209/72/190
f 221/72/191 234/72/191 222/72/191
f 222/72/192 235/72/192 223/72/192
f 223/72/193 236/72/193 224/72/193
f 236/72/194 225/72/194 224/72/194
f 237/72/195 226/72/195 225/72/195
f 238/72/196 227/72/196 226/72/196
f 239/72/197 228/72/197 227/72/197
f 240/72/198 229/72/198 228/72/198
f 241/72/199 230/72/199 229/72/199
f 230/72/200 243/72/200 231/72/200
f 231/72/201 244/72/201 232/72/201
f 232/72/202 233/72/202 221/72/202
f 233/72/203 246/72/203 234/72/203
f 234/72/204 247/72/204 235/72/204
f 235/72/205 248/72/205 236/72/205
f 248/72/206 237/72/206 236/72/206
f 249/72/207 238/72/207 237/72/207
f 250/72/208 239/72/208 238/72/208
f 251/72/209 240/72/209 239/72/209
f 252/72/210 241/72/210 240/72/210
f 253/72/211 242/72/211 241/72/211
f 242/72/212 255/72/212 243/72/212
f 243/72/213 256/72/213 244/72/213
f 244/72/214 245/72/214 233/72/214
f 245/72/215 258/72/215 246/72/215
f 246/72/216 259/72/216 247/72/216
f 247/72/217 260/72/217 248/72/217
f 260/72/218 249/72/218 248/72/218
f 261/72/219 250/72/219 249/72/219
f 262/72/220 251/72/220 250/72/220
f 263/72/221 252/72/221 251/72/221
f 264/72/222 253/72/222 252/72/222
f 265/72/223 254/72/223 253/72/223
f 254/72/224 267/72/224 255/72/224
f 255/72/225 268/72/225 256/72/225
f 256/72/226 257/72/226 245/72/226
f 257/72/227 270/72/227 258/72/227
f 258/72/228 271/72/228 259/72/228
f 259/72/229 272/72/229 260/72/229
f 272/72/230 261/72/230 260/72/230
f 273/72/231 262/72/231 261/72/231
f 274/72/232 263/72/232 262/72/232
f 275/72/233 264/72/233 263/72/233
f 276/72/234 265/72/234 264/72/234
f 277/72/235 266/72/235 265/72/235
f 266/72/236 279/72/236 267/72/236
f 267/72/237 280/72/237 268/72/237
f 268/72/238 269/72/238 257/72/238
f 269/72/239 282/72/239 270/72/239
f 270/72/240 283/72/240 271/72/240
f 271/72/241 284/72/241 272/72/241
f 284/72/242 273/72/242 272/72/242
f 285/72/243 274/72/243 273/72/243
f 286/72/244 275/72/244 274/72/244
f 287/72/245 276/72/245 275/72/245
f 288/72/246 277/72/246 276/72/246
f 289/72/247 278/72/247 277/72/247
f 278/72/248 291/72/248 279/72/248
f 279/72/249 292/72/249 280/72/249
f 280/72/250 281/72/250 269/72/250
f 281/72/251 294/72/251 282/72/251
f 282/72/252 295/72/252 283/72/252
f 283/72/253 296/72/253 284/72/253
f 296/72/254 285/72/254 284/72/254
f 297/72/255 286/72/255 285/72/255
f 298/72/256 287/72/256 286/72/256
f 299/72/257 288/72/257 287/72/257
f 300/72/258 289/72/258 288/72/258
f 301/72/259 290/72/259 289/72/259
f 290/72/260 303/72/260 291/72/260
f 291/72/261 304/72/261 292/72/261
f 292/72/262 293/72/262 281/72/262
f 293/72/263 306/72/263 294/72/263
f 294/72/264 307/72/264 295/72/264
f 295/72/265 308/72/265 296/72/265
f 308/72/266 297/72/266 296/72/266
f 309/72/267 298/72/267 297/72/267
f 310/72/268 299/72/268 298/72/268
f 311/72/269 300/72/269 299/72/269
f 312/72/270 301/72/270 300/72/270
f 313/72/271 302/72/271 301/72/271
f 302/72/272 315/72/272 303/72/272
f 303/72/273 316/72/273 304/72/273
f 304/72/274 305/72/274 293/72/274
f 305/72/275 318/72/275 306/72/275
f 306/72/276 319/72/276 307/72/276
f 307/72/277 320/72/277 308/72/277
f 320/72/278 309/72/278 308/72/278
f 321/72/279 310/72/279 309/72/279
f 322/72/280 311/72/280 310/72/280
f 323/72/281 312/72/281 311/72/281
f 324/72/282 313/72/282 312/72/282
f 325/72/283 314/72/283 313/72/283
f 314/72/284 327/72/284 315/72/284
f 315/72/285 328/72/285 316/72/285
f 316/72/286 317/72/286 305/72/286
f 317/72/287 330/72/287 318/72/287
f 318/72/288 331/72/288 319/72/288
f 319/72/289 332/72/289 320/72/289
f 332/72/290 321/72/290 320/72/290
f 333/72/291 322/72/291 321/72/291
f 334/72/292 323/72/292 322/72/292
f 335/72/293 324/72/293 323/72/293
f 336/72/294 325/72/294 324/72/294
f 337/72/295 326/72/295 325/72/295
f 326/72/296 339/72/296 327/72/296
f 327/72/297 340/72/297 328/72/297
f 328/72/298 329/72/298 317/72/298
f 329/72/299 342/72/299 330/72/299
f 330/72/300 343/72/300 331/72/300
f 331/72/301 344/72/301 332/72/301
f 344/72/302 333/72/302 332/72/302
f 345/72/303 334/72/303 333/72/303
f 346/72/304 335/72/304 334/72/304
f 347/72/305 336/72/305 335/72/305
f 348/72/306 337/72/306 336/72/306
f 349/72/307 338/72/307 337/72/307
f 338/72/308 351/72/308 339/72/308
f 339/72/309 352/72/309 340/72/309
f 340/72/310 341/72/310 329/72/310
f 341/72/311 354/72/311 342/72/311
f 342/72/312 355/72/312 343/72/312
f 343/72/313 356/72/313 344/72/313
f 356/72/314 345/72/314 344/72/314
f 357/72/315 346/72/315 345/72/315
f 358/72/316 347/72/316 346/72/316
f 359/72/317 348/72/317 347/72/317
f 360/72/318 349/72/318 348/72/318
f 361/72/319 350/72/319 349/72/319
f 350/72/320 363/72/320 351/72/320
f 351/72/321 364/72/321 352/72/321
f 352/72/322 353/72/322 341/72/322
f 353/72/40 366/72/40 354/72/40
f 354/72/39 367/72/39 355/72/39
f 355/72/38 368/72/38 356/72/38
f 368/72/37 357/72/37 356/72/37
f 369/72/36 358/72/36 357/72/36
f 370/72/35 359/72/35 358/72/35
f 371/72/46 360/72/46 359/72/46
f 372/72/45 361/72/45 360/72/45
f 373/72/44 362/72/44 361/72/44
f 362/72/43 375/72/43 363/72/43
f 363/72/42 376/72/42 364/72/42
f 364/72/41 365/72/41 353/72/41
f 365/72/52 378/72/52 366/72/52
f 366/72/51 379/72/51 367/72/51
f 367/72/50 380/72/50 368/72/50
f 380/72/49 369/72/49 368/72/49
f 381/72/48 370/72/48 369/72/48
f 382/72/47 371/72/47 370/72/47
f 383/72/58 372/72/58 371/72/58
f 384/72/57 373/72/57 372/72/57
f 385/72/56 374/72/56 373/72/56
f 374/72/55 387/72/55 375/72/55
f 375/72/54 388/72/54 376/72/54
f 376/72/53 377/72/53 365/72/53
f 377/72/323 390/72/323 378/72/323
f 378/72/63 391/72/63 379/72/63
f 379/72/62 392/72/62 380/72/62
f 392/72/61 381/72/61 380/72/61
f 393/72/60 382/72/60 381/72/60
f 394/72/59 383/72/59 382/72/59
f 395/72/70 384/72/70 383/72/70
f 396/72/69 385/72/69 384/72/69
f 397/72/68 386/72/68 385/72/68
f 386/72/67 399/72/67 387/72/67
f 387/72/66 400/72/66 388/72/66
f 388/72/65 389/72/65 377/72/65
f 389/72/76 402/72/76 390/72/76
f 390/72/75 403/72/75 391/72/75
f 391/72/74 404/72/74 392/72/74
f 404/72/73 393/72/73 392/72/73
f 405/72/72 394/72/72 393/72/72
f 406/72/71 395/72/71 394/72/71
f 407/72/82 396/72/82 395/72/82
f 408/72/81 397/72/81 396/72/81
f 409/72/80 398/72/80 397/72/80
f 398/72/79 411/72/79 399/72/79
f 399/72/78 412/72/78 400/72/78
f 400/72/77 401/72/77 389/72/77
f 401/72/88 414/72/88 402/72/88
f 402/72/87 415/72/87 403/72/87
f 403/72/86 416/72/86 404/72/86
f 416/72/85 405/72/85 404/72/85
f 417/72/84 406/72/84 405/72/84
f 418/72/83 407/72/83 406/72/83
f 419/72/94 408/72/94 407/72/94
f 420/72/93 409/72/93 408/72/93
f 421/72/92 410/72/92 409/72/92
f 410/72/91 423/72/91 411/72/91
f 411/72/90 424/72/90 412/72/90
f 412/72/89 413/72/89 401/72/89
f 413/72/100 426/72/100 414/72/100
f 414/72/99 427/72/99 415/72/99
f 415/72/98 428/72/98 416/72/98
f 428/72/97 417/72/97 416/72/97
f 429/72/96 418/72/96 417/72/96
f 430/72/95 419/72/95 418/72/95
f 431/72/106 420/72/106 419/72/106
f 432/72/105 421/72/105 420/72/105
f 433/72/104 422/72/104 421/72/104
f 422/72/103 435/72/103 423/72/103
f 423/72/102 436/72/102 424/72/102
f 424/72/101 425/72/101 413/72/101
f 425/72/112 438/72/112 426/72/112
f 426/72/111 439/72/111 427/72/111
f 427/72/110 440/72/110 428/72/110
f 440/72/109 429/72/109 428/72/109
f 441/72/108 430/72/108 429/72/108
f 442/72/107 431/72/107 430/72/107
f 443/72/118 432/72/118 431/72/118
f 444/72/117 433/72/117 432/72/117
f 445/72/116 434/72/116 433/72/116
f 434/72/115 447/72/115 435/72/115
f 435/72/114 448/72/114 436/72/114
f 436/72/113 437/72/113 425/72/113
f 437/72/124 450/72/124 438/72/124
f 438/72/123 451/72/123 439/72/123
f 439/72/122 452/72/122 440/72/122
f 452/72/121 441/72/121 440/72/121
f 453/72/120 442/72/120 441/72/120
f 454/72/119 443/72/119 442/72/119
f 455/72/130 444/72/130 443/72/130
f 456/72/129 445/72/129 444/72/129
f 457/72/128 446/72/128 445/72/128
f 446/72/127 459/72/127 447/72/127
f 447/72/126 460/72/126 448/72/126
f 448/72/125 449/72/125 437/72/125
f 449/72/136 462/72/136 450/72/136
f 450/72/135 463/72/135 451/72/135
f 451/72/134 464/72/134 452/72/134
f 464/72/133 453/72/133 452/72/133
f 465/72/132 454/72/132 453/72/132
f 466/72/131 455/72/131 454/72/131
f 467/72/142 456/72/142 455/72/142
f 468/72/141 457/72/141 456/72/141
f 469/72/140 458/72/140 457/72/140
f 458/72/139 471/72/139 459/72/139
f 459/72/138 472/72/138 460/72/138
f 460/72/137 461/72/137 449/72/137
f 461/72/148 474/72/148 462/72/148
f 462/72/324 475/72/324 463/72/324
f 463/72/146 476/72/146 464/72/146
f 476/72/145 465/72/145 464/72/145
f 477/72/325 466/72/325 465/72/325
f 478/72/143 467/72/143 466/72/143
f 479/72/154 468/72/154 467/72/154
f 480/72/153 469/72/153 468/72/153
f 481/72/152 470/72/152 469/72/152
f 470/72/151 483/72/151 471/72/151
f 471/72/150 484/72/150 472/72/150
f 472/72/149 473/72/149 461/72/149
f 473/72/160 486/72/160 474/72/160
f 474/72/159 487/72/159 475/72/159
f 475/72/158 488/72/158 476/72/158
f 488/72/157 477/72/157 476/72/157
f 489/72/156 478/72/156 477/72/156
f 490/72/155 479/72/155 478/72/155
f 491/72/166 480/72/166 479/72/166
f 492/72/165 481/72/165 480/72/165
f 493/72/164 482/72/164 481/72/164
f 482/72/163 495/72/163 483/72/163
f 483/72/162 496/72/162 484/72/162
f 484/72/161 485/72/161 473/72/161
f 485/72/172 498/72/172 486/72/172
f 486/72/171 499/72/171 487/72/171
f 487/72/170 500/72/170 488/72/170
f 500/72/169 489/72/169 488/72/169
f 501/72/168 490/72/168 489/72/168
f 502/72/167 491/72/167 490/72/167
f 503/72/178 492/72/178 491/72/178
f 504/72/177 493/72/177 492/72/177
f 505/72/176 494/72/176 493/72/176
f 494/72/175 507/72/175 495/72/175
f 495/72/174 508/72/174 496/72/174
f 496/72/173 497/72/173 485/72/173
f 509/72/184 498/72/184 497/72/184
f 510/72/183 499/72/183 498/72/183
f 511/72/182 500/72/182 499/72/182
f 500/72/181 513/72/181 501/72/181
f 501/72/180 514/72/180 502/72/180
f 502/72/179 515/72/179 503/72/179
f 503/72/190 516/72/190 504/72/190
f 504/72/189 517/72/189 505/72/189
f 505/72/188 518/72/188 506/72/188
f 518/72/187 507/72/187 506/72/187
f 519/72/186 508/72/186 507/72/186
f 520/72/185 497/72/185 508/72/185
f 521/72/196 510/72/196 509/72/196
f 522/72/195 511/72/195 510/72/195
f 523/72/194 512/72/194 511/72/194
f 512/72/193 525/72/193 513/72/193
f 513/72/192 526/72/192 514/72/192
f 514/72/191 527/72/191 515/72/191
f 515/72/202 528/72/202 516/72/202
f 516/72/326 529/72/326 517/72/326
f 517/72/200 530/72/200 518/72/200
f 530/72/199 519/72/199 518/72/199
f 531/72/327 520/72/327 519/72/327
f 532/72/197 509/72/197 520/72/197
f 533/72/208 522/72/208 521/72/208
f 534/72/328 523/72/328 522/72/328
f 535/72/206 524/72/206 523/72/206
f 524/72/205 537/72/205 525/72/205
f 525/72/204 538/72/204 526/72/204
f 526/72/203 539/72/203 527/72/203
f 527/72/214 540/72/214 528/72/214
f 528/72/329 541/72/329 529/72/329
f 529/72/212 542/72/212 530/72/212
f 542/72/211 531/72/211 530/72/211
f 543/72/330 532/72/330 531/72/330
f 544/72/209 521/72/209 532/72/209
f 545/72/220 534/72/220 533/72/220
f 546/72/219 535/72/219 534/72/219
f 547/72/218 536/72/218 535/72/218
f 536/72/217 549/72/217 537/72/217
f 537/72/216 550/72/216 538/72/216
f 538/72/215 551/72/215 539/72/215
f 539/72/226 552/72/226 540/72/226
f 540/72/225 553/72/225 541/72/225
f 541/72/224 554/72/224 542/72/224
f 554/72/223 543/72/223 542/72/223
f 555/72/222 544/72/222 543/72/222
f 556/72/221 533/72/221 544/72/221
f 557/72/232 546/72/232 545/72/232
f 558/72/231 547/72/231 546/72/231
f 559/72/230 548/72/230 547/72/230
f 548/72/229 561/72/229 549/72/229
f 549/72/228 562/72/228 550/72/228
f 550/72/227 563/72/227 551/72/227
f 551/72/238 564/72/238 552/72/238
f 552/72/237 565/72/237 553/72/237
f 553/72/236 566/72/236 554/72/236
f 566/72/235 555/72/235 554/72/235
f 567/72/234 556/72/234 555/72/234
f 568/72/233 545/72/233 556/72/233
f 569/72/244 558/72/244 557/72/244
f 570/72/243 559/72/243 558/72/243
f 571/72/242 560/72/242 559/72/242
f 560/72/241 573/72/241 561/72/241
f 561/72/240 574/72/240 562/72/240
f 562/72/239 575/72/239 563/72/239
f 563/72/250 576/72/250 564/72/250
f 564/72/249 577/72/249 565/72/249
f 565/72/248 578/72/248 566/72/248
f 578/72/247 567/72/247 566/72/247
f 579/72/246 568/72/246 567/72/246
f 580/72/245 557/72/245 568/72/245
f 581/72/256 570/72/256 569/72/256
f 582/72/255 571/72/255 570/72/255
f 583/72/254 572/72/254 571/72/254
f 572/72/253 585/72/253 573/72/253
f 573/72/252 586/72/252 574/72/252
f 574/72/251 587/72/251 575/72/251
f 575/72/262 588/72/262 576/72/262
f 576/72/261 589/72/261 577/72/261
f 577/72/260 590/72/260 578/72/260
f 590/72/259 579/72/259 578/72/259
f 591/72/258 580/72/258 579/72/258
f 592/72/257 569/72/257 580/72/257
f 593/72/268 582/72/268 581/72/268
f 594/72/267 583/72/267 582/72/267
f 595/72/266 584/72/266 583/72/266
f 584/72/265 597/72/265 585/72/265
f 585/72/264 598/72/264 586/72/264
f 586/72/263 599/72/263 587/72/263
f 587/72/274 600/72/274 588/72/274
f 588/72/273 601/72/273 589/72/273
f 589/72/272 602/72/272 590/72/272
f 602/72/271 591/72/271 590/72/271
f 603/72/270 592/72/270 591/72/270
f 604/72/269 581/72/269 592/72/269
f 605/72/280 594/72/280 593/72/280
f 606/72/279 595/72/279 594/72/279
f 607/72/278 596/72/278 595/72/278
f 596/72/277 609/72/277 597/72/277
f 597/72/276 610/72/276 598/72/276
f 598/72/275 611/72/275 599/72/275
f 599/72/286 612/72/286 600/72/286
f 600/72/285 613/72/285 601/72/285
f 601/72/284 614/72/284 602/72/284
f 614/72/283 603/72/283 602/72/283
f 615/72/282 604/72/282 603/72/282
f 616/72/281 593/72/281 604/72/281
f 617/72/331 606/72/331 605/72/331
f 618/72/291 607/72/291 606/72/291
f 619/72/290 608/72/290 607/72/290
f 608/72/289 621/72/289 609/72/289
f 609/72/288 622/72/288 610/72/288
f 610/72/287 623/72/287 611/72/287
f 611/72/298 624/72/298 612/72/298
f 612/72/297 625/72/297 613/72/297
f 613/72/296 626/72/296 614/72/296
f 626/72/295 615/72/295 614/72/295
f 627/72/294 616/72/294 615/72/294
f 628/72/293 605/72/293 616/72/293
f 629/72/304 618/72/304 617/72/304
f 630/72/303 619/72/303 618/72/303
f 631/72/302 620/72/302 619/72/302
f 620/72/301 633/72/301 621/72/301
f 621/72/300 634/72/300 622/72/300
f 622/72/299 635/72/299 623/72/299
f 623/72/310 636/72/310 624/72/310
f 624/72/309 637/72/309 625/72/309
f 625/72/308 638/72/308 626/72/308
f 638/72/307 627/72/307 626/72/307
f 639/72/306 628/72/306 627/72/306
f 640/72/305 617/72/305 628/72/305
f 65/72/316 630/72/316 629/72/316
f 66/72/315 631/72/315 630/72/315
f 67/72/314 632/72/314 631/72/314
f 632/72/313 69/72/313 633/72/313
f 633/72/312 70/72/312 634/72/312
f 634/72/311 71/72/311 635/72/311
f 635/72/322 72/72/322 636/72/322
f 636/72/321 73/72/321 637/72/321
f 637/72/320 74/72/320 638/72/320
f 74/72/319 639/72/319 638/72/319
f 75/72/318 640/72/318 639/72/318
f 76/72/317 629/72/317 640/72/317
f 642/73/332 643/74/332 641/75/332
f 644/76/333 645/77/333 643/74/333
f 646/78/334 647/79/334 645/77/334
f 648/80/335 649/81/335 647/79/335
f 650/82/336 651/83/336 649/81/336
f 652/84/337 653/85/337 651/83/337
f 654/86/338 655/87/338 653/85/338
f 656/88/339 657/89/339 655/87/339
f 658/90/340 659/91/340 657/89/340
f 660/92/341 661/93/341 659/91/341
f 662/94/342 663/95/342 661/93/342
f 664/96/343 665/97/343 663/95/343
f 666/98/344 667/99/344 665/97/344
f 668/100/345 669/101/345 667/99/345
f 670/102/346 671/103/346 669/101/346
f 672/104/347 673/105/347 671/103/347
f 673/105/348 676/106/348 675/107/348
f 675/107/349 678/108/349 677/109/349
f 677/109/350 680/110/350 679/111/350
f 679/111/351 682/112/351 681/113/351
f 681/113/352 684/114/352 683/115/352
f 683/115/353 686/116/353 685/117/353
f 685/117/354 688/118/354 687/119/354
f 687/119/355 690/120/355 689/121/355
f 689/121/356 692/122/356 691/123/356
f 691/123/357 694/124/357 693/125/357
f 693/125/358 696/126/358 695/127/358
f 695/127/359 698/128/359 697/129/359
f 697/129/360 700/130/360 699/131/360
f 699/131/361 702/132/361 701/133/361
f 678/134/362 662/135/362 646/136/362
f 701/133/363 704/137/363 703/138/363
f 703/138/364 642/139/364 641/140/364
f 671/141/365 687/142/365 703/143/365
f 2/1/1 4/4/1 3/2/1
f 4/4/2 6/6/2 5/5/2
f 6/6/3 8/8/3 7/7/3
f 8/8/4 10/10/4 9/9/4
f 10/10/5 12/12/5 11/11/5
f 12/12/6 14/14/6 13/13/6
f 14/14/7 16/16/7 15/15/7
f 16/16/8 18/18/8 17/17/8
f 18/18/9 20/20/9 19/19/9
f 20/20/10 22/22/10 21/21/10
f 22/22/11 24/24/11 23/23/11
f 24/24/12 26/26/12 25/25/12
f 26/26/13 28/28/13 27/27/13
f 28/28/14 30/30/14 29/29/14
f 30/30/15 32/32/15 31/31/15
f 32/32/16 34/34/16 33/33/16
f 34/34/17 36/36/17 35/35/17
f 36/36/18 38/38/18 37/37/18
f 38/38/19 40/40/19 39/39/19
f 40/40/20 42/42/20 41/41/20
f 42/42/21 44/44/21 43/43/21
f 44/44/22 46/46/22 45/45/22
f 46/46/23 48/48/23 47/47/23
f 48/48/24 50/50/24 49/49/24
f 50/50/25 52/52/25 51/51/25
f 52/52/26 54/54/26 53/53/26
f 54/54/27 56/56/27 55/55/27
f 56/56/28 58/58/28 57/57/28
f 58/58/29 60/60/29 59/59/29
f 60/60/30 62/65/30 61/61/30
f 6/64/31 4/144/31 2/145/31
f 2/145/31 64/146/31 62/147/31
f 62/147/31 60/148/31 58/149/31
f 58/149/31 56/150/31 54/151/31
f 54/151/31 52/152/31 50/153/31
f 50/153/31 48/154/31 46/155/31
f 46/155/31 44/156/31 42/157/31
f 42/157/31 40/158/31 38/62/31
f 38/62/31 36/159/31 34/160/31
f 34/160/31 32/161/31 30/162/31
f 30/162/31 28/163/31 26/164/31
f 26/164/31 24/165/31 22/63/31
f 22/63/31 20/166/31 18/167/31
f 18/167/31 16/168/31 14/169/31
f 14/169/31 12/170/31 10/171/31
f 10/171/31 8/172/31 6/64/31
f 6/64/31 2/145/31 62/147/31
f 62/147/31 58/149/31 54/151/31
f 54/151/31 50/153/31 46/155/31
f 46/155/31 42/157/31 38/62/31
f 38/62/31 34/160/31 30/162/31
f 30/162/31 26/164/31 22/63/31
f 22/63/31 18/167/31 14/169/31
f 14/169/31 10/171/31 6/64/31
f 6/64/31 62/147/31 54/151/31
f 54/151/31 46/155/31 38/62/31
f 38/62/31 30/162/31 22/63/31
f 22/63/31 14/169/31 6/64/31
f 6/64/31 54/151/31 38/62/31
f 62/65/32 64/67/32 63/66/32
f 64/67/33 2/173/33 1/68/33
f 63/71/34 1/174/34 3/175/34
f 3/175/34 5/176/34 7/177/34
f 7/177/34 9/178/34 11/179/34
f 11/179/34 13/180/34 15/181/34
f 15/181/34 17/182/34 19/183/34
f 19/183/34 21/184/34 23/185/34
f 23/185/34 25/186/34 27/187/34
f 27/187/34 29/188/34 31/69/34
f 31/69/34 33/189/34 35/190/34
f 35/190/34 37/191/34 39/192/34
f 39/192/34 41/193/34 43/194/34
f 43/194/34 45/195/34 47/70/34
f 47/70/34 49/196/34 51/197/34
f 51/197/34 53/198/34 55/199/34
f 55/199/34 57/200/34 59/201/34
f 59/201/34 61/202/34 63/71/34
f 63/71/34 3/175/34 7/177/34
f 7/177/34 11/179/34 15/181/34
f 15/181/34 19/183/34 23/185/34
f 23/185/34 27/187/34 31/69/34
f 31/69/34 35/190/34 39/192/34
f 39/192/34 43/194/34 47/70/34
f 47/70/34 51/197/34 55/199/34
f 55/199/34 59/201/34 63/71/34
f 63/71/34 7/177/34 15/181/34
f 15/181/34 23/185/34 31/69/34
f 31/69/34 39/192/34 47/70/34
f 47/70/34 55/199/34 63/71/34
f 63/71/34 15/181/34 31/69/34
f 77/72/35 78/72/35 66/72/35
f 78/72/36 79/72/36 67/72/36
f 79/72/37 80/72/37 68/72/37
f 68/72/38 80/72/38 81/72/38
f 69/72/39 81/72/39 82/72/39
f 70/72/40 82/72/40 83/72/40
f 71/72/41 83/72/41 84/72/41
f 72/72/42 84/72/42 85/72/42
f 73/72/43 85/72/43 86/72/43
f 86/72/44 87/72/44 75/72/44
f 87/72/45 88/72/45 76/72/45
f 88/72/46 77/72/46 65/72/46
f 89/72/47 90/72/47 78/72/47
f 90/72/48 91/72/48 79/72/48
f 91/72/49 92/72/49 80/72/49
f 80/72/50 92/72/50 93/72/50
f 81/72/51 93/72/51 94/72/51
f 82/72/52 94/72/52 95/72/52
f 83/72/53 95/72/53 96/72/53
f 84/72/54 96/72/54 97/72/54
f 85/72/55 97/72/55 98/72/55
f 98/72/56 99/72/56 87/72/56
f 99/72/57 100/72/57 88/72/57
f 100/72/58 89/72/58 77/72/58
f 101/72/59 102/72/59 90/72/59
f 102/72/60 103/72/60 91/72/60
f 103/72/61 104/72/61 92/72/61
f 92/72/62 104/72/62 105/72/62
f 93/72/63 105/72/63 106/72/63
f 94/72/64 106/72/64 107/72/64
f 95/72/65 107/72/65 108/72/65
f 96/72/66 108/72/66 109/72/66
f 97/72/67 109/72/67 110/72/67
f 110/72/68 111/72/68 99/72/68
f 111/72/69 112/72/69 100/72/69
f 112/72/70 101/72/70 89/72/70
f 113/72/71 114/72/71 102/72/71
f 114/72/72 115/72/72 103/72/72
f 115/72/73 116/72/73 104/72/73
f 104/72/74 116/72/74 117/72/74
f 105/72/75 117/72/75 118/72/75
f 106/72/76 118/72/76 119/72/76
f 107/72/77 119/72/77 120/72/77
f 108/72/78 120/72/78 121/72/78
f 109/72/79 121/72/79 122/72/79
f 122/72/80 123/72/80 111/72/80
f 123/72/81 124/72/81 112/72/81
f 124/72/82 113/72/82 101/72/82
f 125/72/83 126/72/83 114/72/83
f 126/72/84 127/72/84 115/72/84
f 127/72/85 128/72/85 116/72/85
f 116/72/86 128/72/86 129/72/86
f 117/72/87 129/72/87 130/72/87
f 118/72/88 130/72/88 131/72/88
f 119/72/89 131/72/89 132/72/89
f 120/72/90 132/72/90 133/72/90
f 121/72/91 133/72/91 134/72/91
f 134/72/92 135/72/92 123/72/92
f 135/72/93 136/72/93 124/72/93
f 136/72/94 125/72/94 113/72/94
f 137/72/95 138/72/95 126/72/95
f 138/72/96 139/72/96 127/72/96
f 139/72/97 140/72/97 128/72/97
f 128/72/98 140/72/98 141/72/98
f 129/72/99 141/72/99 142/72/99
f 130/72/100 142/72/100 143/72/100
f 131/72/101 143/72/101 144/72/101
f 132/72/102 144/72/102 145/72/102
f 133/72/103 145/72/103 146/72/103
f 146/72/104 147/72/104 135/72/104
f 147/72/105 148/72/105 136/72/105
f 148/72/106 137/72/106 125/72/106
f 149/72/107 150/72/107 138/72/107
f 150/72/108 151/72/108 139/72/108
f 151/72/109 152/72/109 140/72/109
f 140/72/110 152/72/110 153/72/110
f 141/72/111 153/72/111 154/72/111
f 142/72/112 154/72/112 155/72/112
f 143/72/113 155/72/113 156/72/113
f 144/72/114 156/72/114 157/72/114
f 145/72/115 157/72/115 158/72/115
f 158/72/116 159/72/116 147/72/116
f 159/72/117 160/72/117 148/72/117
f 160/72/118 149/72/118 137/72/118
f 161/72/119 162/72/119 150/72/119
f 162/72/120 163/72/120 151/72/120
f 163/72/121 164/72/121 152/72/121
f 152/72/122 164/72/122 165/72/122
f 153/72/123 165/72/123 166/72/123
f 154/72/124 166/72/124 167/72/124
f 155/72/125 167/72/125 168/72/125
f 156/72/126 168/72/126 169/72/126
f 157/72/127 169/72/127 170/72/127
f 170/72/128 171/72/128 159/72/128
f 171/72/129 172/72/129 160/72/129
f 172/72/130 161/72/130 149/72/130
f 173/72/131 174/72/131 162/72/131
f 174/72/132 175/72/132 163/72/132
f 175/72/133 176/72/133 164/72/133
f 164/72/134 176/72/134 177/72/134
f 165/72/135 177/72/135 178/72/135
f 166/72/136 178/72/136 179/72/136
f 167/72/137 179/72/137 180/72/137
f 168/72/138 180/72/138 181/72/138
f 169/72/139 181/72/139 182/72/139
f 182/72/140 183/72/140 171/72/140
f 183/72/141 184/72/141 172/72/141
f 184/72/142 173/72/142 161/72/142
f 185/72/143 186/72/143 174/72/143
f 186/72/325 187/72/325 175/72/325
f 187/72/145 188/72/145 176/72/145
f 176/72/146 188/72/146 189/72/146
f 177/72/324 189/72/324 190/72/324
f 178/72/148 190/72/148 191/72/148
f 179/72/149 191/72/149 192/72/149
f 180/72/366 192/72/366 193/72/366
f 181/72/151 193/72/151 194/72/151
f 194/72/152 195/72/152 183/72/152
f 195/72/367 196/72/367 184/72/367
f 196/72/154 185/72/154 173/72/154
f 197/72/155 198/72/155 186/72/155
f 198/72/156 199/72/156 187/72/156
f 199/72/157 200/72/157 188/72/157
f 188/72/158 200/72/158 201/72/158
f 189/72/159 201/72/159 202/72/159
f 190/72/160 202/72/160 203/72/160
f 191/72/161 203/72/161 204/72/161
f 192/72/162 204/72/162 205/72/162
f 193/72/163 205/72/163 206/72/163
f 206/72/164 207/72/164 195/72/164
f 207/72/165 208/72/165 196/72/165
f 208/72/166 197/72/166 185/72/166
f 209/72/167 210/72/167 198/72/167
f 210/72/168 211/72/168 199/72/168
f 211/72/169 212/72/169 200/72/169
f 200/72/170 212/72/170 213/72/170
f 201/72/171 213/72/171 214/72/171
f 202/72/172 214/72/172 215/72/172
f 203/72/173 215/72/173 216/72/173
f 204/72/174 216/72/174 217/72/174
f 205/72/175 217/72/175 218/72/175
f 218/72/176 219/72/176 207/72/176
f 219/72/177 220/72/177 208/72/177
f 220/72/178 209/72/178 197/72/178
f 209/72/179 221/72/179 222/72/179
f 210/72/180 222/72/180 223/72/180
f 211/72/181 223/72/181 224/72/181
f 224/72/182 225/72/182 213/72/182
f 225/72/183 226/72/183 214/72/183
f 226/72/184 227/72/184 215/72/184
f 227/72/185 228/72/185 216/72/185
f 228/72/186 229/72/186 217/72/186
f 229/72/187 230/72/187 218/72/187
f 218/72/188 230/72/188 231/72/188
f 219/72/189 231/72/189 232/72/189
f 220/72/190 232/72/190 221/72/190
f 221/72/191 233/72/191 234/72/191
f 222/72/368 234/72/368 235/72/368
f 223/72/193 235/72/193 236/72/193
f 236/72/194 237/72/194 225/72/194
f 237/72/195 238/72/195 226/72/195
f 238/72/196 239/72/196 227/72/196
f 239/72/197 240/72/197 228/72/197
f 240/72/327 241/72/327 229/72/327
f 241/72/199 242/72/199 230/72/199
f 230/72/200 242/72/200 243/72/200
f 231/72/201 243/72/201 244/72/201
f 232/72/202 244/72/202 233/72/202
f 233/72/203 245/72/203 246/72/203
f 234/72/204 246/72/204 247/72/204
f 235/72/205 247/72/205 248/72/205
f 248/72/206 249/72/206 237/72/206
f 249/72/328 250/72/328 238/72/328
f 250/72/208 251/72/208 239/72/208
f 251/72/209 252/72/209 240/72/209
f 252/72/210 253/72/210 241/72/210
f 253/72/211 254/72/211 242/72/211
f 242/72/212 254/72/212 255/72/212
f 243/72/329 255/72/329 256/72/329
f 244/72/214 256/72/214 245/72/214
f 245/72/215 257/72/215 258/72/215
f 246/72/216 258/72/216 259/72/216
f 247/72/217 259/72/217 260/72/217
f 260/72/218 261/72/218 249/72/218
f 261/72/219 262/72/219 250/72/219
f 262/72/220 263/72/220 251/72/220
f 263/72/221 264/72/221 252/72/221
f 264/72/222 265/72/222 253/72/222
f 265/72/223 266/72/223 254/72/223
f 254/72/224 266/72/224 267/72/224
f 255/72/225 267/72/225 268/72/225
f 256/72/226 268/72/226 257/72/226
f 257/72/227 269/72/227 270/72/227
f 258/72/228 270/72/228 271/72/228
f 259/72/229 271/72/229 272/72/229
f 272/72/230 273/72/230 261/72/230
f 273/72/231 274/72/231 262/72/231
f 274/72/232 275/72/232 263/72/232
f 275/72/233 276/72/233 264/72/233
f 276/72/234 277/72/234 265/72/234
f 277/72/235 278/72/235 266/72/235
f 266/72/236 278/72/236 279/72/236
f 267/72/237 279/72/237 280/72/237
f 268/72/238 280/72/238 269/72/238
f 269/72/239 281/72/239 282/72/239
f 270/72/240 282/72/240 283/72/240
f 271/72/241 283/72/241 284/72/241
f 284/72/242 285/72/242 273/72/242
f 285/72/243 286/72/243 274/72/243
f 286/72/244 287/72/244 275/72/244
f 287/72/245 288/72/245 276/72/245
f 288/72/246 289/72/246 277/72/246
f 289/72/247 290/72/247 278/72/247
f 278/72/248 290/72/248 291/72/248
f 279/72/249 291/72/249 292/72/249
f 280/72/250 292/72/250 281/72/250
f 281/72/251 293/72/251 294/72/251
f 282/72/252 294/72/252 295/72/252
f 283/72/253 295/72/253 296/72/253
f 296/72/254 297/72/254 285/72/254
f 297/72/255 298/72/255 286/72/255
f 298/72/256 299/72/256 287/72/256
f 299/72/257 300/72/257 288/72/257
f 300/72/258 301/72/258 289/72/258
f 301/72/259 302/72/259 290/72/259
f 290/72/260 302/72/260 303/72/260
f 291/72/261 303/72/261 304/72/261
f 292/72/262 304/72/262 293/72/262
f 293/72/263 305/72/263 306/72/263
f 294/72/264 306/72/264 307/72/264
f 295/72/265 307/72/265 308/72/265
f 308/72/266 309/72/266 297/72/266
f 309/72/267 310/72/267 298/72/267
f 310/72/268 311/72/268 299/72/268
f 311/72/269 312/72/269 300/72/269
f 312/72/270 313/72/270 301/72/270
f 313/72/271 314/72/271 302/72/271
f 302/72/272 314/72/272 315/72/272
f 303/72/273 315/72/273 316/72/273
f 304/72/274 316/72/274 305/72/274
f 305/72/275 317/72/275 318/72/275
f 306/72/276 318/72/276 319/72/276
f 307/72/277 319/72/277 320/72/277
f 320/72/278 321/72/278 309/72/278
f 321/72/279 322/72/279 310/72/279
f 322/72/280 323/72/280 311/72/280
f 323/72/281 324/72/281 312/72/281
f 324/72/282 325/72/282 313/72/282
f 325/72/283 326/72/283 314/72/283
f 314/72/284 326/72/284 327/72/284
f 315/72/285 327/72/285 328/72/285
f 316/72/286 328/72/286 317/72/286
f 317/72/287 329/72/287 330/72/287
f 318/72/288 330/72/288 331/72/288
f 319/72/289 331/72/289 332/72/289
f 332/72/290 333/72/290 321/72/290
f 333/72/291 334/72/291 322/72/291
f 334/72/331 335/72/331 323/72/331
f 335/72/293 336/72/293 324/72/293
f 336/72/294 337/72/294 325/72/294
f 337/72/295 338/72/295 326/72/295
f 326/72/296 338/72/296 339/72/296
f 327/72/297 339/72/297 340/72/297
f 328/72/298 340/72/298 329/72/298
f 329/72/299 341/72/299 342/72/299
f 330/72/300 342/72/300 343/72/300
f 331/72/301 343/72/301 344/72/301
f 344/72/302 345/72/302 333/72/302
f 345/72/303 346/72/303 334/72/303
f 346/72/304 347/72/304 335/72/304
f 347/72/305 348/72/305 336/72/305
f 348/72/306 349/72/306 337/72/306
f 349/72/307 350/72/307 338/72/307
f 338/72/308 350/72/308 351/72/308
f 339/72/309 351/72/309 352/72/309
f 340/72/310 352/72/310 341/72/310
f 341/72/311 353/72/311 354/72/311
f 342/72/312 354/72/312 355/72/312
f 343/72/313 355/72/313 356/72/313
f 356/72/314 357/72/314 345/72/314
f 357/72/315 358/72/315 346/72/315
f 358/72/316 359/72/316 347/72/316
f 359/72/317 360/72/317 348/72/317
f 360/72/318 361/72/318 349/72/318
f 361/72/319 362/72/319 350/72/319
f 350/72/320 362/72/320 363/72/320
f 351/72/321 363/72/321 364/72/321
f 352/72/322 364/72/322 353/72/322
f 353/72/40 365/72/40 366/72/40
f 354/72/39 366/72/39 367/72/39
f 355/72/38 367/72/38 368/72/38
f 368/72/37 369/72/37 357/72/37
f 369/72/36 370/72/36 358/72/36
f 370/72/35 371/72/35 359/72/35
f 371/72/46 372/72/46 360/72/46
f 372/72/45 373/72/45 361/72/45
f 373/72/44 374/72/44 362/72/44
f 362/72/43 374/72/43 375/72/43
f 363/72/42 375/72/42 376/72/42
f 364/72/41 376/72/41 365/72/41
f 365/72/52 377/72/52 378/72/52
f 366/72/51 378/72/51 379/72/51
f 367/72/50 379/72/50 380/72/50
f 380/72/49 381/72/49 369/72/49
f 381/72/48 382/72/48 370/72/48
f 382/72/47 383/72/47 371/72/47
f 383/72/58 384/72/58 372/72/58
f 384/72/57 385/72/57 373/72/57
f 385/72/56 386/72/56 374/72/56
f 374/72/55 386/72/55 387/72/55
f 375/72/54 387/72/54 388/72/54
f 376/72/53 388/72/53 377/72/53
f 377/72/64 389/72/64 390/72/64
f 378/72/63 390/72/63 391/72/63
f 379/72/62 391/72/62 392/72/62
f 392/72/61 393/72/61 381/72/61
f 393/72/60 394/72/60 382/72/60
f 394/72/59 395/72/59 383/72/59
f 395/72/70 396/72/70 384/72/70
f 396/72/69 397/72/69 385/72/69
f 397/72/68 398/72/68 386/72/68
f 386/72/67 398/72/67 399/72/67
f 387/72/66 399/72/66 400/72/66
f 388/72/65 400/72/65 389/72/65
f 389/72/76 401/72/76 402/72/76
f 390/72/75 402/72/75 403/72/75
f 391/72/74 403/72/74 404/72/74
f 404/72/73 405/72/73 393/72/73
f 405/72/72 406/72/72 394/72/72
f 406/72/71 407/72/71 395/72/71
f 407/72/82 408/72/82 396/72/82
f 408/72/81 409/72/81 397/72/81
f 409/72/80 410/72/80 398/72/80
f 398/72/79 410/72/79 411/72/79
f 399/72/78 411/72/78 412/72/78
f 400/72/77 412/72/77 401/72/77
f 401/72/88 413/72/88 414/72/88
f 402/72/87 414/72/87 415/72/87
f 403/72/86 415/72/86 416/72/86
f 416/72/85 417/72/85 405/72/85
f 417/72/84 418/72/84 406/72/84
f 418/72/83 419/72/83 407/72/83
f 419/72/94 420/72/94 408/72/94
f 420/72/93 421/72/93 409/72/93
f 421/72/92 422/72/92 410/72/92
f 410/72/91 422/72/91 423/72/91
f 411/72/90 423/72/90 424/72/90
f 412/72/89 424/72/89 413/72/89
f 413/72/100 425/72/100 426/72/100
f 414/72/99 426/72/99 427/72/99
f 415/72/98 427/72/98 428/72/98
f 428/72/97 429/72/97 417/72/97
f 429/72/96 430/72/96 418/72/96
f 430/72/95 431/72/95 419/72/95
f 431/72/106 432/72/106 420/72/106
f 432/72/105 433/72/105 421/72/105
f 433/72/104 434/72/104 422/72/104
f 422/72/103 434/72/103 435/72/103
f 423/72/102 435/72/102 436/72/102
f 424/72/101 436/72/101 425/72/101
f 425/72/112 437/72/112 438/72/112
f 426/72/111 438/72/111 439/72/111
f 427/72/110 439/72/110 440/72/110
f 440/72/109 441/72/109 429/72/109
f 441/72/108 442/72/108 430/72/108
f 442/72/107 443/72/107 431/72/107
f 443/72/118 444/72/118 432/72/118
f 444/72/117 445/72/117 433/72/117
f 445/72/116 446/72/116 434/72/116
f 434/72/115 446/72/115 447/72/115
f 435/72/114 447/72/114 448/72/114
f 436/72/113 448/72/113 437/72/113
f 437/72/124 449/72/124 450/72/124
f 438/72/123 450/72/123 451/72/123
f 439/72/122 451/72/122 452/72/122
f 452/72/121 453/72/121 441/72/121
f 453/72/120 454/72/120 442/72/120
f 454/72/119 455/72/119 443/72/119
f 455/72/130 456/72/130 444/72/130
f 456/72/129 457/72/129 445/72/129
f 457/72/128 458/72/128 446/72/128
f 446/72/127 458/72/127 459/72/127
f 447/72/126 459/72/126 460/72/126
f 448/72/125 460/72/125 449/72/125
f 449/72/136 461/72/136 462/72/136
f 450/72/135 462/72/135 463/72/135
f 451/72/134 463/72/134 464/72/134
f 464/72/133 465/72/133 453/72/133
f 465/72/132 466/72/132 454/72/132
f 466/72/131 467/72/131 455/72/131
f 467/72/142 468/72/142 456/72/142
f 468/72/141 469/72/141 457/72/141
f 469/72/140 470/72/140 458/72/140
f 458/72/139 470/72/139 471/72/139
f 459/72/138 471/72/138 472/72/138
f 460/72/137 472/72/137 461/72/137
f 461/72/148 473/72/148 474/72/148
f 462/72/324 474/72/324 475/72/324
f 463/72/146 475/72/146 476/72/146
f 476/72/145 477/72/145 465/72/145
f 477/72/325 478/72/325 466/72/325
f 478/72/143 479/72/143 467/72/143
f 479/72/154 480/72/154 468/72/154
f 480/72/153 481/72/153 469/72/153
f 481/72/152 482/72/152 470/72/152
f 470/72/151 482/72/151 483/72/151
f 471/72/150 483/72/150 484/72/150
f 472/72/149 484/72/149 473/72/149
f 473/72/160 485/72/160 486/72/160
f 474/72/159 486/72/159 487/72/159
f 475/72/158 487/72/158 488/72/158
f 488/72/157 489/72/157 477/72/157
f 489/72/156 490/72/156 478/72/156
f 490/72/155 491/72/155 479/72/155
f 491/72/166 492/72/166 480/72/166
f 492/72/165 493/72/165 481/72/165
f 493/72/164 494/72/164 482/72/164
f 482/72/163 494/72/163 495/72/163
f 483/72/162 495/72/162 496/72/162
f 484/72/161 496/72/161 485/72/161
f 485/72/172 497/72/172 498/72/172
f 486/72/171 498/72/171 499/72/171
f 487/72/170 499/72/170 500/72/170
f 500/72/169 501/72/169 489/72/169
f 501/72/168 502/72/168 490/72/168
f 502/72/167 503/72/167 491/72/167
f 503/72/178 504/72/178 492/72/178
f 504/72/177 505/72/177 493/72/177
f 505/72/176 506/72/176 494/72/176
f 494/72/175 506/72/175 507/72/175
f 495/72/174 507/72/174 508/72/174
f 496/72/173 508/72/173 497/72/173
f 509/72/184 510/72/184 498/72/184
f 510/72/183 511/72/183 499/72/183
f 511/72/182 512/72/182 500/72/182
f 500/72/181 512/72/181 513/72/181
f 501/72/180 513/72/180 514/72/180
f 502/72/179 514/72/179 515/72/179
f 503/72/190 515/72/190 516/72/190
f 504/72/189 516/72/189 517/72/189
f 505/72/188 517/72/188 518/72/188
f 518/72/187 519/72/187 507/72/187
f 519/72/186 520/72/186 508/72/186
f 520/72/185 509/72/185 497/72/185
f 521/72/196 522/72/196 510/72/196
f 522/72/195 523/72/195 511/72/195
f 523/72/194 524/72/194 512/72/194
f 512/72/193 524/72/193 525/72/193
f 513/72/192 525/72/192 526/72/192
f 514/72/191 526/72/191 527/72/191
f 515/72/202 527/72/202 528/72/202
f 516/72/326 528/72/326 529/72/326
f 517/72/200 529/72/200 530/72/200
f 530/72/199 531/72/199 519/72/199
f 531/72/327 532/72/327 520/72/327
f 532/72/197 521/72/197 509/72/197
f 533/72/208 534/72/208 522/72/208
f 534/72/328 535/72/328 523/72/328
f 535/72/206 536/72/206 524/72/206
f 524/72/205 536/72/205 537/72/205
f 525/72/369 537/72/369 538/72/369
f 526/72/203 538/72/203 539/72/203
f 527/72/214 539/72/214 540/72/214
f 528/72/213 540/72/213 541/72/213
f 529/72/212 541/72/212 542/72/212
f 542/72/211 543/72/211 531/72/211
f 543/72/330 544/72/330 532/72/330
f 544/72/209 533/72/209 521/72/209
f 545/72/220 546/72/220 534/72/220
f 546/72/219 547/72/219 535/72/219
f 547/72/218 548/72/218 536/72/218
f 536/72/217 548/72/217 549/72/217
f 537/72/216 549/72/216 550/72/216
f 538/72/215 550/72/215 551/72/215
f 539/72/226 551/72/226 552/72/226
f 540/72/225 552/72/225 553/72/225
f 541/72/224 553/72/224 554/72/224
f 554/72/223 555/72/223 543/72/223
f 555/72/222 556/72/222 544/72/222
f 556/72/221 545/72/221 533/72/221
f 557/72/232 558/72/232 546/72/232
f 558/72/231 559/72/231 547/72/231
f 559/72/230 560/72/230 548/72/230
f 548/72/229 560/72/229 561/72/229
f 549/72/228 561/72/228 562/72/228
f 550/72/227 562/72/227 563/72/227
f 551/72/238 563/72/238 564/72/238
f 552/72/237 564/72/237 565/72/237
f 553/72/236 565/72/236 566/72/236
f 566/72/235 567/72/235 555/72/235
f 567/72/234 568/72/234 556/72/234
f 568/72/233 557/72/233 545/72/233
f 569/72/244 570/72/244 558/72/244
f 570/72/243 571/72/243 559/72/243
f 571/72/242 572/72/242 560/72/242
f 560/72/241 572/72/241 573/72/241
f 561/72/240 573/72/240 574/72/240
f 562/72/239 574/72/239 575/72/239
f 563/72/250 575/72/250 576/72/250
f 564/72/249 576/72/249 577/72/249
f 565/72/248 577/72/248 578/72/248
f 578/72/247 579/72/247 567/72/247
f 579/72/246 580/72/246 568/72/246
f 580/72/245 569/72/245 557/72/245
f 581/72/256 582/72/256 570/72/256
f 582/72/255 583/72/255 571/72/255
f 583/72/254 584/72/254 572/72/254
f 572/72/253 584/72/253 585/72/253
f 573/72/252 585/72/252 586/72/252
f 574/72/251 586/72/251 587/72/251
f 575/72/262 587/72/262 588/72/262
f 576/72/261 588/72/261 589/72/261
f 577/72/260 589/72/260 590/72/260
f 590/72/259 591/72/259 579/72/259
f 591/72/258 592/72/258 580/72/258
f 592/72/257 581/72/257 569/72/257
f 593/72/268 594/72/268 582/72/268
f 594/72/267 595/72/267 583/72/267
f 595/72/266 596/72/266 584/72/266
f 584/72/265 596/72/265 597/72/265
f 585/72/264 597/72/264 598/72/264
f 586/72/263 598/72/263 599/72/263
f 587/72/274 599/72/274 600/72/274
f 588/72/273 600/72/273 601/72/273
f 589/72/272 601/72/272 602/72/272
f 602/72/271 603/72/271 591/72/271
f 603/72/270 604/72/270 592/72/270
f 604/72/269 593/72/269 581/72/269
f 605/72/280 606/72/280 594/72/280
f 606/72/279 607/72/279 595/72/279
f 607/72/278 608/72/278 596/72/278
f 596/72/277 608/72/277 609/72/277
f 597/72/276 609/72/276 610/72/276
f 598/72/275 610/72/275 611/72/275
f 599/72/286 611/72/286 612/72/286
f 600/72/285 612/72/285 613/72/285
f 601/72/284 613/72/284 614/72/284
f 614/72/283 615/72/283 603/72/283
f 615/72/282 616/72/282 604/72/282
f 616/72/281 605/72/281 593/72/281
f 617/72/292 618/72/292 606/72/292
f 618/72/291 619/72/291 607/72/291
f 619/72/290 620/72/290 608/72/290
f 608/72/289 620/72/289 621/72/289
f 609/72/288 621/72/288 622/72/288
f 610/72/287 622/72/287 623/72/287
f 611/72/298 623/72/298 624/72/298
f 612/72/297 624/72/297 625/72/297
f 613/72/296 625/72/296 626/72/296
f 626/72/295 627/72/295 615/72/295
f 627/72/294 628/72/294 616/72/294
f 628/72/293 617/72/293 605/72/293
f 629/72/304 630/72/304 618/72/304
f 630/72/303 631/72/303 619/72/303
f 631/72/302 632/72/302 620/72/302
f 620/72/301 632/72/301 633/72/301
f 621/72/300 633/72/300 634/72/300
f 622/72/299 634/72/299 635/72/299
f 623/72/310 635/72/310 636/72/310
f 624/72/309 636/72/309 637/72/309
f 625/72/308 637/72/308 638/72/308
f 638/72/307 639/72/307 627/72/307
f 639/72/306 640/72/306 628/72/306
f 640/72/305 629/72/305 617/72/305
f 65/72/316 66/72/316 630/72/316
f 66/72/315 67/72/315 631/72/315
f 67/72/314 68/72/314 632/72/314
f 632/72/313 68/72/313 69/72/313
f 633/72/312 69/72/312 70/72/312
f 634/72/311 70/72/311 71/72/311
f 635/72/322 71/72/322 72/72/322
f 636/72/321 72/72/321 73/72/321
f 637/72/320 73/72/320 74/72/320
f 74/72/319 75/72/319 639/72/319
f 75/72/318 76/72/318 640/72/318
f 76/72/317 65/72/317 629/72/317
f 642/73/332 644/76/332 643/74/332
f 644/76/333 646/78/333 645/77/333
f 646/78/334 648/80/334 647/79/334
f 648/80/335 650/82/335 649/81/335
f 650/82/336 652/84/336 651/83/336
f 652/84/337 654/86/337 653/85/337
f 654/86/338 656/88/338 655/87/338
f 656/88/339 658/90/339 657/89/339
f 658/90/340 660/92/340 659/91/340
f 660/92/341 662/94/341 661/93/341
f 662/94/342 664/96/342 663/95/342
f 664/96/343 666/98/343 665/97/343
f 666/98/344 668/100/344 667/99/344
f 668/100/345 670/102/345 669/101/345
f 670/102/346 672/104/346 671/103/346
f 672/104/347 674/203/347 673/105/347
f 673/105/348 674/203/348 676/106/348
f 675/107/349 676/106/349 678/108/349
f 677/109/350 678/108/350 680/110/350
f 679/111/351 680/110/351 682/112/351
f 681/113/352 682/112/352 684/114/352
f 683/115/353 684/114/353 686/116/353
f 685/117/354 686/116/354 688/118/354
f 687/119/355 688/118/355 690/120/355
f 689/121/356 690/120/356 692/122/356
f 691/123/357 692/122/357 694/124/357
f 693/125/358 694/124/358 696/126/358
f 695/127/359 696/126/359 698/128/359
f 697/129/360 698/128/360 700/130/360
f 699/131/361 700/130/361 702/132/361
f 646/136/362 644/204/362 642/205/362
f 642/205/362 704/206/362 702/207/362
f 702/207/362 700/208/362 698/209/362
f 698/209/362 696/210/362 694/211/362
f 694/211/362 692/212/362 690/213/362
f 690/213/362 688/214/362 686/215/362
f 686/215/362 684/216/362 682/217/362
f 682/217/362 680/218/362 678/134/362
f 678/134/362 676/219/362 674/220/362
f 674/220/362 672/221/362 670/222/362
f 670/222/362 668/223/362 666/224/362
f 666/224/362 664/225/362 662/135/362
f 662/135/362 660/226/362 658/227/362
f 658/227/362 656/228/362 654/229/362
f 654/229/362 652/230/362 650/231/362
f 650/231/362 648/232/362 646/136/362
f 646/136/362 642/205/362 702/207/362
f 702/207/362 698/209/362 694/211/362
f 694/211/362 690/213/362 686/215/362
f 686/215/362 682/217/362 678/134/362
f 678/134/362 674/220/362 670/222/362
f 670/222/362 666/224/362 662/135/362
f 662/135/362 658/227/362 654/229/362
f 654/229/362 650/231/362 646/136/362
f 646/136/362 702/207/362 694/211/362
f 694/211/362 686/215/362 678/134/362
f 678/134/362 670/222/362 662/135/362
f 662/135/362 654/229/362 646/136/362
f 646/136/362 694/211/362 678/134/362
f 701/133/363 702/132/363 704/137/363
f 703/138/364 704/137/364 642/139/364
f 703/143/365 641/233/365 643/234/365
f 643/234/365 645/235/365 647/236/365
f 647/236/365 649/237/365 651/238/365
f 651/238/365 653/239/365 655/240/365
f 655/240/365 657/241/365 659/242/365
f 659/242/365 661/243/365 663/244/365
f 663/244/365 665/245/365 667/246/365
f 667/246/365 669/247/365 671/141/365
f 671/141/365 673/248/365 675/249/365
f 675/249/365 677/250/365 679/251/365
f 679/251/365 681/252/365 683/253/365
f 683/253/370 685/254/370 687/142/370
f 687/142/370 689/255/370 691/256/370
f 691/256/370 693/257/370 695/258/370
f 695/258/365 697/259/365 699/260/365
f 699/260/365 701/261/365 703/143/365
f 703/143/365 643/234/365 647/236/365
f 647/236/365 651/238/365 655/240/365
f 655/240/365 659/242/365 663/244/365
f 663/244/365 667/246/365 671/141/365
f 671/141/365 675/249/365 679/251/365
f 679/251/365 683/253/365 687/142/365
f 687/142/365 691/256/365 695/258/365
f 695/258/365 699/260/365 703/143/365
f 703/143/365 647/236/365 655/240/365
f 655/240/365 663/244/365 671/141/365
f 671/141/365 679/251/365 687/142/365
f 687/142/365 695/258/365 703/143/365
f 703/143/365 655/240/365 671/141/365
