# Blender 4.1.1
# www.blender.org
mtllib gaol.mtl
o オブジェクト
v -0.817535 0.863942 -0.077944
v -0.728535 0.863942 -0.077944
v -0.728535 0.000000 0.000000
v -0.817535 0.000000 0.000000
v -0.647535 0.101342 -0.009143
v -0.642581 0.096752 -0.008729
v -0.637734 0.092492 -0.008345
v -0.633019 0.088575 -0.007991
v -0.628461 0.085015 -0.007670
v -0.624083 0.081824 -0.007382
v -0.619910 0.079015 -0.007129
v -0.615966 0.076603 -0.006911
v -0.612276 0.074599 -0.006730
v -0.608863 0.073018 -0.006588
v -0.605753 0.071872 -0.006484
v -0.602969 0.071175 -0.006421
v -0.600535 0.070940 -0.006400
v -0.597890 0.071102 -0.006415
v -0.595457 0.071602 -0.006460
v -0.593238 0.072464 -0.006538
v -0.591239 0.073708 -0.006650
v -0.589462 0.075356 -0.006799
v -0.587910 0.077432 -0.006986
v -0.586588 0.079956 -0.007214
v -0.585498 0.082950 -0.007484
v -0.584645 0.086438 -0.007798
v -0.584031 0.090440 -0.008159
v -0.583660 0.094978 -0.008569
v -0.583535 0.100075 -0.009029
v -0.583535 0.392701 -0.035429
v -0.582066 0.423533 -0.038211
v -0.577780 0.451454 -0.040730
v -0.570863 0.476506 -0.042990
v -0.561498 0.498735 -0.044995
v -0.549869 0.518184 -0.046750
v -0.536160 0.534897 -0.048258
v -0.520555 0.548918 -0.049523
v -0.503239 0.560291 -0.050549
v -0.484394 0.569060 -0.051340
v -0.464206 0.575270 -0.051900
v -0.442858 0.578963 -0.052234
v -0.420535 0.580184 -0.052344
v -0.404617 0.579656 -0.052296
v -0.389359 0.578067 -0.052153
v -0.374754 0.575414 -0.051913
v -0.360795 0.571692 -0.051578
v -0.347474 0.566897 -0.051145
v -0.334785 0.561024 -0.050615
v -0.322722 0.554069 -0.049988
v -0.311276 0.546028 -0.049262
v -0.300442 0.536896 -0.048438
v -0.290211 0.526669 -0.047516
v -0.280578 0.515342 -0.046494
v -0.271535 0.502911 -0.045372
v -0.271535 0.380033 -0.034286
v -0.282426 0.395449 -0.035677
v -0.293581 0.409410 -0.036937
v -0.304973 0.421936 -0.038067
v -0.316572 0.433050 -0.039069
v -0.328352 0.442775 -0.039947
v -0.340285 0.451131 -0.040701
v -0.352343 0.458142 -0.041333
v -0.364498 0.463828 -0.041846
v -0.376723 0.468213 -0.042242
v -0.388989 0.471318 -0.042522
v -0.401269 0.473164 -0.042689
v -0.413535 0.473775 -0.042744
v -0.426473 0.473161 -0.042688
v -0.438285 0.471288 -0.042519
v -0.448973 0.468114 -0.042233
v -0.458535 0.463594 -0.041825
v -0.466973 0.457684 -0.041292
v -0.474285 0.450339 -0.040629
v -0.480473 0.441518 -0.039833
v -0.485535 0.431174 -0.038900
v -0.489473 0.419264 -0.037826
v -0.492285 0.405744 -0.036606
v -0.493973 0.390571 -0.035237
v -0.494535 0.373699 -0.033715
v -0.494535 0.343297 -0.030972
v -0.415535 0.307827 -0.027772
v -0.397400 0.299522 -0.027023
v -0.379202 0.290896 -0.026244
v -0.361254 0.281680 -0.025413
v -0.343869 0.271607 -0.024504
v -0.327358 0.260407 -0.023494
v -0.312035 0.247813 -0.022358
v -0.298212 0.233557 -0.021071
v -0.286202 0.217370 -0.019611
v -0.276317 0.198983 -0.017952
v -0.268869 0.178129 -0.016071
v -0.264171 0.154539 -0.013942
v -0.262535 0.127945 -0.011543
v -0.263439 0.109768 -0.009903
v -0.266100 0.092111 -0.008310
v -0.270442 0.075175 -0.006782
v -0.276387 0.059163 -0.005338
v -0.283860 0.044277 -0.003995
v -0.292785 0.030719 -0.002771
v -0.303085 0.018692 -0.001686
v -0.314683 0.008398 -0.000758
v -0.327504 0.000040 -0.000004
v -0.341470 -0.006181 0.000558
v -0.356506 -0.010062 0.000908
v -0.372535 -0.011401 0.001029
v -0.382784 -0.011004 0.000993
v -0.393026 -0.009812 0.000885
v -0.403254 -0.007818 0.000705
v -0.413461 -0.005020 0.000453
v -0.423641 -0.001413 0.000127
v -0.433785 0.003009 -0.000271
v -0.443888 0.008248 -0.000744
v -0.453943 0.014310 -0.001291
v -0.463941 0.021199 -0.001913
v -0.473878 0.028919 -0.002609
v -0.483745 0.037475 -0.003381
v -0.493535 0.046871 -0.004229
v -0.495809 0.037209 -0.003357
v -0.498642 0.028479 -0.002569
v -0.502051 0.020664 -0.001864
v -0.506054 0.013747 -0.001240
v -0.510668 0.007709 -0.000696
v -0.515910 0.002534 -0.000229
v -0.521798 -0.001798 0.000162
v -0.528350 -0.005302 0.000478
v -0.535582 -0.007997 0.000721
v -0.543512 -0.009900 0.000893
v -0.552157 -0.011029 0.000995
v -0.561535 -0.011401 0.001029
v -0.568326 -0.011182 0.001009
v -0.574781 -0.010492 0.000947
v -0.581020 -0.009283 0.000838
v -0.587165 -0.007507 0.000677
v -0.593338 -0.005115 0.000461
v -0.599660 -0.002059 0.000186
v -0.606253 0.001710 -0.000154
v -0.613239 0.006240 -0.000563
v -0.620738 0.011579 -0.001045
v -0.628873 0.017776 -0.001604
v -0.637765 0.024879 -0.002245
v -0.647535 0.032936 -0.002971
v -0.494535 0.115277 -0.010400
v -0.488494 0.108234 -0.009765
v -0.482369 0.101688 -0.009174
v -0.476160 0.095662 -0.008631
v -0.469869 0.090176 -0.008136
v -0.463494 0.085253 -0.007691
v -0.457035 0.080915 -0.007300
v -0.450494 0.077185 -0.006964
v -0.443869 0.074083 -0.006684
v -0.437161 0.071632 -0.006463
v -0.430369 0.069855 -0.006302
v -0.423494 0.068772 -0.006205
v -0.416535 0.068406 -0.006172
v -0.407503 0.069081 -0.006232
v -0.398947 0.071063 -0.006411
v -0.390926 0.074285 -0.006702
v -0.383498 0.078681 -0.007099
v -0.376723 0.084186 -0.007595
v -0.370660 0.090733 -0.008186
v -0.365368 0.098257 -0.008865
v -0.360905 0.106691 -0.009626
v -0.357332 0.115970 -0.010463
v -0.354706 0.126027 -0.011370
v -0.353088 0.136797 -0.012342
v -0.352535 0.148213 -0.013372
v -0.353878 0.164305 -0.014823
v -0.357776 0.179091 -0.016157
v -0.364035 0.192689 -0.017384
v -0.372461 0.205218 -0.018515
v -0.382859 0.216797 -0.019559
v -0.395035 0.227545 -0.020529
v -0.408794 0.237580 -0.021434
v -0.423943 0.247022 -0.022286
v -0.440285 0.255988 -0.023095
v -0.457628 0.264598 -0.023872
v -0.475776 0.272971 -0.024627
v -0.494535 0.281225 -0.025372
v 0.042465 0.580184 -0.052344
v 0.075277 0.577597 -0.052110
v 0.106548 0.570044 -0.051429
v 0.136027 0.557837 -0.050328
v 0.163465 0.541290 -0.048835
v 0.188611 0.520712 -0.046978
v 0.211215 0.496419 -0.044787
v 0.231027 0.468720 -0.042288
v 0.247798 0.437930 -0.039510
v 0.261277 0.404359 -0.036481
v 0.271215 0.368322 -0.033230
v 0.277361 0.330128 -0.029784
v 0.279465 0.290092 -0.026172
v 0.277437 0.247437 -0.022324
v 0.271493 0.207059 -0.018681
v 0.261840 0.169234 -0.015268
v 0.248687 0.134231 -0.012110
v 0.232243 0.102326 -0.009232
v 0.212715 0.073790 -0.006657
v 0.190312 0.048896 -0.004411
v 0.165243 0.027916 -0.002519
v 0.137715 0.011124 -0.001004
v 0.107937 -0.001208 0.000109
v 0.076118 -0.008807 0.000795
v 0.042465 -0.011401 0.001029
v 0.007434 -0.008904 0.000803
v -0.025535 -0.001560 0.000141
v -0.056254 0.010411 -0.000939
v -0.084535 0.026790 -0.002417
v -0.110191 0.047356 -0.004272
v -0.133035 0.071890 -0.006486
v -0.152879 0.100171 -0.009037
v -0.169535 0.131979 -0.011907
v -0.182816 0.167096 -0.015075
v -0.192535 0.205300 -0.018522
v -0.198504 0.246372 -0.022228
v -0.200535 0.290092 -0.026172
v -0.198447 0.331193 -0.029880
v -0.192327 0.370081 -0.033388
v -0.182395 0.406497 -0.036674
v -0.168868 0.440182 -0.039713
v -0.151967 0.470876 -0.042482
v -0.131910 0.498319 -0.044958
v -0.108915 0.522252 -0.047117
v -0.083202 0.542416 -0.048936
v -0.054988 0.558550 -0.050392
v -0.024493 0.570396 -0.051461
v 0.008064 0.577694 -0.052119
v 0.043465 0.478842 -0.043201
v 0.021758 0.477208 -0.043053
v 0.001229 0.472420 -0.042621
v -0.017988 0.464650 -0.041920
v -0.035757 0.454069 -0.040966
v -0.051943 0.440850 -0.039773
v -0.066410 0.425162 -0.038358
v -0.079023 0.407179 -0.036735
v -0.089646 0.387071 -0.034921
v -0.098145 0.365010 -0.032931
v -0.104382 0.341168 -0.030780
v -0.108224 0.315716 -0.028484
v -0.109535 0.288825 -0.026058
v -0.108320 0.259099 -0.023376
v -0.104730 0.231427 -0.020879
v -0.098848 0.205911 -0.018577
v -0.090757 0.182651 -0.016479
v -0.080542 0.161748 -0.014593
v -0.068285 0.143304 -0.012929
v -0.054070 0.127420 -0.011496
v -0.037980 0.114198 -0.010303
v -0.020098 0.103737 -0.009359
v -0.000507 0.096140 -0.008674
v 0.020708 0.091508 -0.008256
v 0.043465 0.089941 -0.008114
v 0.064384 0.091581 -0.008262
v 0.084067 0.096410 -0.008698
v 0.102402 0.104291 -0.009409
v 0.119280 0.115089 -0.010383
v 0.134588 0.128667 -0.011608
v 0.148215 0.144888 -0.013072
v 0.160051 0.163616 -0.014761
v 0.169983 0.184715 -0.016665
v 0.177902 0.208048 -0.018770
v 0.183696 0.233480 -0.021064
v 0.187254 0.260873 -0.023536
v 0.188465 0.290092 -0.026172
v 0.187216 0.316691 -0.028572
v 0.183557 0.341901 -0.030846
v 0.177621 0.365545 -0.032979
v 0.169539 0.387446 -0.034955
v 0.159443 0.407430 -0.036758
v 0.147465 0.425321 -0.038372
v 0.133737 0.440941 -0.039781
v 0.118391 0.454116 -0.040970
v 0.101559 0.464670 -0.041922
v 0.083372 0.472426 -0.042622
v 0.063964 0.477209 -0.043053
v 0.382465 0.425637 -0.038401
v 0.611465 0.425637 -0.038401
v 0.611465 0.314161 -0.028343
v 0.480465 0.314161 -0.028343
v 0.480465 0.136812 -0.012343
v 0.492238 0.132147 -0.011922
v 0.504067 0.127681 -0.011519
v 0.515965 0.123451 -0.011138
v 0.527946 0.119499 -0.010781
v 0.540025 0.115864 -0.010453
v 0.552215 0.112585 -0.010157
v 0.564530 0.109702 -0.009897
v 0.576983 0.107254 -0.009676
v 0.589590 0.105281 -0.009498
v 0.602363 0.103823 -0.009367
v 0.615317 0.102919 -0.009285
v 0.628465 0.102609 -0.009257
v 0.667927 0.105387 -0.009508
v 0.705159 0.113541 -0.010244
v 0.739934 0.126797 -0.011439
v 0.772020 0.144882 -0.013071
v 0.801191 0.167524 -0.015114
v 0.827215 0.194450 -0.017543
v 0.849864 0.225388 -0.020334
v 0.868909 0.260065 -0.023463
v 0.884121 0.298207 -0.026904
v 0.895270 0.339543 -0.030633
v 0.902128 0.383800 -0.034626
v 0.904465 0.430704 -0.038858
v 0.902116 0.476594 -0.042998
v 0.895261 0.520294 -0.046941
v 0.884184 0.561460 -0.050654
v 0.869169 0.599749 -0.054109
v 0.850501 0.634818 -0.057273
v 0.828465 0.666325 -0.060115
v 0.803346 0.693926 -0.062605
v 0.775428 0.717278 -0.064712
v 0.744996 0.736037 -0.066405
v 0.712335 0.749862 -0.067652
v 0.677730 0.758408 -0.068423
v 0.641465 0.761333 -0.068687
v 0.620946 0.760728 -0.068632
v 0.600400 0.758917 -0.068469
v 0.579840 0.755910 -0.068198
v 0.559280 0.751715 -0.067819
v 0.538733 0.746342 -0.067334
v 0.518215 0.739798 -0.066744
v 0.497738 0.732093 -0.066049
v 0.477317 0.723236 -0.065250
v 0.456965 0.713235 -0.064348
v 0.436696 0.702100 -0.063343
v 0.416525 0.689838 -0.062237
v 0.396465 0.676459 -0.061030
v 0.396465 0.801870 -0.072344
v 0.422196 0.815291 -0.073555
v 0.446062 0.827106 -0.074621
v 0.468324 0.837399 -0.075550
v 0.489243 0.846254 -0.076348
v 0.509078 0.853755 -0.077025
v 0.528090 0.859984 -0.077587
v 0.546539 0.865025 -0.078042
v 0.564687 0.868963 -0.078397
v 0.582793 0.871880 -0.078660
v 0.601118 0.873860 -0.078839
v 0.619921 0.874986 -0.078941
v 0.639465 0.875343 -0.078973
v 0.690361 0.871383 -0.078615
v 0.738798 0.859808 -0.077571
v 0.784402 0.841081 -0.075882
v 0.826798 0.815664 -0.073589
v 0.865611 0.784019 -0.070734
v 0.900465 0.746607 -0.067358
v 0.930986 0.703891 -0.063504
v 0.956798 0.656332 -0.059214
v 0.977527 0.604392 -0.054528
v 0.992798 0.548532 -0.049488
v 1.002236 0.489216 -0.044137
v 1.005465 0.426904 -0.038515
v 1.002314 0.365058 -0.032935
v 0.993090 0.306466 -0.027649
v 0.978137 0.251535 -0.022693
v 0.957798 0.200667 -0.018104
v 0.932418 0.154268 -0.013918
v 0.902340 0.112743 -0.010172
v 0.867908 0.076496 -0.006901
v 0.829465 0.045933 -0.004144
v 0.787355 0.021456 -0.001936
v 0.741923 0.003472 -0.000313
v 0.693512 -0.007615 0.000687
v 0.642465 -0.011401 0.001029
v 0.619130 -0.010973 0.000990
v 0.596539 -0.009665 0.000872
v 0.574559 -0.007442 0.000671
v 0.553057 -0.004270 0.000385
v 0.531904 -0.000111 0.000010
v 0.510965 0.005067 -0.000457
v 0.490110 0.011301 -0.001020
v 0.469206 0.018626 -0.001680
v 0.448121 0.027077 -0.002443
v 0.426724 0.036690 -0.003310
v 0.404883 0.047498 -0.004285
v 0.382465 0.059539 -0.005372
vn -0.0000 -0.0899 -0.9960
vt 0.666667 0.000000
vt 0.000000 0.000000
vt 0.333333 0.000000
vt 1.000000 0.000000
vt 0.219653 0.000000
vt 0.208092 0.000000
vt 0.213873 0.000000
vt 0.225434 0.000000
vt 0.202312 0.000000
vt 0.231214 0.000000
vt 0.236994 0.000000
vt 0.196532 0.000000
vt 0.242775 0.000000
vt 0.190751 0.000000
vt 0.248555 0.000000
vt 0.254335 0.000000
vt 0.184971 0.000000
vt 0.260116 0.000000
vt 0.179191 0.000000
vt 0.265896 0.000000
vt 0.271676 0.000000
vt 0.173410 0.000000
vt 0.277457 0.000000
vt 0.167630 0.000000
vt 0.283237 0.000000
vt 0.289017 0.000000
vt 0.294798 0.000000
vt 0.300578 0.000000
vt 0.306358 0.000000
vt 0.312139 0.000000
vt 0.317919 0.000000
vt 0.323699 0.000000
vt 0.329480 0.000000
vt 0.335260 0.000000
vt 0.341040 0.000000
vt 0.346821 0.000000
vt 0.352601 0.000000
vt 0.358382 0.000000
vt 0.161850 0.000000
vt 0.364162 0.000000
vt 0.156069 0.000000
vt 0.369942 0.000000
vt 0.375723 0.000000
vt 0.381503 0.000000
vt 0.387283 0.000000
vt 0.393064 0.000000
vt 0.150289 0.000000
vt 0.398844 0.000000
vt 0.404624 0.000000
vt 0.410405 0.000000
vt 0.144509 0.000000
vt 0.416185 0.000000
vt 0.421965 0.000000
vt 0.138728 0.000000
vt 0.427746 0.000000
vt 0.433526 0.000000
vt 0.439306 0.000000
vt 0.445087 0.000000
vt 0.450867 0.000000
vt 0.456647 0.000000
vt 0.462428 0.000000
vt 0.994220 0.000000
vt 0.791907 0.000000
vt 0.988439 0.000000
vt 0.468208 0.000000
vt 0.982659 0.000000
vt 0.473988 0.000000
vt 0.976879 0.000000
vt 0.479769 0.000000
vt 0.971098 0.000000
vt 0.965318 0.000000
vt 0.485549 0.000000
vt 0.959538 0.000000
vt 0.491329 0.000000
vt 0.953757 0.000000
vt 0.947977 0.000000
vt 0.497110 0.000000
vt 0.942197 0.000000
vt 0.936416 0.000000
vt 0.502890 0.000000
vt 0.930636 0.000000
vt 0.508671 0.000000
vt 0.924855 0.000000
vt 0.919075 0.000000
vt 0.514451 0.000000
vt 0.913295 0.000000
vt 0.907514 0.000000
vt 0.797688 0.000000
vt 0.520231 0.000000
vt 0.803468 0.000000
vt 0.901734 0.000000
vt 0.809249 0.000000
vt 0.005780 0.000000
vt 0.786127 0.000000
vt 0.132948 0.000000
vt 0.895954 0.000000
vt 0.011561 0.000000
vt 0.815029 0.000000
vt 0.127168 0.000000
vt 0.017341 0.000000
vt 0.526012 0.000000
vt 0.890173 0.000000
vt 0.121387 0.000000
vt 0.820809 0.000000
vt 0.023121 0.000000
vt 0.115607 0.000000
vt 0.826590 0.000000
vt 0.028902 0.000000
vt 0.884393 0.000000
vt 0.109827 0.000000
vt 0.034682 0.000000
vt 0.832370 0.000000
vt 0.104046 0.000000
vt 0.040462 0.000000
vt 0.878613 0.000000
vt 0.098266 0.000000
vt 0.838150 0.000000
vt 0.046243 0.000000
vt 0.092486 0.000000
vt 0.531792 0.000000
vt 0.052023 0.000000
vt 0.872832 0.000000
vt 0.843931 0.000000
vt 0.086705 0.000000
vt 0.057803 0.000000
vt 0.080925 0.000000
vt 0.063584 0.000000
vt 0.849711 0.000000
vt 0.075145 0.000000
vt 0.069364 0.000000
vt 0.867052 0.000000
vt 0.855491 0.000000
vt 0.861272 0.000000
vt 0.647399 0.000000
vt 0.537572 0.000000
vt 0.641618 0.000000
vt 0.653179 0.000000
vt 0.543353 0.000000
vt 0.635838 0.000000
vt 0.658960 0.000000
vt 0.780347 0.000000
vt 0.549133 0.000000
vt 0.630058 0.000000
vt 0.664740 0.000000
vt 0.774566 0.000000
vt 0.624277 0.000000
vt 0.670520 0.000000
vt 0.554913 0.000000
vt 0.768786 0.000000
vt 0.618497 0.000000
vt 0.676301 0.000000
vt 0.763006 0.000000
vt 0.560694 0.000000
vt 0.612717 0.000000
vt 0.682081 0.000000
vt 0.757225 0.000000
vt 0.606936 0.000000
vt 0.687861 0.000000
vt 0.751445 0.000000
vt 0.566474 0.000000
vt 0.601156 0.000000
vt 0.693642 0.000000
vt 0.745665 0.000000
vt 0.595376 0.000000
vt 0.739884 0.000000
vt 0.699422 0.000000
vt 0.572254 0.000000
vt 0.734104 0.000000
vt 0.589595 0.000000
vt 0.705202 0.000000
vt 0.728324 0.000000
vt 0.583815 0.000000
vt 0.710983 0.000000
vt 0.578035 0.000000
vt 0.722543 0.000000
vt 0.716763 0.000000
vt 0.010526 0.000000
vt 0.494737 0.000000
vt 0.484211 0.000000
vt 0.021053 0.000000
vt 0.473684 0.000000
vt 0.031579 0.000000
vt 0.463158 0.000000
vt 0.042105 0.000000
vt 0.452632 0.000000
vt 0.052632 0.000000
vt 0.442105 0.000000
vt 0.063158 0.000000
vt 0.431579 0.000000
vt 0.073684 0.000000
vt 0.505263 0.000000
vt 0.515789 0.000000
vt 0.989474 0.000000
vt 0.526316 0.000000
vt 0.978947 0.000000
vt 0.536842 0.000000
vt 0.421053 0.000000
vt 0.084211 0.000000
vt 0.968421 0.000000
vt 0.547368 0.000000
vt 0.957895 0.000000
vt 0.557895 0.000000
vt 0.947368 0.000000
vt 0.568421 0.000000
vt 0.410526 0.000000
vt 0.094737 0.000000
vt 0.936842 0.000000
vt 0.578947 0.000000
vt 0.926316 0.000000
vt 0.589474 0.000000
vt 0.400000 0.000000
vt 0.105263 0.000000
vt 0.915789 0.000000
vt 0.600000 0.000000
vt 0.389474 0.000000
vt 0.115789 0.000000
vt 0.905263 0.000000
vt 0.610526 0.000000
vt 0.894737 0.000000
vt 0.621053 0.000000
vt 0.378947 0.000000
vt 0.126316 0.000000
vt 0.884211 0.000000
vt 0.631579 0.000000
vt 0.136842 0.000000
vt 0.873684 0.000000
vt 0.368421 0.000000
vt 0.642105 0.000000
vt 0.863158 0.000000
vt 0.652632 0.000000
vt 0.147368 0.000000
vt 0.357895 0.000000
vt 0.852632 0.000000
vt 0.663158 0.000000
vt 0.842105 0.000000
vt 0.157895 0.000000
vt 0.673684 0.000000
vt 0.347368 0.000000
vt 0.831579 0.000000
vt 0.684211 0.000000
vt 0.168421 0.000000
vt 0.336842 0.000000
vt 0.821053 0.000000
vt 0.694737 0.000000
vt 0.810526 0.000000
vt 0.705263 0.000000
vt 0.178947 0.000000
vt 0.326316 0.000000
vt 0.800000 0.000000
vt 0.715789 0.000000
vt 0.789474 0.000000
vt 0.726316 0.000000
vt 0.778947 0.000000
vt 0.736842 0.000000
vt 0.189474 0.000000
vt 0.315789 0.000000
vt 0.768421 0.000000
vt 0.747368 0.000000
vt 0.757895 0.000000
vt 0.200000 0.000000
vt 0.305263 0.000000
vt 0.210526 0.000000
vt 0.294737 0.000000
vt 0.221053 0.000000
vt 0.284211 0.000000
vt 0.231579 0.000000
vt 0.273684 0.000000
vt 0.242105 0.000000
vt 0.263158 0.000000
vt 0.252632 0.000000
vt 0.653465 0.000000
vt 0.633663 0.000000
vt 0.643564 0.000000
vt 0.623762 0.000000
vt 0.613861 0.000000
vt 0.603960 0.000000
vt 0.663366 0.000000
vt 0.594059 0.000000
vt 0.584158 0.000000
vt 0.574257 0.000000
vt 0.673267 0.000000
vt 0.564356 0.000000
vt 0.554455 0.000000
vt 0.683168 0.000000
vt 0.544554 0.000000
vt 0.534653 0.000000
vt 0.693069 0.000000
vt 0.524752 0.000000
vt 0.415842 0.000000
vt 0.425743 0.000000
vt 0.435644 0.000000
vt 0.445545 0.000000
vt 0.455446 0.000000
vt 0.465347 0.000000
vt 0.475248 0.000000
vt 0.485149 0.000000
vt 0.495050 0.000000
vt 0.504951 0.000000
vt 0.514852 0.000000
vt 0.702970 0.000000
vt 0.396040 0.000000
vt 0.405941 0.000000
vt 0.386139 0.000000
vt 0.376238 0.000000
vt 0.366337 0.000000
vt 0.712871 0.000000
vt 0.356436 0.000000
vt 0.346535 0.000000
vt 0.722772 0.000000
vt 0.336634 0.000000
vt 0.326733 0.000000
vt 0.732673 0.000000
vt 0.316832 0.000000
vt 0.742574 0.000000
vt 0.306931 0.000000
vt 0.297030 0.000000
vt 0.752475 0.000000
vt 0.287129 0.000000
vt 0.762376 0.000000
vt 0.277228 0.000000
vt 0.267327 0.000000
vt 0.772277 0.000000
vt 0.019802 0.000000
vt 0.009901 0.000000
vt 0.029703 0.000000
vt 0.257426 0.000000
vt 0.782178 0.000000
vt 0.247525 0.000000
vt 0.039604 0.000000
vt 0.792079 0.000000
vt 0.237624 0.000000
vt 0.227723 0.000000
vt 0.801980 0.000000
vt 0.217822 0.000000
vt 0.811881 0.000000
vt 0.207921 0.000000
vt 0.198020 0.000000
vt 0.821782 0.000000
vt 0.188119 0.000000
vt 0.049505 0.000000
vt 0.059406 0.000000
vt 0.069307 0.000000
vt 0.178218 0.000000
vt 0.079208 0.000000
vt 0.089109 0.000000
vt 0.099010 0.000000
vt 0.168317 0.000000
vt 0.831683 0.000000
vt 0.108911 0.000000
vt 0.118812 0.000000
vt 0.128713 0.000000
vt 0.158416 0.000000
vt 0.138614 0.000000
vt 0.148515 0.000000
vt 0.841584 0.000000
vt 0.990099 0.000000
vt 0.980198 0.000000
vt 0.851485 0.000000
vt 0.970297 0.000000
vt 0.960396 0.000000
vt 0.861386 0.000000
vt 0.950495 0.000000
vt 0.940594 0.000000
vt 0.930693 0.000000
vt 0.871287 0.000000
vt 0.920792 0.000000
vt 0.910891 0.000000
vt 0.900990 0.000000
vt 0.881188 0.000000
vt 0.891089 0.000000
s 0
f 3/1/1 1/2/1 2/3/1
f 3/1/1 4/4/1 1/2/1
f 43/5/1 41/6/1 42/7/1
f 44/8/1 41/6/1 43/5/1
f 44/8/1 40/9/1 41/6/1
f 45/10/1 40/9/1 44/8/1
f 46/11/1 40/9/1 45/10/1
f 46/11/1 39/12/1 40/9/1
f 47/13/1 39/12/1 46/11/1
f 47/13/1 38/14/1 39/12/1
f 48/15/1 38/14/1 47/13/1
f 49/16/1 38/14/1 48/15/1
f 49/16/1 37/17/1 38/14/1
f 50/18/1 37/17/1 49/16/1
f 50/18/1 36/19/1 37/17/1
f 51/20/1 36/19/1 50/18/1
f 52/21/1 36/19/1 51/20/1
f 52/21/1 35/22/1 36/19/1
f 53/23/1 35/22/1 52/21/1
f 53/23/1 34/24/1 35/22/1
f 54/25/1 34/24/1 53/23/1
f 55/26/1 56/27/1 54/25/1
f 56/27/1 57/28/1 54/25/1
f 57/28/1 58/29/1 54/25/1
f 58/29/1 59/30/1 54/25/1
f 59/30/1 60/31/1 54/25/1
f 60/31/1 61/32/1 54/25/1
f 61/32/1 62/33/1 54/25/1
f 62/33/1 63/34/1 54/25/1
f 63/34/1 64/35/1 54/25/1
f 64/35/1 65/36/1 54/25/1
f 65/36/1 34/24/1 54/25/1
f 65/36/1 66/37/1 34/24/1
f 66/37/1 67/38/1 34/24/1
f 67/38/1 33/39/1 34/24/1
f 67/38/1 68/40/1 33/39/1
f 68/40/1 32/41/1 33/39/1
f 69/42/1 32/41/1 68/40/1
f 70/43/1 32/41/1 69/42/1
f 71/44/1 32/41/1 70/43/1
f 72/45/1 32/41/1 71/44/1
f 73/46/1 32/41/1 72/45/1
f 73/46/1 31/47/1 32/41/1
f 74/48/1 31/47/1 73/46/1
f 75/49/1 31/47/1 74/48/1
f 76/50/1 31/47/1 75/49/1
f 76/50/1 30/51/1 31/47/1
f 77/52/1 30/51/1 76/50/1
f 78/53/1 30/51/1 77/52/1
f 78/53/1 29/54/1 30/51/1
f 79/55/1 29/54/1 78/53/1
f 80/56/1 29/54/1 79/55/1
f 81/57/1 178/4/1 80/56/1
f 178/4/1 29/54/1 80/56/1
f 82/58/1 178/4/1 81/57/1
f 83/59/1 178/4/1 82/58/1
f 84/60/1 178/4/1 83/59/1
f 85/61/1 178/4/1 84/60/1
f 85/61/1 177/62/1 178/4/1
f 142/63/1 29/54/1 178/4/1
f 85/61/1 176/64/1 177/62/1
f 86/65/1 176/64/1 85/61/1
f 86/65/1 175/66/1 176/64/1
f 87/67/1 175/66/1 86/65/1
f 87/67/1 174/68/1 175/66/1
f 88/69/1 174/68/1 87/67/1
f 88/69/1 173/70/1 174/68/1
f 88/69/1 172/71/1 173/70/1
f 89/72/1 172/71/1 88/69/1
f 89/72/1 171/73/1 172/71/1
f 90/74/1 171/73/1 89/72/1
f 90/74/1 170/75/1 171/73/1
f 90/74/1 169/76/1 170/75/1
f 91/77/1 169/76/1 90/74/1
f 91/77/1 168/78/1 169/76/1
f 91/77/1 167/79/1 168/78/1
f 92/80/1 167/79/1 91/77/1
f 92/80/1 166/81/1 167/79/1
f 93/82/1 166/81/1 92/80/1
f 93/82/1 165/83/1 166/81/1
f 93/82/1 164/84/1 165/83/1
f 94/85/1 164/84/1 93/82/1
f 94/85/1 163/86/1 164/84/1
f 94/85/1 162/87/1 163/86/1
f 143/88/1 29/54/1 142/63/1
f 95/89/1 162/87/1 94/85/1
f 144/90/1 29/54/1 143/88/1
f 95/89/1 161/91/1 162/87/1
f 145/92/1 29/54/1 144/90/1
f 6/93/1 141/94/1 5/2/1
f 145/92/1 28/95/1 29/54/1
f 95/89/1 160/96/1 161/91/1
f 7/97/1 141/94/1 6/93/1
f 146/98/1 28/95/1 145/92/1
f 146/98/1 27/99/1 28/95/1
f 8/100/1 141/94/1 7/97/1
f 96/101/1 160/96/1 95/89/1
f 96/101/1 159/102/1 160/96/1
f 146/98/1 26/103/1 27/99/1
f 147/104/1 26/103/1 146/98/1
f 9/105/1 141/94/1 8/100/1
f 147/104/1 25/106/1 26/103/1
f 148/107/1 25/106/1 147/104/1
f 10/108/1 141/94/1 9/105/1
f 96/101/1 158/109/1 159/102/1
f 148/107/1 24/110/1 25/106/1
f 11/111/1 141/94/1 10/108/1
f 149/112/1 24/110/1 148/107/1
f 149/112/1 23/113/1 24/110/1
f 12/114/1 141/94/1 11/111/1
f 96/101/1 157/115/1 158/109/1
f 149/112/1 22/116/1 23/113/1
f 150/117/1 22/116/1 149/112/1
f 13/118/1 141/94/1 12/114/1
f 150/117/1 21/119/1 22/116/1
f 97/120/1 157/115/1 96/101/1
f 14/121/1 141/94/1 13/118/1
f 97/120/1 156/122/1 157/115/1
f 151/123/1 21/119/1 150/117/1
f 151/123/1 20/124/1 21/119/1
f 15/125/1 141/94/1 14/121/1
f 151/123/1 19/126/1 20/124/1
f 16/127/1 141/94/1 15/125/1
f 152/128/1 19/126/1 151/123/1
f 152/128/1 18/129/1 19/126/1
f 17/130/1 141/94/1 16/127/1
f 152/128/1 17/130/1 18/129/1
f 97/120/1 155/131/1 156/122/1
f 152/128/1 141/94/1 17/130/1
f 153/132/1 141/94/1 152/128/1
f 97/120/1 154/133/1 155/131/1
f 154/133/1 141/94/1 153/132/1
f 97/120/1 117/134/1 154/133/1
f 117/134/1 141/94/1 154/133/1
f 98/135/1 117/134/1 97/120/1
f 98/135/1 116/136/1 117/134/1
f 118/137/1 141/94/1 117/134/1
f 99/138/1 116/136/1 98/135/1
f 99/138/1 115/139/1 116/136/1
f 119/140/1 141/94/1 118/137/1
f 119/140/1 140/141/1 141/94/1
f 100/142/1 115/139/1 99/138/1
f 100/142/1 114/143/1 115/139/1
f 120/144/1 140/141/1 119/140/1
f 120/144/1 139/145/1 140/141/1
f 100/142/1 113/146/1 114/143/1
f 121/147/1 139/145/1 120/144/1
f 101/148/1 113/146/1 100/142/1
f 121/147/1 138/149/1 139/145/1
f 101/148/1 112/150/1 113/146/1
f 122/151/1 138/149/1 121/147/1
f 122/151/1 137/152/1 138/149/1
f 102/153/1 112/150/1 101/148/1
f 102/153/1 111/154/1 112/150/1
f 123/155/1 137/152/1 122/151/1
f 123/155/1 136/156/1 137/152/1
f 102/153/1 110/157/1 111/154/1
f 124/158/1 136/156/1 123/155/1
f 124/158/1 135/159/1 136/156/1
f 103/160/1 110/157/1 102/153/1
f 103/160/1 109/161/1 110/157/1
f 125/162/1 135/159/1 124/158/1
f 125/162/1 134/163/1 135/159/1
f 103/160/1 108/164/1 109/161/1
f 125/162/1 133/165/1 134/163/1
f 126/166/1 133/165/1 125/162/1
f 104/167/1 108/164/1 103/160/1
f 126/166/1 132/168/1 133/165/1
f 104/167/1 107/169/1 108/164/1
f 127/170/1 132/168/1 126/166/1
f 127/170/1 131/171/1 132/168/1
f 104/167/1 106/172/1 107/169/1
f 128/173/1 131/171/1 127/170/1
f 105/174/1 106/172/1 104/167/1
f 128/173/1 130/175/1 131/171/1
f 129/176/1 130/175/1 128/173/1
f 180/177/1 226/178/1 179/2/1
f 180/177/1 225/179/1 226/178/1
f 181/180/1 225/179/1 180/177/1
f 181/180/1 224/181/1 225/179/1
f 182/182/1 224/181/1 181/180/1
f 182/182/1 223/183/1 224/181/1
f 183/184/1 223/183/1 182/182/1
f 183/184/1 222/185/1 223/183/1
f 184/186/1 222/185/1 183/184/1
f 184/186/1 221/187/1 222/185/1
f 185/188/1 221/187/1 184/186/1
f 185/188/1 220/189/1 221/187/1
f 186/190/1 227/191/1 185/188/1
f 227/191/1 220/189/1 185/188/1
f 186/190/1 274/4/1 227/191/1
f 228/192/1 220/189/1 227/191/1
f 186/190/1 273/193/1 274/4/1
f 229/194/1 220/189/1 228/192/1
f 186/190/1 272/195/1 273/193/1
f 230/196/1 220/189/1 229/194/1
f 230/196/1 219/197/1 220/189/1
f 187/198/1 272/195/1 186/190/1
f 187/198/1 271/199/1 272/195/1
f 231/200/1 219/197/1 230/196/1
f 187/198/1 270/201/1 271/199/1
f 232/202/1 219/197/1 231/200/1
f 187/198/1 269/203/1 270/201/1
f 233/204/1 219/197/1 232/202/1
f 233/204/1 218/205/1 219/197/1
f 188/206/1 269/203/1 187/198/1
f 188/206/1 268/207/1 269/203/1
f 234/208/1 218/205/1 233/204/1
f 188/206/1 267/209/1 268/207/1
f 235/210/1 218/205/1 234/208/1
f 235/210/1 217/211/1 218/205/1
f 189/212/1 267/209/1 188/206/1
f 189/212/1 266/213/1 267/209/1
f 236/214/1 217/211/1 235/210/1
f 236/214/1 216/215/1 217/211/1
f 190/216/1 266/213/1 189/212/1
f 190/216/1 265/217/1 266/213/1
f 237/218/1 216/215/1 236/214/1
f 190/216/1 264/219/1 265/217/1
f 238/220/1 216/215/1 237/218/1
f 238/220/1 215/221/1 216/215/1
f 191/222/1 264/219/1 190/216/1
f 191/222/1 263/223/1 264/219/1
f 239/224/1 215/221/1 238/220/1
f 192/225/1 263/223/1 191/222/1
f 192/225/1 262/226/1 263/223/1
f 239/224/1 214/227/1 215/221/1
f 240/228/1 214/227/1 239/224/1
f 192/225/1 261/229/1 262/226/1
f 241/230/1 214/227/1 240/228/1
f 193/231/1 261/229/1 192/225/1
f 241/230/1 213/232/1 214/227/1
f 193/231/1 260/233/1 261/229/1
f 242/234/1 213/232/1 241/230/1
f 193/231/1 259/235/1 260/233/1
f 194/236/1 259/235/1 193/231/1
f 243/237/1 213/232/1 242/234/1
f 243/237/1 212/238/1 213/232/1
f 194/236/1 258/239/1 259/235/1
f 244/240/1 212/238/1 243/237/1
f 195/241/1 258/239/1 194/236/1
f 244/240/1 211/242/1 212/238/1
f 195/241/1 257/243/1 258/239/1
f 245/244/1 211/242/1 244/240/1
f 195/241/1 256/245/1 257/243/1
f 246/246/1 211/242/1 245/244/1
f 196/247/1 256/245/1 195/241/1
f 246/246/1 210/248/1 211/242/1
f 196/247/1 255/249/1 256/245/1
f 247/250/1 210/248/1 246/246/1
f 196/247/1 254/251/1 255/249/1
f 248/252/1 210/248/1 247/250/1
f 196/247/1 253/253/1 254/251/1
f 249/254/1 210/248/1 248/252/1
f 197/255/1 253/253/1 196/247/1
f 249/254/1 209/256/1 210/248/1
f 197/255/1 252/257/1 253/253/1
f 250/258/1 209/256/1 249/254/1
f 197/255/1 251/259/1 252/257/1
f 251/259/1 209/256/1 250/258/1
f 197/255/1 209/256/1 251/259/1
f 198/260/1 209/256/1 197/255/1
f 198/260/1 208/261/1 209/256/1
f 199/262/1 208/261/1 198/260/1
f 199/262/1 207/263/1 208/261/1
f 200/264/1 207/263/1 199/262/1
f 200/264/1 206/265/1 207/263/1
f 201/266/1 206/265/1 200/264/1
f 201/266/1 205/267/1 206/265/1
f 202/268/1 205/267/1 201/266/1
f 202/268/1 204/269/1 205/267/1
f 203/270/1 204/269/1 202/268/1
f 341/271/1 339/272/1 340/273/1
f 341/271/1 338/274/1 339/272/1
f 341/271/1 337/275/1 338/274/1
f 341/271/1 336/276/1 337/275/1
f 342/277/1 336/276/1 341/271/1
f 342/277/1 335/278/1 336/276/1
f 342/277/1 334/279/1 335/278/1
f 342/277/1 333/280/1 334/279/1
f 343/281/1 333/280/1 342/277/1
f 343/281/1 332/282/1 333/280/1
f 343/281/1 331/283/1 332/282/1
f 344/284/1 331/283/1 343/281/1
f 344/284/1 330/285/1 331/283/1
f 344/284/1 329/286/1 330/285/1
f 345/287/1 329/286/1 344/284/1
f 345/287/1 328/288/1 329/286/1
f 345/287/1 317/289/1 328/288/1
f 317/289/1 318/290/1 328/288/1
f 318/290/1 319/291/1 328/288/1
f 319/291/1 320/292/1 328/288/1
f 320/292/1 321/293/1 328/288/1
f 321/293/1 322/294/1 328/288/1
f 322/294/1 323/295/1 328/288/1
f 323/295/1 324/296/1 328/288/1
f 324/296/1 325/297/1 328/288/1
f 325/297/1 326/298/1 328/288/1
f 326/298/1 327/299/1 328/288/1
f 346/300/1 315/301/1 345/287/1
f 315/301/1 316/302/1 345/287/1
f 316/302/1 317/289/1 345/287/1
f 346/300/1 314/303/1 315/301/1
f 346/300/1 313/304/1 314/303/1
f 346/300/1 312/305/1 313/304/1
f 347/306/1 312/305/1 346/300/1
f 347/306/1 311/307/1 312/305/1
f 347/306/1 310/308/1 311/307/1
f 348/309/1 310/308/1 347/306/1
f 348/309/1 309/310/1 310/308/1
f 348/309/1 308/311/1 309/310/1
f 349/312/1 308/311/1 348/309/1
f 349/312/1 307/313/1 308/311/1
f 350/314/1 307/313/1 349/312/1
f 350/314/1 306/315/1 307/313/1
f 350/314/1 305/316/1 306/315/1
f 351/317/1 305/316/1 350/314/1
f 351/317/1 304/318/1 305/316/1
f 352/319/1 304/318/1 351/317/1
f 352/319/1 303/320/1 304/318/1
f 352/319/1 302/321/1 303/320/1
f 353/322/1 302/321/1 352/319/1
f 277/323/1 275/2/1 276/324/1
f 277/323/1 278/325/1 275/2/1
f 278/325/1 376/4/1 275/2/1
f 353/322/1 301/326/1 302/321/1
f 354/327/1 301/326/1 353/322/1
f 354/327/1 300/328/1 301/326/1
f 279/329/1 376/4/1 278/325/1
f 355/330/1 300/328/1 354/327/1
f 355/330/1 299/331/1 300/328/1
f 355/330/1 298/332/1 299/331/1
f 356/333/1 298/332/1 355/330/1
f 356/333/1 297/334/1 298/332/1
f 357/335/1 297/334/1 356/333/1
f 357/335/1 296/336/1 297/334/1
f 357/335/1 295/337/1 296/336/1
f 358/338/1 295/337/1 357/335/1
f 358/338/1 294/339/1 295/337/1
f 280/340/1 376/4/1 279/329/1
f 281/341/1 376/4/1 280/340/1
f 282/342/1 376/4/1 281/341/1
f 358/338/1 293/343/1 294/339/1
f 283/344/1 376/4/1 282/342/1
f 284/345/1 376/4/1 283/344/1
f 285/346/1 376/4/1 284/345/1
f 358/338/1 292/347/1 293/343/1
f 359/348/1 292/347/1 358/338/1
f 286/349/1 376/4/1 285/346/1
f 287/350/1 376/4/1 286/349/1
f 288/351/1 376/4/1 287/350/1
f 359/348/1 291/352/1 292/347/1
f 289/353/1 376/4/1 288/351/1
f 290/354/1 376/4/1 289/353/1
f 291/352/1 376/4/1 290/354/1
f 359/348/1 376/4/1 291/352/1
f 360/355/1 376/4/1 359/348/1
f 360/355/1 375/356/1 376/4/1
f 360/355/1 374/357/1 375/356/1
f 361/358/1 374/357/1 360/355/1
f 361/358/1 373/359/1 374/357/1
f 361/358/1 372/360/1 373/359/1
f 362/361/1 372/360/1 361/358/1
f 362/361/1 371/362/1 372/360/1
f 362/361/1 370/363/1 371/362/1
f 362/361/1 369/364/1 370/363/1
f 363/365/1 369/364/1 362/361/1
f 363/365/1 368/366/1 369/364/1
f 363/365/1 367/367/1 368/366/1
f 363/365/1 366/368/1 367/367/1
f 364/369/1 366/368/1 363/365/1
f 364/369/1 365/370/1 366/368/1
